<?xml version="1.0" encoding="utf-8"?>
<!-- Generator: Adobe Illustrator 25.2.2, SVG Export Plug-In . SVG Version: 6.00 Build 0)  -->
<svg version="1.1" id="Layer_1" xmlns="http://www.w3.org/2000/svg" xmlns:xlink="http://www.w3.org/1999/xlink" x="0px" y="0px"
	 viewBox="0 0 64 64" style="enable-background:new 0 0 64 64;" xml:space="preserve">
<path d="M32,0C14.3,0,0,14.3,0,32c0,17.7,14.3,32,32,32c17.7,0,32-14.3,32-32C64,14.3,49.7,0,32,0z M31.5,8.3
	c12.2,0,15.4,11.1,15.4,11.1L45,19.6c0,0-3-8.4-13.2-8.4S18,21.1,18,21.1h-1.3C16.7,21.1,19.3,8.3,31.5,8.3z M38.4,55.7H24.8H13.6
	c0-3,1-5.7,2.8-8.1c2.8-3.6,7.3-6.1,12.7-6.8h0c0.3,0,0.6-0.1,0.9-0.1v0.1h3.2v-0.1c6.5,0.4,12,3.6,14.8,8.2c1.2,2,2,4.3,2,6.8H38.4
	z M50.4,28.5c-0.1,3.1-4,2.5-4,2.5c0.1-0.2,0-1.1,0-2.3c0,0.1,0,0.2,0,0.2c-0.1,1.5-0.3,2.8-0.4,3.9c0.3-0.3,0.7-0.6,0.9-0.9
	c0,0,0.9-0.6,1.5,0.6c0.2,0.5-0.9,1.3-2.7,2.3c-0.5,2.9-0.8,3.7,0.3,5.9c0,0-5.2,0.2-7.1-2.2c-0.5,0.1-0.9,0.2-1.2,0.3
	c-1.8,1-3.8,1.6-5.9,1.6c-2.5,0-4.8-0.8-6.8-2.1c-1.7,2.7-7.3,2.4-7.3,2.4c1.6-3.2,0.2-3.5-0.4-11.8v0c-0.2-1.1-0.2-2.2-0.1-3.4
	c0.6-4.5,2.5-7.5,4.6-9.5c0,0,0,0,0,0c3.9-3.5,8.7-3.7,8.7-3.7c5-0.7,8.9,1,11.5,3.7l0,0c0,0,2.8,2.6,4.1,7.2
	c-0.2-1.7-0.3-2.9-0.3-2.9h0.4h2c2.3,0.8,2.4,2.7,2.4,2.7V28.5z"/>
<path d="M32,39.1c-2.5,0.1-3-0.8-3-0.8S27.8,37,29.2,36c1.4-1,2.6-0.6,2.6-0.6s2.4,0.1,2.9,1.3c0,0,2.7-0.2,5.6-1.1
	c1.5-2.8,1.7-6.2,1.4-8.2c-7.9-3-11.4-8.6-11.4-8.6c-3.1,8.6-10.5,7-8.3,14.2c0.5,2,1.4,3.3,2.4,4.2c0.7,0.6,1.5,1.1,2.3,1.4
	c0.2,0.1,0.4,0.1,0.5,0.1c-0.1,0-0.2,0-0.3-0.1c1.5,0.7,3.1,1.1,4.8,1.1c2.6,0,5-0.9,7-2.4c-1.4,0.4-2.7,0.6-3.8,0.7
	C34.7,38.2,34.5,39.1,32,39.1z"/>
</svg>
