<?xml version="1.0" encoding="utf-8"?>
<!-- Generator: Adobe Illustrator 25.2.2, SVG Export Plug-In . SVG Version: 6.00 Build 0)  -->
<svg version="1.1" id="Layer_1" xmlns="http://www.w3.org/2000/svg" xmlns:xlink="http://www.w3.org/1999/xlink" x="0px" y="0px"
	 viewBox="0 0 64 64.1" style="enable-background:new 0 0 64 64.1;" xml:space="preserve">
<path d="M32,0C14.3,0,0,14.4,0,32s14.3,32,32,32s32-14.3,32-32S49.7,0,32,0z M22.1,17.3h4.9c0-2.7,2.2-4.9,4.9-4.9
	c2.7,0,4.9,2.2,4.9,4.9h4.9v4.9H22.1V17.3z M49.3,51.8H14.7V17.3h4.9v7.4h24.7v-7.4h4.9V51.8z"/>
<path d="M32,14.8c-1.4,0-2.5,1.1-2.5,2.5c0,1.4,1.1,2.5,2.5,2.5c1.4,0,2.5-1.1,2.5-2.5C34.5,15.9,33.4,14.8,32,14.8z"/>
<polygon points="30.9,39.5 25.6,34.3 22.1,37.8 29.1,44.8 30.9,46.5 44.3,33.1 40.8,29.6 "/>
</svg>
