<?xml version="1.0" encoding="utf-8"?>
<!-- Generator: Adobe Illustrator 25.2.2, SVG Export Plug-In . SVG Version: 6.00 Build 0)  -->
<svg version="1.1" id="Layer_1" xmlns="http://www.w3.org/2000/svg" xmlns:xlink="http://www.w3.org/1999/xlink" x="0px" y="0px"
	 viewBox="0 0 101.7 93.7" style="enable-background:new 0 0 101.7 93.7;" xml:space="preserve">
<style type="text/css">
	.st0{fill:#B60000;}
	.st1{fill:#BD0101;}
	.st2{fill:#BA0000;}
	.st3{fill:#FDCE02;}
	.st4{fill:#E2B312;}
	.st5{fill:#E2B212;}
	.st6{fill:#E2B313;}
	.st7{fill:#F2C007;}
	.st8{fill:#FBCA01;}
	.st9{fill:#FDEF04;}
	.st10{fill:#F5C40A;}
	.st11{fill:#ECBC0A;}
	.st12{fill:#FDD905;}
	.st13{fill:#FCCD01;}
	.st14{fill:#FEE701;}
	.st15{fill:#F0BF0B;}
	.st16{fill:#FED600;}
	.st17{fill:#FBCF02;}
	.st18{fill:#FDE804;}
	.st19{fill:#FDCE07;}
	.st20{fill:#F9C808;}
	.st21{fill:#EABA0C;}
	.st22{fill:#EBBB0B;}
	.st23{fill:#FDE702;}
	.st24{fill:#EBBA0C;}
	.st25{fill:#EABA0D;}
	.st26{fill:#FEE005;}
	.st27{fill:#EAB90C;}
	.st28{fill:#EDBC0A;}
	.st29{fill:#FDDB0A;}
	.st30{fill:#FDE70A;}
	.st31{fill:#F7EABB;}
	.st32{fill:#B00000;}
	.st33{fill:#A70000;}
	.st34{fill:#9D0100;}
	.st35{fill:#A20000;}
	.st36{fill:#FEFDF8;}
	.st37{fill:#ECBB0A;}
	.st38{fill:#FCD001;}
	.st39{fill:#FEFDF9;}
	.st40{fill:#FCCA05;}
	.st41{fill:#FDD300;}
	.st42{fill:#FDD101;}
	.st43{fill:#FAC902;}
	.st44{fill:#E3B412;}
	.st45{fill:#E4B410;}
	.st46{fill:#FCF8E4;}
	.st47{fill:#FCF7E4;}
	.st48{fill:#FAEDB6;}
	.st49{fill:#FBEDBB;}
	.st50{fill:#EBBB0C;}
	.st51{fill:#FDF6B7;}
	.st52{fill:#FDF5A1;}
	.st53{fill:#FDF37C;}
	.st54{fill:#FEDB01;}
	.st55{fill:#FEF200;}
	.st56{fill:#FDD400;}
	.st57{fill:#FDDD07;}
	.st58{fill:#FEF9DF;}
	.st59{fill:#FDF8D6;}
	.st60{fill:#FEED00;}
	.st61{fill:#FDF2A8;}
	.st62{fill:#FEF8CB;}
	.st63{fill:#F80000;}
	.st64{fill:#D80000;}
	.st65{fill:#FC0101;}
	.st66{fill:#F30000;}
	.st67{fill:#C50000;}
	.st68{fill:#BF0000;}
	.st69{fill:#C90000;}
	.st70{fill:#D00000;}
	.st71{fill:#D20000;}
	.st72{fill:#EF0000;}
	.st73{fill:#D60000;}
	.st74{fill:#E70000;}
	.st75{fill:#E30000;}
	.st76{fill:#EB0000;}
	.st77{fill:#DE0000;}
	.st78{fill:#DA0000;}
	.st79{fill:#CE0202;}
	.st80{fill:#D71717;}
	.st81{fill:#C50C0C;}
	.st82{fill:#FEFEFE;}
	.st83{fill:#DD0000;}
	.st84{fill:#ED0000;}
	.st85{fill:#E00000;}
	.st86{fill:#FDD308;}
	.st87{fill:#FEE702;}
	.st88{fill:#FEE601;}
	.st89{fill:#FED500;}
	.st90{fill:#FEE901;}
	.st91{fill:#FEDD01;}
	.st92{fill:#FEF100;}
	.st93{fill:#FEF600;}
</style>
<path class="st0" d="M11.6,84.8c6.5,0,13.1,0,19.6,0.1c1.4,0,1.1-0.8,1.1-1.6c0-15.9,0-31.7,0-47.6c0-3.8,0.4-7.5,1.5-11.1
	c0.2-0.8,0.5-1.5,0.8-2.3c0.9-0.3,1.1,0.3,1.3,1c0.2,0.7,0.1,1.5,0.1,2.2c0,21.7,0,43.4,0,65.2c0,0.9,0.1,1.8-0.4,2.7
	c-1.3,0.5-2.6,0.2-3.9,0.2c-0.7-0.5-0.5-1.3-0.6-2.1c0-1.6,0-3.2-0.2-4.8c-0.1-0.8-0.4-1.1-1.2-1.1c-1.4,0-2.9,0-4.3,0
	c-1.9,0.1-3.8,0.1-5.7,0c-1.4,0-2.8,0-4.2,0c-1.5-0.1-3,0.3-4.4-0.3C11,85.2,10.9,85,11,84.8C11.2,84.6,11.4,84.7,11.6,84.8z"/>
<path class="st1" d="M41.1,93.6L41.1,93.6c-5.2,0-10.5,0.1-15.7,0.1c-4.8,0-9.5,0-14.3,0c-1.1,0-1.5-0.3-1.5-1.4
	c0.1-1.7-0.1-3.4,0.1-5.1c0.1-1.6-0.3-2.6-1.9-3.1c0.6-0.5,1.3-0.6,2-0.9c1-0.4,1.5,0.4,1.9,1.2c0,0.1-0.1,0.2-0.1,0.3
	c-0.2,0.1-0.4,0.2-0.6,0.3c0.3,2,0.1,4,0.2,6.1c0.1,1.7,0.1,1.8,1.8,1.8c0.9,0,1.7,0,2.6,0c1.4-0.1,2.8,0,4.2,0
	c1.9-0.1,3.9-0.1,5.8,0c1.5-0.1,3,0,4.5,0c0.6,0,1.2,0.1,1.6,0.5h6.7c-0.4-0.5-0.4-1.2-0.3-1.8c0.3-4.9-0.2-9.9,0.1-14.8
	c0.4-6.2,0-12.3,0.1-18.5c0.1-3,0.1-6.1-0.2-9.1c-0.1-1.2,0.3-2.5,0.2-3.7c-0.4-4.3,0.5-8.7-0.2-13c-0.2-1,0.1-1.9,0.1-2.9
	c0.2-4.6,0.2-9.3-0.1-13.9c0.5-0.8,1-1.7,1.7-2.3c0.6,0.4,0.7,1,0.7,1.7c0.1,4.9,0.3,9.8,0,14.8c-0.1,1.5,0,3.1,0.4,4.6
	c-2,1.4-0.8,2.6,0.2,3.8c0.5,0.6,0.6,1.2,0.6,1.9c0,17.3,0,34.5,0,51.8C41.5,92.7,41.7,93.3,41.1,93.6z"/>
<path class="st2" d="M37.9,15.8c1.1,1.1,0.8,2.5,0.7,3.8c-0.1,1.4-0.1,2.7,0,4.1c0.2,2.3,0.1,4.7-0.3,7c-0.2,1.4,0.3,2.8,0.3,4.1
	c0.1,3.5,0,6.9-0.2,10.4c-0.1,2.7,0.5,5.5-0.1,8.3c-0.3,1.3,0.4,2.6,0.3,4c-0.3,4.7,0.2,9.5-0.1,14.2c-0.3,4.7-0.3,9.4-0.2,14.1
	c0.1,2.6-0.3,5.2-0.1,7.7c-0.6,0.3-1.1,0.2-1.7,0c-0.5-0.7-0.4-1.5-0.4-2.3c0.2-5.7,0.1-11.4,0.1-17.2c0-6.3-0.1-12.5-0.1-18.8
	c0-7.5-0.1-15,0-22.5c0.1-3.7,0-7.4,0-11.1c0-0.7,0-1.4-0.6-1.9C36.4,18.4,36.9,17,37.9,15.8z"/>
<path class="st2" d="M35.7,19.7c0.6-0.4,1.1-0.6,1.1,0.5c-0.2,3.8,0.3,7.5,0.1,11.3c-0.3,5.4-0.1,10.8-0.1,16.2
	c0,7.8-0.2,15.7,0.1,23.5c0.1,3.8-0.1,7.6,0.1,11.5c0.2,3.5,0,7.1-0.1,10.7c-0.4,0.3-0.9,0.3-1.3,0c0-23,0-46,0-69
	c0-0.8,0.4-1.8-0.9-2.1C34.9,21.5,35.1,20.5,35.7,19.7z"/>
<path class="st3" d="M17.4,18.4c-2,4.6-3.1,9.5-3.6,14.5c-0.1,0.2-0.1,0.3-0.3,0.4c0,0,0,0,0,0c-0.1,0-0.1,0-0.2,0
	c-1.6-1.6-2.4-1.3-3,0.9c-0.3,1.2-0.3,2.4-0.2,3.7c0.1,1.3,0.7,2.5,2,3.1c-0.1,0.6-0.5,1.1-0.9,1.6c-0.9,0.1-1.3-0.5-1.5-1.2
	c-0.2-0.4-0.4-0.8-0.5-1.3c0,0,0,0,0-0.1C8.5,38,8.5,35.9,9,33.8c0.2-0.8,0.5-1.5,0.8-2.3c0.5-1.1,1.4-1.4,2.4-1.7
	c0.1,0.2,0.3,0.5,0.7,0.5c0.3-4.4,1.4-8.6,3.5-12.5c0-0.1,0.1-0.2,0.1-0.3C17.2,17.3,17.6,17.4,17.4,18.4z"/>
<path class="st4" d="M15.9,71.8c1.1,0.1,2-0.7,3.1-0.8c0.5-0.1,1-0.3,1.1,0.4c0.5,3.1,0.2,8-3.5,10.5c-0.1-1.5,0.4-3,0.3-4.5
	c-0.1-1.4-0.3-2.7-1.4-3.7c-0.3-0.3-0.4-0.6-0.4-1C15.1,72.2,15.4,71.9,15.9,71.8z"/>
<path class="st5" d="M20.2,52.7c-0.1,3.1-1,5.9-3.4,8c0-0.1,0.1-0.1,0-0.2c0,0-0.1,0.1-0.1,0.1c0,0-0.1-0.1-0.1-0.1v0
	c-0.2-1.3,0.5-2.4,0.4-3.7c-0.2-1.9-1-3.5-2.2-4.9c0,0,0-0.1,0-0.1c0,0,0,0,0-0.1c0.1-0.3,0.3-0.5,0.5-0.7c0,0,0,0,0,0
	c0,0,0.1,0,0.1-0.1c0,0,0,0,0,0c0.1,0,0.2-0.1,0.2-0.1c-0.1,0.1-0.1,0.2-0.1,0.2c0.6,0.1,1.2-0.2,1.6-0.6
	C20.2,49.4,20.3,49.4,20.2,52.7z"/>
<path class="st4" d="M3.3,81.5c-3.1-2.7-3.4-6.2-3-9.9c0.1-0.7,0.5-0.8,1-0.6c0.9,0.3,1.7,0.6,2.6,0.9c0.1-0.1,0.3-0.2,0.5-0.2
	C5,71.9,5.7,72.1,5.5,73c-2,1.9-2.4,4.3-2.1,6.8C3.5,80.4,3.8,81,3.3,81.5z"/>
<path class="st4" d="M5.7,62.2C5.7,62.2,5.7,62.2,5.7,62.2C5.7,62.2,5.7,62.2,5.7,62.2c-0.1,0.2-0.2,0.3-0.3,0.4
	c-0.1,0-0.1,0.1-0.2,0.1c-0.2,0.2-0.4,0.4-0.6,0.6c0,0,0,0,0,0c-0.5,0.6-0.8,1.2-1,1.8c0,0,0,0,0,0c-0.4,1.3-0.3,2.7-0.2,4.1
	c0,0.3,0.1,0.6,0.1,0.9c0,0,0,0,0,0c0,0.3-0.1,0.5-0.3,0.7c-2.5-2.1-4-7.1-3-10.1c0.2-0.6,0.5-0.6,1-0.5c0.7,0.2,1.3,0.4,2,0.6
	c0.4,0.3,0.8,0.9,1.4,0.3c-0.1-0.1-0.2-0.1-0.4-0.2c0.1,0,0.2,0,0.4,0c0,0,0.1,0,0.1,0c0.1,0,0.1,0,0.2,0c0,0,0.1,0,0.1,0
	C5.5,61.3,5.8,61.6,5.7,62.2z"/>
<path class="st6" d="M3,60c-2.8-2.7-3.1-6.1-2.6-9.7c0.1-0.6,0.4-0.7,0.9-0.5c0.7,0.2,1.4,0.4,2.1,0.6c0.7-0.4,1.2,0.1,1.8,0.5
	c0.2,0.2,0.3,0.4,0.2,0.7c-1.6,2.2-2.3,4.6-2,7.3C3.4,59.2,3.3,59.7,3,60z"/>
<path class="st4" d="M15.2,41c1.1-1,2.5-1.3,3.9-1.8c0.4-0.1,0.9-0.3,1,0.4c0.4,2.8,0.3,7.5-2.9,10.1c-0.4-0.4-0.4-1-0.3-1.5
	c0.4-2.3,0.2-4.5-1.5-6.3C15.2,41.6,15,41.3,15.2,41z"/>
<path class="st4" d="M11.7,29.1C11.7,29.1,11.7,29.1,11.7,29.1c0,0.1-0.1,0.1-0.1,0.1C9.9,30.4,9.3,32,9,33.8
	c-0.1,0.7-0.2,1.5-0.2,2.2c-0.1,1.4,0,2.8,0.4,4.1c0,0,0,0,0,0.1c0.2,0.8,0.6,1.6,1,2.4c0.2,0.4,0.5,0.9,0.3,1.4
	c-0.2,0.6-0.5,0.3-0.8,0c-0.4-0.7-0.9-1.3-1.3-2c-1.9-2.8-2.3-6-1.6-9.3c0.4-1.1,0.6-2.4,1.4-3.3c0.1-0.1,0.2-0.2,0.3-0.4
	c0,0.2,0,0.3,0,0.5c0.6-0.8,1.3-1.5,1.9-2.3c0,0,0-0.1,0-0.1h0c0,0,0,0,0.1,0c0.4,0.1,0.7,0.4,0.9,0.7c0.1,0.1,0.2,0.3,0.3,0.4
	c0,0.1,0,0.2-0.1,0.3C11.6,28.6,11.6,28.9,11.7,29.1C11.7,29.1,11.7,29.1,11.7,29.1z"/>
<path class="st4" d="M3.3,49.7c-3-2.7-3.4-6.2-3-9.9C0.4,39,0.8,39,1.4,39.2C2.7,39.6,4.1,40,5.2,41c-1.8,2.4-2.2,5.1-1.7,8
	C3.5,49.3,3.5,49.5,3.3,49.7z"/>
<path class="st4" d="M20.2,63.2c-0.1,3.1-0.8,5.9-3.4,7.9c-0.2-0.2-0.2-0.5-0.2-0.8c0-0.1,0-0.2,0.1-0.3c0.7-2.7,0.3-5.2-1.4-7.5
	c0,0,0,0,0,0c-0.1-0.1-0.1-0.3-0.1-0.4c0-0.1,0-0.1,0-0.2l0,0c0,0,0,0,0-0.1c0,0,0,0,0,0c0,0,0,0,0,0c0-0.1,0.1-0.2,0.2-0.3
	c0.1,0,0.1-0.1,0.2-0.1c0,0,0.1,0,0.1-0.1c0,0.1-0.1,0.1-0.1,0.2c0.6,0.1,1.2-0.2,1.6-0.6C20.2,60,20.3,60,20.2,63.2z"/>
<path class="st7" d="M16.6,70.4C16.6,70.4,16.6,70.4,16.6,70.4L16.6,70.4L16.6,70.4c-0.1,0.3-0.3,0.6-0.5,0.9
	c-0.1,0.2-0.2,0.3-0.3,0.5c-0.1,0.3-0.4,0.6-0.7,0.7c-0.1,0.1-0.1,0.2-0.2,0.3l0,0v0c-0.1,0.1-0.2,0.3-0.4,0.3c0,0,0,0,0,0
	c0,0,0,0,0,0c0,0,0,0,0,0c0,0,0,0-0.1-0.1c0,0,0.1,0,0.1,0c0-0.1,0-0.2,0-0.3c-0.5,0-1,0.2-1.4,0.6c-0.2,0-0.4,0-0.6,0.1
	c-0.2,0.2-0.4,0.3-0.6,0.3c-1.2-0.5-2.5-0.4-3.7-0.1c0,0,0,0,0,0c-0.2-0.1-0.3-0.2-0.5-0.3c-0.2,0-0.4,0-0.6-0.1
	c-0.4-0.3-0.8-0.5-1.3-0.6C5.9,73,6,73.1,6,73.2l-0.2-0.1c-0.1-0.1-0.2-0.2-0.3-0.3c0,0,0,0,0,0c-0.4-0.3-0.9-0.7-1.3-1
	c0-0.1-0.1-0.1-0.1-0.2c-0.3-0.5-0.5-1.1-0.6-1.6c0,0,0,0,0,0c-0.5-1.8-0.5-3.5,0.1-5c0,0,0,0,0,0c0.2-0.6,0.6-1.2,1-1.8
	c0,0,0,0,0,0c0.3-0.4,0.6-0.7,0.9-1.1l0,0c0,0,0.1-0.1,0.1-0.1c0.1,0,0.2,0,0.3,0c0,0,0,0,0.1,0.1H5.9c-0.2,0.6,0.4,0.6,0.6,0.9
	c0,0,0,0,0.1-0.1c0,0,0,0,0,0.1c0,0,0,0.1-0.1,0.1c-1.9,1.7-2.7,3.8-1.8,6.3c1,2.8,2.8,3.2,4.9,1.1c0.1-0.1,0.2-0.2,0.4-0.3
	c0,0,0,0,0,0c0,0,0,0,0,0c0.1,0,0.2,0,0.2,0c0,0,0,0,0.1,0c0,0,0,0,0.1,0c0.3,0.2,0.5,0.5,0.7,0.7c1.2,1.2,2.3,1.1,3.5-0.1
	c1.6-1.7,1.6-5.2,0.1-7c-0.2-0.3-0.6-0.5-0.8-0.8c0,0,0-0.1,0-0.1c0,0,0,0,0,0h0c0.1-0.2,0.3-0.4,0.4-0.6c-0.1,0-0.2,0-0.3,0
	c0-0.1,0.1-0.1,0.1-0.2c0.2-0.1,0.5-0.3,0.7-0.2c0,0,0,0,0,0c0.1,0,0.1,0.1,0.2,0.1c0.1,0.1,0.1,0.2,0.2,0.2c0,0,0,0,0,0
	C17.2,65,17.7,67.8,16.6,70.4z"/>
<path class="st8" d="M15.4,50.8C15.4,50.8,15.4,50.8,15.4,50.8C15.4,50.9,15.3,50.9,15.4,50.8C15.3,50.9,15.3,50.9,15.4,50.8
	c-0.2,0.1-0.2,0.2-0.3,0.2c-0.2,0.1-0.3,0.3-0.4,0.5c0,0,0,0.1-0.1,0.1c0,0,0,0,0,0.1c-0.1,0.1-0.2,0.2-0.3,0.2c0,0-0.1,0-0.1,0
	c0-0.1,0-0.2,0-0.3c-0.1,0-0.2,0-0.2,0c-0.2,0.1-0.3,0.3-0.5,0.4c-1.1,0-2.1,0-2.9-1c-0.4-0.5-0.6-0.1-0.9,0.1
	C8.8,51.8,7.9,52,6.9,52c-0.2-0.1-0.3-0.3-0.5-0.4c-0.1,0-0.2,0-0.2,0c-0.1,0.1-0.1,0.2-0.1,0.4c-0.3-0.1-0.6-0.2-0.8-0.4
	c-0.1-0.1-0.1-0.2-0.1-0.2C5.1,51.2,5,51.1,4.9,51c-0.2-0.2-0.3-0.4-0.4-0.6c-0.6-0.9-1-1.9-1.1-3v0c-0.1-1.1,0-2.1,0.3-3.1
	c0,0,0,0,0,0c0.1-0.4,0.3-0.7,0.5-1c0.4-0.7,0.9-1.5,1.9-1.5c0.1,0.1,0.3,0.2,0.4,0.4c0.2,0.7-0.4,1-0.8,1.5
	c-1.3,1.8-1.4,4.1-0.2,5.7c0.6,0.7,1.3,1.3,2.3,1.1c0.8-0.2,1.2-0.7,1.4-1.4c0,0,0,0,0,0c0-0.1,0.1-0.3,0.1-0.5
	c0-0.2,0.1-0.4,0.2-0.6c0,0,0,0,0,0c0,0,0.1-0.1,0.1-0.1l0,0h0c0.4,0,0.5,0.2,0.6,0.4c0,0,0,0,0,0c0.1,0.1,0.1,0.3,0.1,0.4
	c0,0,0,0,0,0c0,0.1,0.1,0.1,0.1,0.2c0,0,0,0,0,0.1c0.1,0.2,0.2,0.3,0.3,0.5c0.1,0.2,0.2,0.3,0.3,0.4c0,0,0.1,0.1,0.1,0.1
	c0.4,0.4,0.9,0.6,1.6,0.5c0.9-0.1,1.6-0.6,1.9-1.3v0c0.1-0.2,0.2-0.4,0.2-0.7c0.6-2,0.3-3.8-1.2-5.3c-0.2-0.2-0.5-0.5-0.3-0.8
	c0.1-0.3,0.4-0.5,0.7-0.6c0.9-0.2,1.3,0.5,1.7,1C17.3,44.6,17.5,49.2,15.4,50.8z"/>
<path class="st9" d="M41.8,0.3c-5.2,1.1-10.2,2.7-14.5,6c-0.6,0.3-0.9,0.2-1.1-0.5c0,0,0-0.1,0-0.1c0.1,0,0.1-0.1,0.2-0.1
	c0.1-0.2,0.3-0.4,0.4-0.6c0.6,0,0.8-0.5,1.2-0.8c0,0,0-0.1,0-0.1c0,0,0-0.1,0-0.1c-0.2,0.1-0.3,0.1-0.5,0.2c0.1-0.1,0.2-0.1,0.3-0.2
	C28,4,28.1,3.9,28.2,3.9c0.2-0.1,0.5-0.3,0.7-0.4c0.2-0.1,0.3-0.2,0.5-0.4c0.9-0.5,1.8-1,1.6-2.3C34.5-0.2,38.1,0.1,41.8,0.3z"/>
<path class="st10" d="M11.8,18.1c-0.1,0.1-0.1,0.2-0.2,0.3c-1.4,3.4-2.7,6.8-3.1,10.5c0,0.2,0,0.3,0,0.5c-0.6,1.1-1.1,2.1-1.7,3.2
	C6.9,27,8.1,21.7,11,16.8C11.5,17.1,11.6,17.6,11.8,18.1z"/>
<path class="st11" d="M11.3,42.6c-0.6,1.1-0.7,2.3-0.3,3.5c0.1,0.1,0.1,0.2,0.1,0.4c0,0,0,0,0,0.1c0,0.2-0.1,0.3-0.1,0.5
	c0,0.1-0.1,0.2-0.1,0.3c-0.1,0.4-0.1,0.8-0.2,1.2c0,0,0,0,0,0c0,0.1-0.1,0.1-0.1,0.2c0,0,0,0.1-0.1,0.1c0,0.1-0.1,0.1-0.2,0.2
	c-0.5-0.3-0.1-1-0.6-1.3c0,0,0,0,0,0c0,0-0.1-0.1-0.1-0.1c-0.1-0.1-0.1-0.2-0.2-0.2c-0.1-0.2-0.1-0.4-0.2-0.6c0-0.2,0.1-0.3,0.2-0.4
	c0.4-0.8,0-1.7,0.3-2.5c1.1,0.3,0.6-0.3,0.4-0.7c-2.2-4-2.2-8.1-0.6-12.3c0.3-0.9,0.7-2.1,2.2-1.8c0,0,0,0,0,0c0,0,0,0,0,0
	c0.2,0.2,0.4,0.5,0.5,0.7c0.1,0.2,0.3,0.5,0.7,0.5c-3.3,0-3.3,2.6-3.6,4.8C8.8,37.9,9,40.5,11.3,42.6z"/>
<path class="st12" d="M24.8,8.4L24.8,8.4c-0.6,0.5-1.2,1-1.6,1.7c-2.2,2.6-4,5.5-5.8,8.4c0-0.8-0.5-0.9-1.1-0.6
	c0-0.1,0.1-0.2,0.1-0.3c1.8-3.9,4.4-7.2,7.6-10c0,0,0-0.1,0-0.1c0,0,0,0,0.1,0c0,0,0.1,0,0.1,0C24.8,7.5,25.2,7.8,24.8,8.4z"/>
<path class="st13" d="M10.4,81c0,0.2-0.1,0.4-0.1,0.5c-0.4,1.8-1.7,2.5-4,2c-0.2,0-0.4,0-0.6-0.2c-2.6-1.9-2.7-4.5-2-7.3
	c0.3-1.2,1-2.1,2.2-2.6c0,0,0.1,0,0.1,0c0,0.1,0,0.1,0.1,0.2c0.2,0.1,0.4,0.2,0.7,0.3c0,0.1,0,0.2,0,0.2c0.1,0,0.1,0.1,0.2,0.1
	c0,0.1,0,0.1-0.1,0.2C6.8,75,6.3,75.3,6,75.8c-0.9,1.3-0.9,2.7-0.5,4.1c0.5,1.9,1.9,2.2,3.3,0.9c0.3-0.3,0.5-0.7,0.9-0.9
	c0,0,0,0,0,0c0.1,0,0.1,0,0.2-0.1c0.3,0.1,0.4,0.4,0.5,0.6c0,0.1,0,0.2,0.1,0.3C10.4,80.8,10.4,80.9,10.4,81
	C10.4,80.9,10.4,81,10.4,81z"/>
<path class="st14" d="M9.4,46.4c0,0.1,0,0.3,0,0.4c0.3,0.9,0.2,1.7-0.3,2.4c-0.6,0.9-1.8,1.1-2.7,0.6c-1.1-0.6-1.8-2.3-1.6-3.9
	c0.2-1.7,1-2.6,2.6-2.9C8.5,43.9,9,45.1,9.4,46.4z"/>
<path class="st15" d="M16.5,81.2c0,0.1-0.1,0.1-0.1,0.2c-0.2,0.4-0.4,0.8-0.6,1.1c-1.2,1-2.6,1.6-4.1,2c-0.8-0.6-1.5-1.6-2.7-0.4
	c-0.2,0.2-0.8,0.1-1.2,0.1c-0.5-0.1-1-0.3-1.4-0.6c2.6-0.1,3.5-0.8,3.7-2.6c0.1-0.1,0.2-0.1,0.3,0c0,0,0,0,0,0c0,0,0,0,0.1,0
	c0,0,0,0,0,0c0.5,1.1,1.2,1.9,2.5,1.8c1.4-0.1,2.1-1.1,2.4-2.3c0.7-2.5,0.5-4.8-1.6-6.6v0c0,0,0,0,0,0c0.2-0.2,0.5-0.4,0.7-0.6
	c0,0,0,0,0,0c0,0,0,0-0.1-0.1c0,0,0.1,0,0.1,0h0c0,0,0,0,0,0c0.8,0.6,1.4,1.4,1.9,2.4C17.3,77.3,17.3,79.4,16.5,81.2z"/>
<path class="st16" d="M10.7,47.1c0.1-0.2,0.2-0.4,0.3-0.6c0.6,0.3,0.4,1.1,0.8,1.5c0.7,1,1.7,0.9,2.3-0.1c0.6-1.1,0.3-2.5-0.7-3.4
	c-0.4-0.3-1.1-0.4-0.7-1.2c0.2-0.5,0.5-0.8,0.9-1c2.2,1.7,2.7,3.9,2,6.5c-0.5,0.3-0.6,0.9-1.1,1.2c-0.9,0.7-1.9,0.9-2.8,0.4
	C10.3,49.6,10.4,48.4,10.7,47.1z"/>
<path class="st17" d="M7.5,42.9c-2.3,1.6-2.9,3.6-1.8,5.5c0.5,0.9,1.2,1.6,2.3,1.2c1-0.3,1.3-1.1,1.5-2.1c0-0.3,0-0.5,0-0.8
	c0.4,0.2,0.3,0.6,0.3,1c0.1,1.5-0.2,2.7-2,3c-1.7,0.2-2.4-1-3-2.1C3.5,46,4.7,43.9,6.5,42C7,42.1,7.2,42.5,7.5,42.9z"/>
<path class="st18" d="M30.5,2.9c-0.2,0.3-0.7,0.3-1.1,0.5c-0.4,0.3-0.9,0.5-1.3,0.7c0,0,0,0,0,0c0,0,0,0,0,0c0,0,0-0.1,0-0.1
	c-0.2,0.1-0.3,0.1-0.5,0.2c0,0,0,0,0,0c-0.4,0.2-0.7,0.3-1.1,0.5c-0.5,0-0.6,0.5-0.9,0.6c0,0,0,0,0,0c0,0-0.1-0.1-0.1-0.1
	c-0.2-0.3-0.2-0.6-0.2-0.9c0-0.1,0-0.1,0-0.2c0,0,0.1-0.1,0.1-0.1c0.4-0.5,0.2-1.1,0.5-1.6c1.6-0.9,3.2-1.6,5.1-1.6
	C32.2,1.7,30.9,2.3,30.5,2.9z"/>
<path class="st19" d="M22.8,5c0,0.1,0,0.2,0,0.2c0,0,0,0,0,0.1c0,0-0.1-0.1-0.1-0.1c-0.3,0.3-0.6,0.5-1,0.8c-1.2,0.7-2,1.8-3,2.8
	c-1.2,0.9-2,2.2-3.1,3.3c0,0,0,0-0.1,0c-0.1,0-0.1-0.1-0.2-0.1c-0.4-0.8,0.1-1.5,0.5-2.1c1.7-2,3.6-3.8,5.8-5.1
	C22.1,4.4,22.6,4.3,22.8,5z"/>
<path class="st20" d="M15.5,12C15.5,12,15.5,12.1,15.5,12c-1.3,2.1-2.6,4-3.8,6.1c-0.1,0.1-0.1,0.2-0.2,0.3
	c-0.2-0.6-0.4-1.1-0.6-1.7c1.2-2.6,2.8-4.9,4.9-7C15.7,10.5,15.4,11.2,15.5,12z"/>
<path class="st21" d="M6.5,52.6c0,0,0,0.1-0.1,0.1c-2.1,1.6-2.7,4.1-1.8,6.9c0.2,0.5,0.6,0.9,0.3,1.5c0,0.1-0.1,0.1-0.1,0.2H4.6
	c-0.1-0.1-0.2-0.1-0.4-0.2c-0.2-0.1-0.5-0.3-0.7-0.4C3.4,60.4,3.2,60.2,3,60c0-0.9,0.1-1.9,0-2.8c-0.2-2.4,0.8-4.2,2.3-5.8
	c0,0,0.1,0,0.1,0h0c0.3,0.1,0.5,0.2,0.8,0.3c-0.1,0.1-0.1,0.2-0.1,0.4C6.2,52.2,6.4,52.4,6.5,52.6C6.5,52.6,6.5,52.6,6.5,52.6z"/>
<path class="st22" d="M5.4,82.6c0.2,0.2,0.3,0.5,0.4,0.7c-1-0.4-1.8-1-2.5-1.8c-0.3-2.1-0.7-4.3,0.3-6.4c0.4-0.9,0.7-2,2-2.3
	c0,0,0,0,0,0c0.1,0,0.2,0,0.4,0C5.9,73,6,73.1,6,73.2c0,0,0,0.1,0,0.1c0,0.1,0,0.1,0.1,0.2C3.3,75.9,3,79.7,5.4,82.6z"/>
<path class="st23" d="M12.6,43.3c0.6,1,2.2,1.2,2.1,2.8c0,0.3,0.2,0.5,0.1,0.8c-0.2,1.2-0.7,2.5-2,2.4c-1.3-0.1-1.9-1.4-1.8-2.8
	c0-0.1,0-0.2,0-0.3C11.4,45.1,11.8,44.1,12.6,43.3z"/>
<path class="st24" d="M17.1,49.6c-0.1,0.1-0.2,0.3-0.3,0.4c-0.4,0.2-0.9,0.3-1.2,0.7c-0.1,0.1-0.1,0.2-0.1,0.2
	c-0.1,0.3-0.3,0.5-0.7,0.7c0,0-0.1,0-0.1,0.1c-0.1,0-0.1,0-0.2,0c0,0,0,0-0.1-0.1c0-0.5,0.3-0.8,0.6-1.1c2.3-2.6,1.8-6.7-0.9-8.9
	c0.2-0.4,0.5-0.6,1-0.7C17.8,43.4,17.7,46.5,17.1,49.6z"/>
<path class="st16" d="M12.2,41c-1.3,0.1-1.8-0.7-2.1-1.7c-0.5-1.7-0.5-3.4-0.1-5.2c0.3-1.1,0.7-2.1,1.8-2.4c1.2-0.3,1.1,1.1,1.8,1.6
	c0.3,0.9,0.2,1.8,0,2.7c0.1,0.1,0.1,0.2,0,0.2c-1-0.1-0.6-1.1-0.9-1.6c-0.2-0.4-0.1-1.2-0.8-1.2c-0.6,0-0.9,0.6-1,1.1
	c-0.1,1.9-1,4,1.2,5.3c0.3,0.2,0.4,0.5,0.1,0.8C12.3,40.8,12.2,40.9,12.2,41z"/>
<path class="st25" d="M6.1,41.7c-2.4,2.1-3,4.2-1.9,7.4c0.2,0.6,0.5,1.3,0.7,1.9c-0.5-0.2-1-0.4-1.5-0.6c0-0.2-0.1-0.4-0.1-0.6
	c-0.4-2.3-0.7-4.5,0.3-6.7c0.4-0.8,0.8-1.6,1.7-2C5.6,41.1,6,41.2,6.1,41.7z"/>
<path class="st26" d="M12.3,40.7c-2-1.3-2.2-3.3-1.9-5.4c0-0.4,0-0.8,0.2-1.1c0.3-0.7,0.7-1.5,1.5-1.4c0.8,0.1,0.8,1,1.1,1.6
	c0.3,0.6-0.2,1.3,0.4,1.8C13.6,37.8,13.1,39.3,12.3,40.7z"/>
<path class="st24" d="M5.5,62.2c-1.3,2-2.2,4.1-2,6.6c0.1,1.1,0.9,2,0.7,3.1c-0.1,0-0.2,0-0.4,0c-0.2-0.3-0.4-0.7-0.6-1
	c-0.4-2.2-0.6-4.3,0.2-6.5C3.8,63.4,4.4,62.5,5.5,62.2z"/>
<path class="st27" d="M16.2,71.3c1.2-3.3,0.7-6.3-1.3-9.1c0-0.2,0-0.3,0.1-0.4c0.1,0,0.1,0,0.2,0c2.5,2.7,2.8,5.8,1.6,9.2
	C16.6,71.2,16.4,71.3,16.2,71.3z"/>
<path class="st28" d="M17.1,80.5c0,0.6-0.5,0.9-0.6,1.4c-0.2,0.2-0.5,0.3-0.7,0.5c-0.2-0.8,0.5-1.3,0.7-2c0.1-0.3,0.2-0.6,0.2-1
	c0.1-0.5,0.1-0.9,0.1-1.4c0-1.8-0.8-3.5-2.3-4.9c0,0,0,0,0,0c0,0,0,0-0.1-0.1c0,0,0.1,0,0.1,0c0-0.1,0-0.2,0-0.3
	c0.2-0.1,0.3-0.2,0.5-0.2c0.1,0,0.1-0.1,0.2-0.1c0,0.2,0,0.4,0.1,0.5C17.8,75.1,17.2,77.9,17.1,80.5z"/>
<path class="st29" d="M25.5,4c-0.1,0.1-0.2,0.2-0.3,0.3c-0.2,0.2-0.4,0.4-0.7,0.5c-0.1,0-0.1,0-0.2,0c0,0,0.1-0.1,0.1-0.1
	c-0.8-0.5-1.1,0.2-1.6,0.6c-0.1,0-0.1,0-0.2,0c0,0,0,0,0,0.1c0,0-0.1-0.1-0.1-0.1c-0.1-0.6-0.5-0.6-1-0.6c1.3-0.9,2.6-1.9,4.2-2.2
	C26,3,26.8,3.7,25.5,4z"/>
<path class="st30" d="M27.3,6.2c-0.8,0.7-1.7,1.5-2.5,2.2c0-0.5-0.3-0.8-0.7-0.9c0,0,0-0.1,0-0.1c0,0,0,0,0.1,0c0-0.1,0-0.1,0.1-0.2
	c0.5-0.4,1.1-0.9,1.6-1.3c0.1-0.1,0.3-0.1,0.4-0.2c0.1,0,0.1-0.1,0.2-0.1C26.5,6.1,26.8,6.3,27.3,6.2z"/>
<path class="st30" d="M23.2,10.1c0.2-0.9,0.7-1.4,1.5-1.6C24.3,9,23.7,9.5,23.2,10.1z"/>
<path class="st26" d="M13.6,36c0-0.9,0-1.8,0-2.7c0.1-0.1,0.2-0.2,0.3-0.3C13.9,34,14,35,13.6,36z"/>
<path class="st31" d="M16.8,60.5c0,0-0.1,0.1-0.1,0.1c-0.3,0.3-0.9,0.4-1.1,0.8c0,0.1-0.1,0.1-0.1,0.2c0-0.1,0-0.1,0-0.2
	c0-0.7,0.5-0.9,1.1-0.9C16.7,60.5,16.8,60.5,16.8,60.5z"/>
<path class="st32" d="M31.6,93.4c-2,0-4.1,0-6.1,0c-0.4-0.4-0.4-1-0.5-1.5c-0.1-1.7,0.1-3.5-0.2-5.3c-0.1-0.6,0.2-1.1,0.6-1.6
	c1.4,0,2.9,0,4.3,0c1.1,0,1.6-0.2,1.7,1.5C31.5,88.9,31.5,91.2,31.6,93.4z"/>
<path class="st33" d="M25.5,85.1c-0.3,2.8,0.1,5.5,0,8.3c-1.9,0-3.9,0-5.8,0c-0.8-2.1-0.4-4.2-0.5-6.3c0-0.7-0.1-1.4,0.5-2
	C21.6,85.1,23.6,85.1,25.5,85.1z"/>
<path class="st34" d="M15.5,93.4c-1.2,0-2.5,0.1-3.7,0.1c-0.5,0-1.1,0.1-1.1-0.6c0.1-2.6-0.3-5.2,0.3-7.8c1.5,0,3,0,4.5,0.1
	c0.4,0.4,0.5,0.8,0.5,1.3c0.1,1.9,0.1,3.8,0,5.7C16,92.6,15.9,93.1,15.5,93.4z"/>
<path class="st35" d="M15.5,93.4c0-2.8,0-5.5,0-8.3c1.4,0,2.8,0,4.2,0c0,2.8,0,5.5,0,8.3C18.3,93.4,16.9,93.4,15.5,93.4z"/>
<path class="st36" d="M11.7,29.1C11.7,29.1,11.7,29.1,11.7,29.1C11.7,29.1,11.7,29.1,11.7,29.1C11.7,29.1,11.7,29.1,11.7,29.1z"/>
<path class="st36" d="M23.9,6.7c0,0-0.1,0.1-0.1,0.1c-0.9,0.8-1.9,1.5-2.8,2.3c-1,1.4-2,2.7-3.2,3.8c-3.3,4.6-5.1,9.7-6.2,15.1
	c0,0.1,0,0.2-0.1,0.3c-0.1-0.2-0.2-0.5-0.2-0.7c0-0.1,0-0.3,0-0.4c1.1-5.2,2.9-10.1,6-14.5c0.1-0.1,0.2-0.1,0.2-0.2
	c0.1-0.1,0.1-0.1,0.2-0.2c1.1-1.1,2.1-2.3,2.9-3.5c0,0,0,0,0,0c0.1-0.1,0.1-0.1,0.2-0.2C21.8,8,22.6,7.1,23.9,6.7
	C23.9,6.7,23.9,6.7,23.9,6.7z"/>
<path class="st36" d="M24.1,7.4c0,0,0,0.1,0,0.1C24.1,7.4,24.1,7.4,24.1,7.4C24.1,7.4,24.1,7.4,24.1,7.4z"/>
<path class="st37" d="M16.8,60.5c0,0-0.1,0.1-0.1,0.1c-0.3,0.3-0.9,0.4-1.1,0.8c0,0.1-0.1,0.1-0.1,0.2c-0.1,0.1-0.2,0.2-0.3,0.4l0,0
	c0,0,0,0,0,0c-0.5-0.3-0.4-0.7-0.1-1.1c1.9-3.1,1.3-5.9-0.9-8.5c0.1,0,0.1-0.1,0.2-0.1c0-0.1,0-0.2,0-0.4c0-0.1,0-0.2,0-0.3
	c0.1,0,0.2,0,0.4,0c0,0,0.1,0,0.1,0c0,0,0.1,0,0.1,0c0,0,0.1,0,0.1,0C17.8,54.1,17.9,57.2,16.8,60.5z"/>
<path class="st38" d="M10.4,60.2C10.4,60.2,10.4,60.2,10.4,60.2c0,0,0,0.1,0,0.1c0,0,0,0.1,0,0.1c0,0.1-0.1,0.2-0.1,0.3
	c0,0.1-0.1,0.2-0.2,0.3c-0.6,1.2-1.7,1.6-2.9,1.5c-0.1,0-0.2,0-0.3,0c-0.2-0.1-0.3-0.2-0.5-0.3c0,0,0,0-0.1,0c-0.1,0-0.3,0-0.4,0
	H5.9c-0.1,0-0.2,0-0.3,0c0,0-0.1,0-0.1,0c0-0.5-0.2-0.8-0.7-1c0-0.1-0.1-0.1-0.1-0.2c-1.1-2.1-1.2-4.4-0.4-6.7
	c0.3-1,0.9-1.8,2.1-1.8c0,0,0,0,0.1,0c0.1,0,0.2,0,0.2,0C7,53,7.2,53.3,7.5,53.6c0.1,0.1,0.1,0.1,0.2,0.2c-0.1,0.5-0.6,0.8-1,1.1
	c-1,1.1-1.3,2.3-0.7,3.7c0.2,0.6,0.6,1.2,1.4,1.2c0.7,0,1.1-0.5,1.5-1c0.3-0.4,0.1-1.1,0.6-1.3c0,0,0,0,0,0c0.1,0,0.1-0.1,0.2-0.1
	c0.3,0.4,0.6,0.9,0.7,1.4C10.5,59.2,10.5,59.7,10.4,60.2z"/>
<path class="st39" d="M19.2,9.2C19.2,9.2,19.2,9.2,19.2,9.2c-0.1,1.3-1.2,1.9-1.8,2.8c0,0.1-0.1,0.1-0.1,0.2c0,0,0,0,0,0.1
	c-2.8,3.7-4.8,7.8-6,12.2c-0.2,0.9-0.3,1.8-0.8,2.6c0,0-0.1,0.1-0.1,0.1c0,0,0-0.1,0-0.1h0c0.9-5.6,3.1-10.6,6.6-15.1
	C17.7,11.1,18.4,10.2,19.2,9.2C19.1,9.2,19.2,9.2,19.2,9.2z"/>
<path class="st40" d="M17.8,13c-3.3,4.6-5.1,9.7-6.2,15.1c0,0.1,0,0.2-0.1,0.3c-0.4-0.4-0.8-0.8-1.2-1.3c0,0,0-0.1,0-0.1h0
	c0.9-5.6,3.1-10.6,6.6-15.1c0.2,0,0.3,0,0.4,0c0.3,0.1,0.4,0.2,0.4,0.5C17.8,12.6,17.8,12.8,17.8,13z"/>
<path class="st41" d="M16,69.2c-0.2,0.9-0.6,1.7-1.3,2.4c-1.7,1.6-3.4,1.2-4.4-0.9c0,0,0-0.1-0.1-0.1c-0.1-0.2-0.2-0.3-0.2-0.5
	c-0.1-0.4-0.1-0.8,0-1.1c0.1-0.4,0.3-0.8,0.7-1.2c0.1,0,0.2,0,0.2,0v0c0,0,0,0,0,0c0.5,0.1,0.4,0.7,0.5,1c0.2,0.7,0.5,1.4,1.3,1.3
	c0.9-0.1,1.4-0.6,1.6-1.5c0.3-1.5-0.2-2.6-1.5-3.5c-0.1-0.1-0.3-0.2-0.4-0.3c0,0,0-0.1,0-0.1c0,0,0.1-0.1,0.1-0.1
	c0.3-0.6,0.7-1,1.2-1.3c0,0,0,0,0,0h0C16,63.6,16.5,67,16,69.2z"/>
<path class="st42" d="M10.1,70L10.1,70c0,0.2,0,0.3,0,0.5c0,0,0,0.1,0,0.1c-0.5,1.3-1.5,2.1-3,1.9c-1.4-0.1-2-1.1-2.6-2.3
	c-1-2.1-0.7-4.2,0.6-6.1c0.3-0.5,0.7-1,1.4-1c0,0,0,0,0.1-0.1c0,0,0,0,0,0.1c0.1,0,0.2,0,0.2,0c0.2,0.3,0.5,0.6,0.7,0.9
	c0.1,0,0.1,0,0.2,0.1v0c0,0,0,0,0,0C7,65.1,6,65.5,5.8,66.6c-0.2,0.8-0.2,1.5,0,2.2c0.3,0.7,0.7,1.4,1.5,1.5
	c0.9,0.1,1.3-0.6,1.6-1.3C9.1,68.6,9,68.2,9.4,68h0c0.1,0,0.1,0,0.2-0.1c0.3,0.3,0.4,0.6,0.5,0.9C10.2,69.2,10.1,69.6,10.1,70z"/>
<path class="st43" d="M15.5,60.8c-0.2,0.3-0.5,0.6-0.3,1c0,0,0,0,0,0c0,0,0,0,0,0c0,0,0,0,0,0.1l0,0c-0.1,0.1-0.2,0.2-0.2,0.2l0,0
	c-0.2,0.1-0.4,0.2-0.6,0.3c-0.1,0-0.2,0-0.3,0c-0.2,0-0.4,0-0.7,0c-0.2,0.1-0.3,0.2-0.5,0.3c-0.2,0-0.3,0-0.4-0.1c0,0,0,0,0,0
	c-1.4-0.2-2-0.8-2.1-2.1c0-0.1,0-0.2,0-0.4c0-0.1,0.1-0.1,0.1-0.1c0,0,0,0,0.1-0.1c0,0,0,0,0,0c0,0,0,0,0,0c0.4-0.2,0.7,0,1,0.2
	c1.9,1,3.5,0.2,3.9-1.9c0.3-1.9,0.2-3.6-1.6-4.9c-0.2-0.1-0.3-0.3-0.4-0.5c0,0,0-0.1,0-0.1c0,0,0.1-0.1,0.2-0.1c0-0.1,0-0.2,0-0.2
	c0.2-0.1,0.3-0.2,0.5-0.3c0.1,0,0.1-0.1,0.2-0.1C16.8,54.4,17.3,58.2,15.5,60.8z"/>
<path class="st44" d="M10.8,74.8C10.7,75.8,10.5,77,11,78c0.1-0.1,0.1-0.3,0.2-0.4c0,0.1,0,0.2,0,0.3c0,0,0,0,0,0c0,0.2,0,0.3,0,0.5
	c0,0.1,0,0.1,0,0.2c-0.1,0.3-0.1,0.6-0.2,0.9c-0.1,0.5-0.2,1-0.6,1.4c0,0,0,0,0,0.1c0,0,0,0,0,0H10c0-0.4,0-0.7-0.3-1c0,0,0,0,0,0
	c-0.3-0.2-0.5-0.5-0.6-0.8c0-0.1,0-0.3-0.1-0.4c0,0,0,0,0,0c0-0.2,0-0.3,0.1-0.5c0,0,0-0.1,0-0.1c0-0.1,0-0.2,0.1-0.3
	c0.1,0.2,0.1,0.3,0.2,0.5c0.6-2.8,0.4-3.6-1.2-4.5c0,0,0,0,0,0c-0.2-0.1-0.3-0.2-0.5-0.3c1.6-0.9,3.2-0.3,4.8,0
	c-0.2,0.2-0.4,0.3-0.6,0.3C11.4,74,10.8,74,10.8,74.8z"/>
<path class="st45" d="M11.1,67c0,0.1,0,0.2,0,0.2v0c0,0.2-0.1,0.3-0.2,0.4h0v0c-0.5,0.9-0.6,1.8-0.6,2.8v0.1H10c0,0,0-0.1,0-0.1
	c-0.3-0.8-0.1-1.7-0.6-2.5h0v0c-0.1-0.1-0.2-0.3-0.2-0.4c0-0.1,0-0.3,0-0.4c0.1,0.1,0.1,0.3,0.2,0.4c0.1-1.5,1-3.2-0.7-4.4
	c0,0,0,0,0.1-0.1h0l0,0c1.2-1.4,1.6-1.4,2.9,0c0,0,0,0,0,0h0c0,0,0,0,0,0c-1.8,1.1-0.8,2.7-0.7,4.2C11,67.3,11.1,67.2,11.1,67z"/>
<path class="st46" d="M12.5,64.6c0,0,0.1-0.1,0.1-0.1C12.6,64.6,12.6,64.7,12.5,64.6c-0.3,1-0.6,2-1.3,2.6c-0.1,0-0.1,0.1-0.2,0.1
	c0.1-0.1,0.1-0.3,0.2-0.4C11.5,66.2,11.8,65.3,12.5,64.6z"/>
<path class="st46" d="M12.4,62.8c0.3-0.1,0.7-0.1,0.9-0.3c-0.2,0.1-0.3,0.2-0.5,0.3c-0.3,0.2-0.7,0.3-1.1,0.3
	C11.9,63,12.1,62.9,12.4,62.8C12.4,62.8,12.4,62.8,12.4,62.8z"/>
<path class="st47" d="M9.4,78.2c-0.1-0.1-0.2-0.1-0.3-0.2c-0.7-0.6-0.9-1.5-1.3-2.3c-0.1-0.1-0.1-0.2-0.2-0.3v0c0,0,0,0-0.1-0.1
	c-0.2-0.3-0.5-0.6-0.6-0.9c-0.1-0.1-0.1-0.2-0.1-0.3c0.1,0,0.1,0.1,0.2,0.1c0.3,0.2,0.6,0.5,0.8,0.9c0.7,0.7,1.1,1.7,1.5,2.6
	c0,0,0,0,0,0C9.3,77.9,9.4,78.1,9.4,78.2z"/>
<path class="st47" d="M13.7,73.9c0,0.6-0.5,0.9-0.8,1.4c0,0,0,0,0,0c-0.1,0.1-0.1,0.1-0.2,0.2c-0.6,0.7-0.7,1.7-1.5,2.3
	C11.1,77.9,11.1,78,11,78c0.1-0.1,0.1-0.3,0.2-0.4c0.4-0.9,0.7-1.8,1.4-2.4c0.3-0.4,0.6-0.9,1-1.3C13.6,73.8,13.7,73.8,13.7,73.9
	C13.7,73.8,13.7,73.9,13.7,73.9z"/>
<path class="st48" d="M7.2,62.8C7.2,62.8,7.2,62.8,7.2,62.8C7.2,62.9,7.2,62.9,7.2,62.8C7.2,62.9,7.2,62.8,7.2,62.8
	c-0.1-0.1-0.2-0.1-0.3-0.2c-0.2-0.1-0.3-0.2-0.5-0.3c0.2,0.1,0.6,0.1,0.7,0.4C7.2,62.7,7.2,62.8,7.2,62.8z"/>
<path class="st49" d="M13.8,73.8C13.8,73.8,13.9,73.8,13.8,73.8C13.9,73.8,13.8,73.8,13.8,73.8c0,0.1-0.1,0.1-0.1,0.1
	c0,0-0.1,0-0.1-0.1c0,0,0.1,0,0.1,0C13.8,73.8,13.8,73.8,13.8,73.8z"/>
<path class="st50" d="M10.8,53.5c-0.2,1-0.3,2.2,0.2,3.3c0.1-0.1,0.1-0.3,0.2-0.4c0,0.1,0,0.2,0,0.3v0c0,0.2,0,0.3,0,0.5
	c0,0.2-0.1,0.4-0.1,0.6c0,0.2-0.1,0.4-0.1,0.6c0,0.1-0.1,0.3-0.1,0.4c0,0.1,0,0.1,0,0.2c0,0.1,0,0.2,0,0.3c0,0.4-0.1,0.7-0.3,1
	c0,0,0,0,0,0c0,0,0,0,0,0c0,0,0,0.1-0.1,0.1c0,0,0,0.1,0,0.1c0.2,1.7,1.5,2.1,2.9,2.1c-0.2,0.1-0.3,0.2-0.5,0.3
	c-0.3,0.2-0.7,0.3-1.1,0.3c0,0,0,0,0,0h0c0,0,0,0,0,0c-1-0.7-1.9-0.7-2.9,0l0,0h0c0,0,0,0-0.1,0c-0.5-0.1-1-0.3-1.5-0.4c0,0,0,0,0,0
	c0,0,0,0,0,0c-0.1-0.1-0.2-0.1-0.3-0.2c-0.2-0.1-0.3-0.2-0.5-0.3c0,0,0,0-0.1,0c0.7-0.1,1.5,0.1,2.2-0.3c1.6-0.8,1.9-2,0.8-4.6
	c0,0,0,0,0,0c-0.1-0.1-0.2-0.3-0.2-0.4c0-0.1,0-0.3,0-0.4c0.1,0.2,0.1,0.3,0.2,0.4c0.8-3.2,0.5-3.9-2.2-4.8C7.1,52.2,7,52.1,6.9,52
	c-0.2-0.1-0.3-0.3-0.5-0.4c1.3,0,2.5-0.1,3.3-1.2c0.2-0.2,0.4-0.4,0.6-0.1c0.9,1.4,2.3,1.2,3.6,1.2c-0.2,0.1-0.3,0.3-0.5,0.4
	c-0.1,0.1-0.2,0.1-0.3,0.2C12.4,52.6,11.1,52.4,10.8,53.5z"/>
<path class="st17" d="M10.7,47.1c0,0.3,0,0.6,0,1c-0.1,1,0.3,1.7,1.1,2.1c0.9,0.4,1.8,0.1,2.5-0.5c0.4-0.3,0.5-1,1.2-1
	c-0.5,1.4-1.5,2.2-3,2.1c-1-0.1-1.9-0.6-2.1-1.8C10.5,48.4,10.1,47.7,10.7,47.1z"/>
<path class="st51" d="M25.5,5.3c0,0.1,0,0.2-0.1,0.2c0,0,0,0,0,0c0,0,0,0,0,0C25.4,5.5,25.4,5.4,25.5,5.3z"/>
<path class="st52" d="M28.1,4L28.1,4c0,0.1,0,0.2,0,0.2C28,4.2,28,4.1,28.1,4C28.1,4.1,28.1,4,28.1,4z"/>
<path class="st53" d="M29.4,3.3c-0.3,0.5-0.8,0.8-1.3,0.9c0,0,0-0.1,0-0.1c0,0,0-0.1,0-0.1c0-0.1,0.1-0.1,0.1-0.1
	c0.2-0.2,0.4-0.4,0.7-0.4C29,3.4,29.2,3.4,29.4,3.3z"/>
<path class="st54" d="M9.7,79.9L9.7,79.9c-0.2,1.3-1.2,2.1-2.3,2.2c-1.2,0.1-2-0.9-2.3-2.1c-0.7-2.4,0.1-4.3,1.8-5.9
	c0.1,0,0.1,0.1,0.2,0.1c0.3,0.2,0.6,0.5,0.8,0.9c0.1,0.2,0.1,0.4,0.1,0.6c-0.1,0.3-0.6,0.5-0.9,0.7c-1,0.8-1.2,1.8-0.8,3
	c0.2,0.5,0.4,0.9,0.9,1c0.6,0.1,1-0.3,1.3-0.7c0.3-0.3,0.2-0.9,0.7-1.1c0.1,0,0.2,0,0.3,0C9.5,79.1,9.6,79.5,9.7,79.9z"/>
<path class="st55" d="M8.4,46.4c0,0.7-0.2,1.5-1,1.5c-0.6,0-1.2-0.6-1.2-1.3c0-0.7,0.4-1.6,1.2-1.6C8.2,45,8.4,45.7,8.4,46.4z"/>
<path class="st56" d="M15.5,81.5c-0.7,1.4-1.9,1.9-3.3,1.6c-1-0.2-1.7-0.7-1.8-1.6c0-0.2,0-0.4,0-0.6v0c0-0.1,0-0.3,0-0.4
	c0-0.7,0.2-1.5,0.6-2.1c0.1,0.1,0.2,0.1,0.2,0.2c0.2,0.3,0.2,0.7,0.3,1.1c0.2,0.5,0.5,1,1.1,1.1c0.7,0.1,1.1-0.3,1.5-0.8
	c0.7-1.1,0.5-2.7-0.4-3.7c-0.3-0.3-0.8-0.3-0.9-0.7c-0.1-0.1-0.1-0.2,0-0.4c0.3-0.4,0.6-0.9,1-1.3c0,0,0.1,0,0.1,0c0,0,0.1,0,0.1,0
	c0,0,0,0,0,0c1.5,0.4,2,1.6,2.2,2.8C16.3,78.3,16.3,80,15.5,81.5z"/>
<path class="st57" d="M25.5,5.3L25.5,5.3c0,0.1,0,0.2-0.1,0.3c0,0,0,0,0,0c0,0,0,0,0,0c-0.6,0.3-1.1,0.6-1.5,1.2
	c0,0-0.1,0.1-0.1,0.1c-0.9,0.8-1.9,1.5-2.8,2.3c-0.1-0.1-0.2-0.1-0.3-0.2c-0.2-0.2-0.3-0.4-0.4-0.6c0,0,0-0.1,0-0.1
	c0,0,0.1-0.1,0.1-0.1c0.5-0.5,1.1-1.1,1.6-1.6c0.4-0.3,0.9-0.7,1.3-1c0.4-0.3,0.7-0.5,1.1-0.8c0,0,0.1-0.1,0.1-0.1
	C24.7,4.3,24.9,4,25.4,4c0,0,0.1,0,0.1,0v0C25.5,4.4,25.5,4.9,25.5,5.3z"/>
<path class="st58" d="M20.3,8.2c0,0.1,0,0.1-0.1,0.2c-0.2,0.5-0.5,0.8-1.1,0.9c0,0-0.1,0-0.1,0c0,0,0.1-0.1,0.1-0.1
	C19.6,8.9,19.9,8.6,20.3,8.2C20.3,8.2,20.3,8.2,20.3,8.2z"/>
<path class="st59" d="M22.7,5.3C22.7,5.3,22.7,5.3,22.7,5.3c-0.1,0-0.1,0-0.1,0C22.6,5.2,22.7,5.3,22.7,5.3z"/>
<path class="st55" d="M13.9,46.6c-0.1,0.8-0.4,1.5-1.2,1.4c-0.8-0.1-1-0.9-1-1.6c0-0.7,0.3-1.5,1.1-1.5C13.7,45,13.8,45.9,13.9,46.6
	z"/>
<path class="st60" d="M12.9,36.3c0,1.2-0.2,2.6-1.2,2.6c-1.2,0-1-1.5-1-2.5c0-1,0.1-2.5,1.1-2.5C12.9,33.9,13,35.4,12.9,36.3z"/>
<path class="st61" d="M23.3,5.3C23.3,5.3,23.3,5.3,23.3,5.3C23.2,5.3,23.2,5.3,23.3,5.3C23.3,5.3,23.3,5.3,23.3,5.3z"/>
<path class="st62" d="M25.4,5.6C25.4,5.6,25.4,5.6,25.4,5.6C25.4,5.6,25.4,5.6,25.4,5.6C25.4,5.6,25.4,5.6,25.4,5.6z"/>
<g>
	<path class="st63" d="M94.3,13.3c1.8,2.2,3.4,4.5,4.3,7.2c0.3,2.5,0.4,5,0.2,7.5c-0.2,2.8-0.2,5.7,0,8.5c0.1,0.9,0.2,1.8,0,2.7
		c-0.1,0.6-0.2,1.2-0.1,1.8c0.6,5.7,0.2,11.4,0.2,17.1c0.1,6,0.1,12.1,0,18.1c-0.1,5.1,0.1,10.2,0,15.3c0,2,0,2-2.1,2
		c-0.9,0-1.8,0-2.7,0c-0.8-0.3-1.1-1-1.1-1.8c0.3-4.7-0.2-9.4,0-14.1c0.2-3.6-0.1-7.3,0-10.9c0.1-2.7-0.4-5.4,0.1-8.2
		c0.3-1.6-0.1-3.2-0.1-4.8c0-2.2,0-4.4,0.1-6.6c0.1-3.2-0.5-6.4,0.1-9.6c0.1-0.5,0.1-1.1,0.1-1.6c-0.2-4.7-0.2-9.4-0.2-14.1
		c0-2.3-0.1-4.7,0.2-7C93.4,14.3,93.3,13.5,94.3,13.3z"/>
	<path class="st64" d="M66.1,23.4c0,0.1,0,0.2-0.1,0.3c0,0,0,0,0,0c-0.3,3.2-0.1,6.3-0.1,9.5c0,10.4,0,20.9,0,31.3
		c0,8.7,0.1,17.5,0,26.2c0,0.8,0.1,1.7-0.3,2.5c0,0-0.1,0.1-0.1,0.1c0,0,0,0,0,0c-0.5,0.1-1,0.2-1.5,0.2h-0.6c-0.5,0-1-0.1-1.6-0.2
		c-0.6-0.4-0.3-1-0.3-1.4c0-17.2,0-34.4,0-51.6c0-1,0.4-1.7,0.9-2.5c0.6-0.7,1.4-1.7,0.9-2.4c-0.5-0.6-1.5-1.3-2.6-1
		c-0.2,0.1-0.5-0.1-0.8-0.1c-0.1-0.1-0.2-0.2-0.2-0.3c0.1,0,0.1,0.1,0.2,0.1c0-0.8,0.7-1.5,0-2.3c-0.2-1.3-0.4-2.5,0.4-3.7
		c0.3-0.4,0.2-0.9,0-1.3c0.2-1.6,0.3-3.2,0.1-4.8c-0.1-0.6-0.1-1.3,0.3-1.9c0,0,0.1,0,0.1-0.1c0,0,0,0,0.1,0c2,0.6,3.8,1.5,5.1,3.2
		C66.1,23.3,66.1,23.4,66.1,23.4z"/>
	<path class="st65" d="M61.9,93.5c1.2,0,2.3,0,3.5-0.1c0.6-0.5,1.3-0.4,2-0.4c1.1,0,2.2,0,3.2,0c1.7-0.1,3.4,0,5.1,0
		c2.1-0.1,4.3-0.1,6.4,0c2-0.1,4-0.1,6.1,0c1.1,0,2.2,0,3.3,0c0.9,0,1.8-0.1,2.6,0.4c1.2,0,2.4,0,3.5,0.1c0.8,0,1-0.4,1-1.1
		c0-4.2,0-8.3,0-12.5c0-3.2,0.2-6.4,0-9.6c-0.1-2.8,0.1-5.7-0.2-8.6c-0.2-2,0-4.1,0.1-6.1c0-2.4,0.1-4.8-0.1-7.2
		c-0.1-1,0.2-1.8,0.3-2.7c0.1-1.6-0.5-3.1-0.3-4.6c0.4-3.9-0.4-7.8,0-11.7c0.3-2.9-0.3-5.9,0.3-8.8c2.2,4.2,3.1,8.8,3.1,13.5
		c0.1,19.4,0,38.8,0,58.2c0,0.8,0,1.4-1.1,1.4c-12.7,0-25.4,0-38.1,0C62.3,93.6,62.1,93.5,61.9,93.5z"/>
	<path class="st66" d="M94,93.4h-2.5c-0.1-0.1-0.2-0.3-0.3-0.4c-0.4-0.8-0.2-1.7-0.2-2.5c0-1,0-2,0-3c0-1.7-0.2-1.8-1.8-1.8
		c-0.2,0-0.4,0-0.6,0c-0.1,0-0.2,0-0.3,0h-0.1c-2.1,0.1-4.1,0.1-6.2,0c-0.1,0-0.1,0-0.2,0h0c-0.8,0-1.5,0.1-2.3,0
		c-0.5-0.1-1.1,0-1.2-0.6v0h0c4.2,0,8.4-0.1,12.5,0c1.3,0,1.7-0.3,1.7-1.7c-0.1-14.9-0.1-29.9,0-44.8c0.1-5.8-0.8-11.3-4-16.3
		c-0.1-0.1-0.2-0.2-0.3-0.3c0.7-3.6-0.1-7.1,0.1-10.7c0-0.6,0-1.3,0.1-1.9c0.1-0.5,0.3-1.1,1.1-0.7c1.8,1.4,3.4,3,4.7,4.9
		c-0.9,1-0.7,2.3-0.7,3.5c0.1,1.4,0.2,2.8-0.1,4.3c-0.3,1.3,0.1,2.6,0.1,3.9c0.1,2.9-0.2,5.8,0.1,8.7c0.2,2-0.3,4.1-0.2,6.1
		c0.1,3,0.2,5.9,0.1,8.9c0,2-0.2,4.1-0.1,6.1c0.2,2.8-0.6,5.5,0.1,8.2c0.3,1-0.4,1.9-0.2,2.8c0.3,2.4-0.1,4.7,0.1,7.1
		c0.2,2.9,0,5.8-0.1,8.8c0,1.3,0,2.5,0.2,3.8c0.2,1.8,0.2,3.6,0,5.4C93.5,91.8,93.6,92.6,94,93.4z"/>
	<path class="st67" d="M50.6,27.2c-0.9,0.6-0.8,1.7-1.5,2.8c-0.4-1,0-1.8-0.2-2.6c-0.1-0.4-0.1-0.9-0.7-0.9
		c-0.6,0.1-0.4,0.5-0.4,0.9c-0.1,1-0.2,1.9-0.6,2.8c-0.6,1.2,0,2.3,0.3,3.4c0.1,0.3,0.4,0.8-0.1,0.9c-0.3,0.1-0.7,0.1-0.9,0
		c-0.4-0.2-0.1-0.6,0-0.8c0.2-0.5,0.2-1.1-0.2-1.5c-0.9-1.3-2-2.5-2.4-4.1c-0.1-0.4-0.6-1.1-1.2-0.9c-0.6,0.2-0.2,0.8-0.2,1.3
		c0,0.3,0.1,0.6,0.1,1c-1.3-0.5-1-1.7-0.5-2.3c1.1-1.6,0.8-3.4,0.8-5.1c0-3-0.3-6,0.1-8.9c0.2-1-0.1-2-0.4-3
		c1.3-1.3,2.6-2.6,4.2-3.5c1.2,0.3,1.1,1.3,1.1,2.1c0.1,2.6,0,5.2,0,7.8c0,0.6,0,1.3,0.1,1.9c0,0.2,0.1,0.3,0.2,0.4
		c-0.2,0.1-0.3,0.3-0.5,0.4c0.4,0.5,1,0,1.5,0.2c0.1,0,0.2,0,0.3-0.1c0.4,0.3,0.4,0.7,0,1.2c-0.1,0.1-0.2,0.2-0.3,0.4
		c-0.5-0.3-0.3,0.3-0.4,0.5c0.1,0.8,1.7,0.9,1,2c-0.7,1-0.1,1.4,0.6,1.9C50.6,25.9,50.6,26.6,50.6,27.2z"/>
	<path class="st68" d="M42.6,10.1c1.6,0.7,1,2.1,0.9,3.2c-0.3,3-0.2,5.9,0,8.8c0.1,1.5,0.4,3.4-0.4,4.3c-1,1.2-0.8,1.9-0.4,3
		c0.3,0,0.7,0,0.6,0.5c-0.1,1.4,0,2.9-0.4,4.2c-0.3,1.1-1.4,0.3-2.1,0.5C40,34.8,40,34.4,40,33.8c0-4.9,0-9.9,0-14.8
		c0-1.8,0-3.7-0.4-5.5C40.5,12.3,41.2,11,42.6,10.1z"/>
	<path class="st69" d="M53.5,14.3c0,0.1,0,0.1,0,0.2c-0.1,0-0.2,0.1-0.2,0.1c-1.7,1.4-3.3,2.8-5,4.2c-0.2,0.1-0.3,0.3-0.5,0.4
		c-0.4-0.6-0.4-1.2-0.4-1.9c0-2.9,0-5.8,0-8.7c0-0.8,0-1.5-0.6-2.1c1.8-1.3,3.5-2.6,5.7-3.3h0c1.3,0.2,1,1.4,1,2.1
		C53.6,8.4,53.7,11.3,53.5,14.3z"/>
	<path class="st70" d="M59.7,4.9c-0.2,2.2,0.1,4.4-0.1,6.6c0,0.1,0,0.2-0.1,0.3c-0.1,0-0.2,0-0.3,0.1c-2,0.9-3.9,1.8-5.9,2.7
		c-0.1,0-0.2,0.1-0.2,0.1c0-2.9,0-5.8-0.1-8.8c0-0.9,0-1.8-0.7-2.5C54.5,2.2,56.6,1.4,59,1C59.8,2.2,59.9,3.6,59.7,4.9z"/>
	<path class="st71" d="M60.9,25.9c-0.1,0.4,0,0.9-0.6,1c-1,0-1.4,0.7-1.6,1.4c-0.3,1.1-0.7,2.1-1.6,2.9c-0.6,0.5-0.8,1.4-0.7,2.2
		c0.1,1.5-0.6,1.4-1.8,1.1c1.4-2.6-0.4-5.3,0.4-7.8c-0.5-2.4-0.5-4.9-0.2-7.4c0-0.1,0.1-0.1,0.2-0.2c0,0,0,0,0.1,0
		c0.2,0,0.4,0,0.6,0c0.8,0,1.6-0.1,2.4,0.3c0,0,0,0,0,0h0c1,0,1.9,0.2,2.7,0.7c0,0,0,0,0.1,0C60.7,22,61.3,24,60.9,25.9z"/>
	<path class="st72" d="M89.2,17.8c0.3,1.5-0.3,2.9-0.6,4.4c-0.1-0.1-0.2-0.2-0.3-0.3c-1.3-1.4-2.5-2.9-3.8-4.3
		c-0.1-0.1-0.1-0.2-0.1-0.3c0-0.1-0.1-0.2-0.1-0.3c0.6-3,0.2-6,0.2-9.1c0-1-0.2-1.9,0.6-2.7c1.7,0.9,3.2,2,4.5,3.3
		c-0.6,0.1-0.7,0.5-0.7,1C89.1,12.3,88.7,15,89.2,17.8z"/>
	<path class="st73" d="M64.8,8.4c0,0.8-0.1,1.6-0.6,2.3c-0.1,0-0.2,0-0.3,0c-1.4,0.3-2.8,0.6-4.2,0.9c-0.1,0-0.2,0-0.3,0.1
		C58.9,8.2,59.6,4.6,59,1c1-0.4,2.1-0.6,3.2-0.6c0.1,0,0.2,0,0.3,0c1.9-0.2,2,0,2.2,2C64.8,4.4,64.7,6.4,64.8,8.4z"/>
	<path class="st74" d="M81.3,14.1c0,0.2-0.1,0.3-0.2,0.4c-0.1,0-0.1,0-0.2,0c-0.1,0-0.1,0-0.2,0c-1.3-0.7-2.7-1.4-4-2.1
		c0,0-0.1,0-0.1,0c-0.1-0.1-0.1-0.1-0.2-0.2C76,10.6,76.4,9,76.5,7.4c0.1-1.4,0.1-2.9-0.1-4.3c-0.1-0.6,0-1.2,0.3-1.7
		c1.6,0.3,3.1,0.9,4.5,1.6c0.2,0.3,0.4,0.5,0.4,0.9C81.7,7.3,81.8,10.7,81.3,14.1z"/>
	<path class="st75" d="M76.8,9.1c-0.2,1.1-0.1,2.2-0.1,3.3c0,0-0.1,0-0.1,0c-1.3-0.4-2.7-0.8-4.1-1.3c-0.1,0-0.1,0-0.2,0
		c0,0-0.1,0-0.1-0.1C72.1,7.5,72,4,72.2,0.5c1.6,0.1,3.1,0.4,4.5,1C77,4,77.2,6.5,76.8,9.1z"/>
	<path class="st76" d="M85.1,14.7c0,0.9,0,1.7-0.7,2.4c0,0,0,0.1-0.1,0.1c-1.1-0.9-2.3-1.7-3.4-2.6c0,0,0-0.1,0-0.1
		c0.4-3.8,0.3-7.6,0.3-11.4c1.4,0.5,2.7,1.2,3.9,2.1C84.7,8.3,85.1,11.5,85.1,14.7z"/>
	<path class="st77" d="M72.6,5c0,2,0.1,4.1-0.1,6.2c-0.1,0-0.1,0-0.2,0c-2.4-0.4-4.7-0.5-7.1-0.5c0,0,0,0,0-0.1
		c0-0.8,0.8-0.6,1.2-0.6c1.3,0,1.5-0.6,1.5-1.8C68,5.5,67.6,2.8,68,0.1C69.4,0,70.8,0,72.2,0.5C72.9,1.9,72.6,3.5,72.6,5z"/>
	<path class="st78" d="M66.5,10.4c-0.4-0.1-0.9-0.1-1.3,0.2c0,0-0.1,0-0.1,0.1c-0.3,0-0.6,0-0.9,0.1c-0.1,0-0.2,0-0.3,0
		c0.8-2,0.4-4.1,0.4-6.2c0-0.7-0.2-1.4-0.1-2.1c0.2-1.5-0.3-2.2-1.7-2.1c-0.1,0-0.2,0-0.3,0C64.1-0.1,66-0.1,68,0.1
		c0.7,2,0.2,4.1,0.4,6.1c0.1,0.7-0.2,1.5,0,2.2C68.9,10.3,68,10.6,66.5,10.4z"/>
	<path class="st79" d="M55.1,26.6c-1.2-1.1-1.1-0.1-1.4,0.7c-0.2,0.5,0.7,2-1.2,1.6c-0.6-0.1-0.9,0-0.6-0.6c0.2-0.6-0.2-0.8-0.6-1.1
		c0-0.6,0-1.3,0-1.9c1.3-0.9,0.4-1.7,0-2.6c0.9-0.5,1.2-1.2,0.9-2.3c-0.9,0.7-1.7,1.4-2.8,0.6c0,0,0,0,0,0c-0.5-0.3-0.3,0.3-0.4,0.5
		c-0.3-0.5-0.6-0.9,0.3-1.1c0.6-0.2,0.4-0.6,0-0.9c0.1,0,0.2,0,0.3-0.1c1.8-0.3,3.7-0.5,5.5-0.3c0,0,0,0,0.1,0
		C55.1,21.6,55.4,24.1,55.1,26.6z"/>
	<path class="st80" d="M60,34.5c-0.4-0.1-1.2,0.5-1.3-0.2c-0.2-0.9,0.4-1.5,1.3-1.6c-0.5,1.1-0.5,1.3-0.2,1.5c0.1,0,0.1,0.1,0.2,0.1
		C60,34.3,60,34.4,60,34.5z"/>
	<path class="st81" d="M44.7,34.5c-0.7,0.3-1.2,0.2-1.4-0.6c0-0.1,0-0.3,0.1-0.4C44.1,33.5,44.4,33.9,44.7,34.5z"/>
	<path class="st82" d="M58.1,19.4c-0.8-0.3-1.6,0.1-2.4-0.3C56.6,19.1,57.4,19,58.1,19.4z"/>
	<path class="st82" d="M78.3,84.9C78.3,84.9,78.3,84.9,78.3,84.9c-1.1,0.3-2.2,0.4-3.2,0.4h0c-1,0-1.9-0.1-2.9-0.2h-0.1
		c-0.4-0.1-0.8-0.1-1.2-0.2c0,0,0,0-0.1,0c0,0,0,0,0,0c0,0,0,0,0,0c-0.1-0.2-0.2-0.3-0.3-0.5c-0.2-0.7-0.1-1.4-0.1-2.1
		c0-15.6,0-31.3,0-46.9c0-0.8,0-1.6-0.1-2.4C70,30.4,69.4,28,67.9,26c-0.1-0.1-0.2-0.3-0.3-0.4c0,0,0,0,0,0c-0.4-0.7-1.3-1-1.5-1.9
		c0-0.1,0-0.3,0-0.4c0,0,0.1,0.1,0.1,0.1c0.5,0.6,1,1.1,1.6,1.7c1.7,2.1,2.7,4.5,2.9,7.2c0.4,0.6,0.3,1.4,0.3,2
		c0,16.8,0,33.6,0,50.4C73.4,84.8,75.8,84.8,78.3,84.9L78.3,84.9z"/>
	<path class="st78" d="M67.9,91.6c0,0.5,0,1-0.2,1.4c-0.1,0.1-0.2,0.3-0.3,0.4h-1.9V51.8c0-8.9,0-17.8,0-26.8c0-0.6-0.4-1.5,0.6-1.8
		c0,0,0.1,0.1,0.1,0.1c0.5,0.6,1,1.1,1.6,1.7c0.1,0.3,0.2,0.6,0.2,0.9c0,0.6-0.1,1.3-0.1,1.9c0,11.1-0.2,22.3,0.1,33.4
		c0.1,4.6-0.1,9.2,0,13.8C68,80.6,68,86.1,67.9,91.6z"/>
	<path class="st83" d="M71,91.9c0,0.4,0,0.7-0.2,1.1c-0.1,0.1-0.2,0.3-0.3,0.4c-1.1,0-2.1,0-3.2,0V93c0-5-0.1-10,0-15
		c0.1-3-0.1-6.1-0.1-9.1c0.1-13.6,0-27.2,0-40.8c0-0.9,0-1.7,0.2-2.5c0-0.2,0.1-0.3,0.1-0.5c1.7,2.1,2.7,4.5,2.9,7.2
		c0.3,0.6,0.1,1.2,0.1,1.7c0,16.9,0,33.8,0,50.7c0,0,0,0.1,0.1,0.1c0,0,0,0,0,0c0,0,0,0.1,0.1,0.1c0,0,0,0.1,0.1,0.1
		c0,0,0,0.1,0.1,0.1C71.1,87.5,71,89.7,71,91.9z"/>
	<path class="st74" d="M82.3,93c0,0.1-0.1,0.3-0.2,0.4h-6.4c-0.1-0.1-0.2-0.3-0.3-0.4c-0.2-0.4-0.2-0.9-0.2-1.4c0-0.9,0-1.8,0-2.7
		c0-3-0.1-3-3-3.3c-0.4,0-0.8-0.1-1.2-0.3c0,0-0.1-0.1-0.1-0.1l0,0c-0.1-0.1-0.1-0.2-0.1-0.2c0,0,0,0,0,0c0,0,0,0,0,0
		c0-0.1,0.1-0.1,0.1-0.1c2.5,0.1,4.9,0.1,7.4,0.2h0c1.1,0.4,2.3,0.1,3.5,0.2c0.1,0.1,0.1,0.3,0.2,0.4c0.6,1.7,0.3,3.6,0.4,5.3
		C82.5,91.6,82.6,92.3,82.3,93z"/>
	<path class="st84" d="M82.2,93.4c-0.4-2.7-0.3-5.5-0.3-8.3c2.1,0,4.3,0,6.4,0c0.4,0.4,0.5,0.9,0.5,1.5c0,1.8,0,3.5,0,5.3
		c0,0.5-0.1,1.1-0.5,1.5C86.2,93.4,84.2,93.4,82.2,93.4z"/>
	<path class="st85" d="M70.9,85.1c0.7,0,1.4,0,2.1,0c2.5,0,2.6,0.1,2.7,2.7c0.1,1.9,0,3.8,0,5.6c-1.7,0-3.4,0-5.1,0
		c0-2.1,0-4.3,0-6.4C70.6,86.3,70.5,85.7,70.9,85.1z"/>
	<path class="st66" d="M88.3,93.4c0-2.8,0-5.5,0-8.3c3.2-0.1,3.2-0.1,3.2,3.1c0,1.7,0,3.4,0,5.1C90.4,93.4,89.4,93.4,88.3,93.4z"/>
	<path class="st79" d="M58.1,19.4c-0.8-0.1-1.7,0.3-2.4-0.3C56.6,19.1,57.4,19,58.1,19.4C58.1,19.4,58.1,19.4,58.1,19.4z"/>
	<path class="st85" d="M70.9,84.7l0,0.2c0,0,0,0.1,0,0.1c0,0,0,0.1,0,0.1c-0.3-0.2-0.3-0.5-0.3-0.8c0-0.2,0-0.4,0-0.6
		c0-17.2,0-34.3,0-51.5c0.4,0.6,0.3,1.4,0.3,2C70.9,51.1,70.9,67.9,70.9,84.7z"/>
</g>
<path class="st86" d="M21,9.2c-1,1.4-2,2.7-3.2,3.8c-0.1-0.1-0.1-0.2-0.2-0.3c-0.1-0.2-0.2-0.3-0.3-0.5C17.2,12.1,17.1,12,17,12
	c0.7-0.9,1.4-1.8,2.1-2.7c0,0,0.1-0.1,0.1-0.1c0.4-0.3,0.7-0.6,1-0.9c0,0,0.1-0.1,0.1-0.1c0.3,0.1,0.5,0.3,0.6,0.6
	C21,8.9,21,9,21,9.2z"/>
<path class="st14" d="M9.2,59c-0.5,0.6-1,1.5-2,1.3c-1-0.1-1.4-0.8-1.7-1.7c-0.8-2.3,0.4-3.7,2-5c0.1,0.1,0.1,0.1,0.2,0.2
	c0.8,0.8,1.2,1.8,1.6,2.8c0,0,0,0,0,0c0.1,0.2,0.1,0.3,0.2,0.4c0,0.1,0,0.3,0,0.4c0,0,0,0,0,0C9.3,58,9.6,58.5,9.2,59z"/>
<path class="st87" d="M14.3,69.7c-0.6,0.6-1.2,1.2-2.1,0.8c-0.8-0.3-1.3-1-1.2-2c0-0.3,0-0.5,0-0.8v0c0-0.1,0-0.2,0-0.3
	c0.1-0.1,0.1-0.3,0.2-0.4c0.3-0.9,0.7-1.7,1.3-2.4c0,0,0.1-0.1,0.1-0.1C14.8,65.4,15.8,68.2,14.3,69.7z"/>
<path class="st88" d="M9.2,69.6c-0.5,0.6-0.8,1.4-1.7,1.3c-0.9-0.1-1.5-0.7-1.9-1.5c-0.9-1.9-0.1-4.1,1.9-5.2c0.1,0,0.1,0,0.2,0.1v0
	c0,0,0,0,0,0c0.8,0.8,1.3,1.8,1.7,2.9c0.1,0.1,0.1,0.3,0.2,0.4c0,0.1,0,0.3,0,0.4v0C9.3,68.5,9.6,69.1,9.2,69.6z"/>
<path class="st89" d="M15.8,58.6c-0.4,2.6-2.6,3.5-4.7,2c-0.2-0.1-0.4-0.2-0.7-0.3c0,0,0,0-0.1,0v0c0-0.5,0-1,0-1.5v-0.1
	c0.2,0,0.4,0,0.5,0.1c0.2,0.1,0.3,0.2,0.4,0.4c0,0,0,0,0.1,0.1c0.1,0.1,0.1,0.2,0.2,0.2c0.2,0.2,0.5,0.4,0.7,0.5c0,0,0,0,0.1,0
	c0.6,0.2,1.1,0.2,1.5-0.2c0.3-0.2,0.5-0.6,0.6-1c0.5-1.5,0.4-2.8-0.8-4c0,0-0.1-0.1-0.1-0.1c-0.3-0.2-0.6-0.4-0.7-0.8
	c0,0,0-0.1,0-0.2c0,0,0.1-0.1,0.1-0.1c0.1-0.3,0.2-0.5,0.5-0.6c0,0,0.1-0.1,0.2-0.1C15.7,54.2,16.1,56.3,15.8,58.6z"/>
<path class="st46" d="M12.9,53.5c0,0.1-0.1,0.2-0.1,0.2c-0.1,0.2-0.1,0.4-0.2,0.6c0,0.1-0.1,0.1-0.1,0.2c0,0,0,0-0.1,0.1
	c-0.6,0.6-0.6,1.5-1.2,2c-0.1,0-0.1,0.1-0.2,0.1c0.1-0.1,0.1-0.3,0.2-0.4v0c0.3-0.7,0.5-1.4,1.1-1.9c0.1-0.3,0.3-0.6,0.5-0.8
	C12.8,53.6,12.9,53.6,12.9,53.5z"/>
<path class="st14" d="M14.5,79.9c-0.5,0.8-1.1,1.6-2.1,1.3c-0.9-0.2-1.4-0.8-1.4-1.7c0-0.1,0-0.2,0-0.3c0-0.3,0-0.5,0-0.8
	c0-0.1,0-0.2,0-0.3c0.1-0.1,0.1-0.3,0.2-0.4c0.4-0.9,0.7-1.8,1.4-2.4c0.1,0.1,0.2,0.1,0.3,0.2C14.9,76.5,15.5,78.2,14.5,79.9z"/>
<path class="st88" d="M9.4,78.2c0,0.1,0,0.3-0.1,0.4c0,0-0.1,0.1-0.1,0.1c0,0.1-0.1,0.2-0.1,0.3c-0.3,0.8-0.6,1.6-1.7,1.8
	C6.7,81,6.2,80.7,5.9,80c-0.5-1.2-0.6-2.3,0.2-3.5C6.6,76,7.3,76,7.7,75.4v0c0-0.1,0.1-0.2,0.1-0.3c0.7,0.7,1.1,1.7,1.5,2.6
	c0,0,0,0,0,0C9.3,77.9,9.4,78.1,9.4,78.2z"/>
<path class="st90" d="M14,59.5c-0.1,0.1-0.1,0.1-0.2,0.2c-0.5,0.3-1,0.4-1.5,0.2c0,0,0,0-0.1,0c-0.4-0.1-0.7-0.4-0.9-0.7
	c0,0,0,0-0.1-0.1c-0.1-0.1-0.2-0.3-0.2-0.5c0-0.1-0.1-0.2-0.1-0.3c-0.1-0.3-0.2-0.7-0.1-1c0-0.1,0.1-0.2,0.1-0.2c0-0.1,0-0.2,0-0.3
	c0.1-0.1,0.1-0.3,0.2-0.4v0c0.3-0.7,0.5-1.4,1.1-1.9c0.1,0,0.2,0,0.3,0c0.4,0,0.8,0.1,1.1,0.3c0.4,0.2,0.8,0.7,1,1.2
	C15.1,57.1,14.8,58.8,14,59.5z"/>
<path class="st91" d="M15,58.4c-0.3,1.1-0.9,1.8-1.9,2.1c-1,0.3-1.6-0.5-2.2-1.2c0,0,0-0.1-0.1-0.1c-0.1-0.2-0.3-0.4-0.4-0.5
	c0.2-0.5,0.3-0.9,0.5-1.3c0-0.1,0.1-0.2,0.1-0.2c0,0.2,0.1,0.4,0.1,0.6c0.2,1,0.5,1.8,1.8,1.9c1.1,0,1.5-0.9,1.6-1.8
	c0.3-1.7-0.1-2.4-1.8-3c-0.1,0-0.2-0.1-0.3-0.2c-0.1-0.1-0.2-0.1-0.2-0.2c0.1-0.3,0.3-0.6,0.5-0.8c0,0,0.1-0.1,0.1-0.1
	C14.6,54.7,15.6,56.1,15,58.4z"/>
<path class="st55" d="M8.4,57.3c0,0.7,0,1.3-0.9,1.4c-1,0-1-0.7-1-1.4c0-0.7,0.1-1.6,0.9-1.6C8.4,55.6,8.5,56.5,8.4,57.3z"/>
<path class="st92" d="M13.9,67.6c0,0.8-0.2,1.6-1.2,1.6c-0.8,0-1-0.9-1.1-1.6c-0.1-0.8,0.3-1.5,1.1-1.5
	C13.6,66.2,13.9,66.9,13.9,67.6z"/>
<path class="st92" d="M8.4,67.6c0,0.8-0.2,1.7-1.1,1.6c-0.8,0-1.1-0.9-1.2-1.7c0-0.8,0.4-1.4,1.2-1.4C8.4,66.1,8.4,66.8,8.4,67.6z"
	/>
<path class="st55" d="M13.9,78.4c0,0.7-0.3,1.4-1.1,1.5c-0.8,0.1-1.1-0.7-1-1.3c0.1-0.7,0.2-1.7,1.2-1.7
	C13.7,76.9,13.9,77.6,13.9,78.4z"/>
<path class="st55" d="M8.4,78.4c0,0.7-0.2,1.4-1.2,1.5c-0.8,0-1-0.8-1.1-1.4c-0.1-0.9,0.5-1.5,1.2-1.6C8.2,76.8,8.4,77.6,8.4,78.4z"
	/>
<path class="st93" d="M13.6,57c0,0.6,0,1.3-0.8,1.3c-0.7,0-0.8-0.6-0.8-1.1c0-0.6,0-1.3,0.8-1.3C13.5,55.9,13.6,56.4,13.6,57z"/>
</svg>
