<?xml version="1.0" encoding="utf-8"?>
<!-- Generator: Adobe Illustrator 25.3.1, SVG Export Plug-In . SVG Version: 6.00 Build 0)  -->
<svg version="1.1" id="Layer_1" xmlns="http://www.w3.org/2000/svg" xmlns:xlink="http://www.w3.org/1999/xlink" x="0px" y="0px"
	 viewBox="0 0 281.4 178.9" style="enable-background:new 0 0 281.4 178.9;" xml:space="preserve">
<style type="text/css">
	.st0{fill:#FE0000;}
	.st1{fill:#B60000;}
	.st2{fill:#BD0101;}
	.st3{fill:#BA0000;}
	.st4{fill:#FDCE02;}
	.st5{fill:#E2B312;}
	.st6{fill:#E2B212;}
	.st7{fill:#E2B313;}
	.st8{fill:#F2C007;}
	.st9{fill:#FBCA01;}
	.st10{fill:#FDEF04;}
	.st11{fill:#F5C40A;}
	.st12{fill:#ECBC0A;}
	.st13{fill:#FDD905;}
	.st14{fill:#FCCD01;}
	.st15{fill:#FEE701;}
	.st16{fill:#F0BF0B;}
	.st17{fill:#FED600;}
	.st18{fill:#FBCF02;}
	.st19{fill:#FDE804;}
	.st20{fill:#FDCE07;}
	.st21{fill:#F9C808;}
	.st22{fill:#EABA0C;}
	.st23{fill:#EBBB0B;}
	.st24{fill:#FDE702;}
	.st25{fill:#EBBA0C;}
	.st26{fill:#EABA0D;}
	.st27{fill:#FEE005;}
	.st28{fill:#EAB90C;}
	.st29{fill:#EDBC0A;}
	.st30{fill:#FDDB0A;}
	.st31{fill:#FDE70A;}
	.st32{fill:#F7EABB;}
	.st33{fill:#B00000;}
	.st34{fill:#A70000;}
	.st35{fill:#9D0100;}
	.st36{fill:#A20000;}
	.st37{fill:#FEFDF8;}
	.st38{fill:#ECBB0A;}
	.st39{fill:#FCD001;}
	.st40{fill:#FEFDF9;}
	.st41{fill:#FCCA05;}
	.st42{fill:#FDD300;}
	.st43{fill:#FDD101;}
	.st44{fill:#FAC902;}
	.st45{fill:#E3B412;}
	.st46{fill:#E4B410;}
	.st47{fill:#FCF8E4;}
	.st48{fill:#FCF7E4;}
	.st49{fill:#FAEDB6;}
	.st50{fill:#FBEDBB;}
	.st51{fill:#EBBB0C;}
	.st52{fill:#FDF6B7;}
	.st53{fill:#FDF5A1;}
	.st54{fill:#FDF37C;}
	.st55{fill:#FEDB01;}
	.st56{fill:#FEF200;}
	.st57{fill:#FDD400;}
	.st58{fill:#FDDD07;}
	.st59{fill:#FEF9DF;}
	.st60{fill:#FDF8D6;}
	.st61{fill:#FEED00;}
	.st62{fill:#FDF2A8;}
	.st63{fill:#FEF8CB;}
	.st64{fill:#F80000;}
	.st65{fill:#D80000;}
	.st66{fill:#FC0101;}
	.st67{fill:#F30000;}
	.st68{fill:#C50000;}
	.st69{fill:#BF0000;}
	.st70{fill:#C90000;}
	.st71{fill:#D00000;}
	.st72{fill:#D20000;}
	.st73{fill:#EF0000;}
	.st74{fill:#D60000;}
	.st75{fill:#E70000;}
	.st76{fill:#E30000;}
	.st77{fill:#EB0000;}
	.st78{fill:#DE0000;}
	.st79{fill:#DA0000;}
	.st80{fill:#CE0202;}
	.st81{fill:#D71717;}
	.st82{fill:#C50C0C;}
	.st83{fill:#FEFEFE;}
	.st84{fill:#DD0000;}
	.st85{fill:#ED0000;}
	.st86{fill:#E00000;}
	.st87{fill:#FDD308;}
	.st88{fill:#FEE702;}
	.st89{fill:#FEE601;}
	.st90{fill:#FED500;}
	.st91{fill:#FEE901;}
	.st92{fill:#FEDD01;}
	.st93{fill:#FEF100;}
	.st94{fill:#FEF600;}
</style>
<path class="st0" d="M14.2,114c2.6-2.1,5.3-3.6,8.5-3.9c6.7-0.7,11.8,3.3,12.4,10c0.5,5.8,0.2,11.6,0.2,17.4
	c-0.1,9.3,3.6,16.6,10.8,22.3c3.8,3,8.1,5.3,12.5,7.1c9.7,4,19.9,5.9,30.3,7.1c12.8,1.4,25.7,1.4,38.6,0.3c9.6-0.8,19.2-2,28.3-5.4
	c3.3-1.2,6.4-2.7,9.1-5.1c2.2-2,3.7-4.3,3.6-7.4c-0.1-2.7-3.3-5.3-5.9-4.9c-1.7,0.3-2.8,1.8-2.5,3.3s1.8,2.3,3.5,1.9
	c0.6-0.2,1.2-0.4,1.8-0.6c0.4,3-2,5.5-4.9,4.7c-2-0.5-3.7-0.5-5.7,0.2c-3,1.1-5.6,0.1-6.9-2.1c-0.3-0.4-0.6-0.8,0.2-1.1
	c2.3-0.8,3.9-2.4,5.6-4c0.9-0.9,1.8-1.8,2.7-2.8c3.4-3.6,7.4-4.2,11.1-1.8c3.8,2.5,5.2,7.2,3.5,11.5c-1.2,2.8-3.4,4.8-5.9,6.4
	c-5,3.3-10.6,5.2-16.3,6.8c-13.6,3.8-27.6,5-41.7,5C91,178.8,75.2,177,59.9,172c-8.1-2.6-15.8-6.1-22.4-11.7
	c-7.1-6-10.7-13.5-10.5-22.8c0.1-4.6,0-9.2,0-13.8c0-0.6,0-1.2,0-1.8c-0.2-2.1-0.5-4.3-2.7-5.3c-2.3-1-4.7-0.5-6.7,1
	c-1.6,1.1-2.5,2.8-2.8,4.7c-0.6,4.5-0.2,9.1-0.3,13.7c0,0.7,0,1.4,0,2.1c-0.5,4.8-2.9,7-7.7,6.9c-1.4,0-2.8-0.1-4.2,0
	c-1,0-1.6-0.4-1.9-1.4c-0.2-1,0-1.8,0.9-2.3c0.7-0.4,1.5-0.6,2.3-0.7c1.4-0.2,2-1.1,2-2.3c0-6.2,0-12.3-0.1-18.5
	c-0.1-2.6-1.1-3.5-3.7-3.8c-1-0.1-1.7-0.6-1.8-1.7s0.3-2.1,1.5-2.3c3.5-0.5,7-1.1,10.5-1.4C13.4,110.4,14,111.4,14.2,114z"/>
<path class="st0" d="M72.4,128.9c0,5.1,0,10.2,0,15.3c0,1.1-0.3,1.4-1.4,1.3c-0.9-0.1-1.8-0.1-2.7,0c-1.9,0.1-3.3-0.5-3.9-2.3
	c-0.4-1.2-1-0.4-1.4-0.1c-3.6,2.4-7.6,3-11.9,2.4c-5.5-0.8-8.2-3.9-8.7-9.9c-0.4-4.4-0.2-8.8-0.2-13.2c0-1.1,0-2.3-0.2-3.4
	c-0.4-2-1-2.5-3.1-2.8c-1.6-0.2-2.2-0.8-2.3-2.3c0-1,0.4-1.7,1.4-1.9c3.6-0.5,7.2-1.1,10.8-1.4c1.3-0.1,1.9,1,1.9,2.4
	c0,4.8,0,9.7,0,14.5c0,2.8,0.1,5.7,0.7,8.5c0.4,2.3,1.5,3.2,3.8,3.3c2.7,0,5.2-0.7,7.6-1.9c0.6-0.4,0.9-0.8,0.9-1.5
	c0-5.3,0-10.6,0-15.9c0-2.5-0.6-3.1-3-3.7c-1.2-0.3-2-1-2.1-2.3c0-1.4,1-1.9,2.2-2.1c3-0.4,6.1-0.8,9.1-1.2c1.6-0.2,2.5,0.7,2.5,2.8
	c0,3.5,0,7,0,10.5C72.4,125.5,72.4,127.2,72.4,128.9z"/>
<path class="st0" d="M145.1,113.8c3.2-2.7,6.6-4.2,10.7-4c5.5,0.3,9.5,3.9,10.2,9.3c0.2,1.6,0.3,3.2,0.3,4.8c0,6.6,0,13.2,0,19.8
	c0,1.2-0.2,1.7-1.5,1.5c-1-0.1-2,0-3.1,0c-2.1,0-3.2-0.8-3.7-2.8c-0.3-1.1-0.4-2.3-0.4-3.5c0-5.1,0-10.3,0-15.4
	c0-1.6-0.1-3.1-0.7-4.6c-0.6-1.5-1.7-2.6-3.4-2.8c-4-0.5-7.6,2-8.2,6c-0.7,4.6-0.4,9.3-0.4,14c0,1,0,2-0.1,3c-0.5,3.8-3,6-6.8,6.1
	c-1.6,0-3.2,0-4.8,0c-1.2,0-1.8-0.5-2.1-1.6c-0.2-1,0.2-1.8,1.1-2.3c0.6-0.3,1.3-0.5,2-0.6c1.5-0.2,2.2-1.1,2.3-2.4
	c0-6.1,0.1-12.2,0-18.3c-0.1-2.8-1.1-3.7-3.7-4.1c-1.1-0.2-1.8-0.7-1.8-1.9c0-1.2,0.4-2.1,1.6-2.3c3.4-0.5,6.8-1,10.2-1.4
	C144.3,110.3,144.8,111,145.1,113.8z"/>
<path class="st0" d="M281.4,144.2c-0.1-3.9,0-7.7,0-11.6l0,0c0-3.9,0.1-7.7,0-11.6c-0.1-4.2-1.9-7.4-5.7-9.3
	c-5.3-2.6-13.3-1.4-17.7,2.4c-1.9,1.6-2.8,3.6-2.6,6.1c0.1,1.7,0.9,3,2.5,3.6c1.9,0.8,3.7,0.2,5.2-1c1.4-1.1,1.1-2.5,0.6-4
	c-0.1-0.3-0.2-0.7-0.3-1.1c-0.3-0.9,0-1.6,0.7-2.1c2.8-2.1,7.1-0.8,8.3,2.5c0.6,1.8,0.6,3.7,0.7,5.6c0,0.9-0.2,1.3-1.2,1.3
	c-2,0.1-4,0.1-5.9,0.6c-3.1,0.7-6.1,1.6-8.5,3.9c-3.2,3.1-3.6,6.9-2.3,10.8c1,3.2,3.5,4.8,6.7,5.2c3.9,0.5,7.6-0.1,10.9-2.4
	c0.8-0.6,1.3-0.5,2,0.2c1.4,1.6,3.1,2.3,5.3,2.3C281,145.7,281.4,145.4,281.4,144.2z M272.9,134.9c0,2.7-0.5,3.4-3,4.3
	c-0.6,0.2-1.2,0.4-1.9,0.5c-1.6,0.2-3.1,0.4-4.2-1.3s-1-4.1,0.3-5.6c2.1-2.5,5.2-3,8.2-3.5c0.6-0.1,0.5,0.4,0.5,0.7
	c0,1.1,0,2.2,0,3.4v1.5H272.9z"/>
<path class="st0" d="M220.9,132.4L220.9,132.4c0-3.9,0.1-7.8,0-11.7c-0.1-3.9-1.8-6.9-5.3-8.8c-5.5-2.9-14-1.7-18.5,2.5
	c-1.9,1.8-2.5,4-2,6.6c0.3,1.6,1.3,2.6,2.8,3c1.9,0.5,3.6-0.1,5-1.4c1.3-1.2,0.7-2.7,0.2-4c-0.4-1.1-0.6-2.1,0.5-2.9
	c2.8-2,7.1-0.8,8.3,2.5c0.7,2,0.6,4,0.6,6c0,0.7-0.4,0.8-0.9,0.8c-1.3,0.1-2.6,0.1-3.9,0.3c-3.8,0.4-7.5,1.3-10.5,3.9
	c-3.4,2.9-3.9,6.8-2.7,10.9c0.9,3.2,3.3,4.9,6.5,5.4c3.9,0.6,7.7,0,11.1-2.2c0.8-0.6,1.3-0.7,2.1,0.2c1.4,1.6,3.2,2.3,5.4,2.3
	c1,0,1.3-0.3,1.3-1.3C220.8,140.4,220.9,136.4,220.9,132.4z M212.4,133.3v1.4c0,2.8-0.7,3.7-3.4,4.6c-0.5,0.2-1,0.3-1.6,0.3
	c-1.5,0.2-3.1,0.4-4-1.2c-1-1.7-1.1-3.5-0.1-5.2c1.1-1.9,6.5-4.3,8.6-4c0.6,0.1,0.5,0.5,0.5,0.8
	C212.4,131.2,212.4,132.2,212.4,133.3z"/>
<path class="st0" d="M128.9,132.4L128.9,132.4v-11.3c0-0.3,0-0.5,0-0.8c-0.3-4.5-2.9-7.9-7.3-9.2c-4-1.2-8-1.1-11.8,0.4
	c-4.9,1.8-7.2,5-6.8,9.1c0.2,1.8,1.3,3.1,3.1,3.4c1.9,0.4,3.5-0.2,4.8-1.5c1.2-1.2,0.7-2.5,0.2-3.9c-0.4-1-0.7-2.1,0.4-2.9
	c2.6-2.1,7-0.9,8.3,2.2c0.8,1.9,0.7,4,0.7,6c0,0.9-0.3,1.1-1.1,1.1c-2.5,0.2-5,0.2-7.5,0.9c-2.4,0.7-4.7,1.5-6.6,3.1
	c-3.5,3-4,6.9-2.8,11c0.9,3.3,3.5,5,6.7,5.4c3.9,0.5,7.7-0.1,11.1-2.4c0.8-0.5,1.2-0.6,1.8,0.2c1.5,1.8,3.4,2.5,5.7,2.4
	c0.9,0,1.1-0.3,1.1-1.2C128.8,140.4,128.9,136.4,128.9,132.4z M120.4,133.5v1.4c0,2.7-0.5,3.4-3,4.3c-0.6,0.2-1.2,0.4-1.9,0.5
	c-1.6,0.2-3.2,0.4-4.1-1.3c-1-1.8-1.2-3.6,0.1-5.3c2.1-2.7,5.3-3.2,8.4-3.8c0.6-0.1,0.5,0.5,0.5,0.8
	C120.4,131.2,120.4,132.3,120.4,133.5z"/>
<path class="st0" d="M86.5,145.6c-2.3,0-4.6-0.3-6.8-1c-0.8-0.2-1.4-0.5-2,0.5c-0.5,0.9-1.7,0.6-2.5,0.3c-0.8-0.2-1-1-0.8-1.7
	c0.5-3,0-5.9-0.3-8.8c-0.1-1.2,0.1-2,1.4-2.3s2.2,0.1,2.7,1.4c0.3,0.8,0.4,1.7,0.7,2.4c1.6,3.9,6.9,5.9,10.7,4.1
	c2.5-1.2,3.1-4.3,1.1-6.3c-1.5-1.5-3.5-2.4-5.5-3.2c-1.7-0.7-3.5-1.2-5.2-2c-4.8-2.2-6.9-6.6-5.6-11.5c0.7-2.6,2.3-4.3,4.6-5.5
	c4.7-2.4,9.5-2.8,14.4-0.4c0.4,0.2,0.7,0.6,1.1-0.2c0.7-1.2,1.9-1,3-0.6c1.2,0.5,0.8,1.4,0.6,2.3c-0.6,2.4-0.3,4.8-0.1,7.2
	c0.1,1.4-0.4,2.2-1.7,2.4c-1.4,0.2-1.9-0.6-2.3-1.7c-0.1-0.4-0.2-0.7-0.3-1.1c-1.2-4.6-5.3-6.5-9.7-4.6c-1.2,0.5-1.9,1.3-2,2.7
	c-0.2,1.4,0.6,2.2,1.6,2.9c1.7,1,3.6,1.7,5.5,2.3c2.7,0.9,5.2,2.1,7.3,3.9c3.2,2.7,4.5,6.1,3.8,10.2c-0.8,4.1-3.7,6.2-7.4,7.4
	C90.6,145.5,88.5,145.7,86.5,145.6z"/>
<path class="st0" d="M172.7,127.7c0-3,0-6,0-9c0-2.4,0.4-2.5-2.3-2.4c-1.5,0.1-2.1-0.7-2.3-2c-0.2-1.5,0.5-2.7,2-2.7
	c3.9-0.1,5-2.8,5.6-5.9c0.4-2.2,2.7-3.3,4.7-2.2c0.6,0.4,0.8,0.9,0.8,1.6c0,1.6,0.1,3.1,0,4.7c-0.1,1.1,0.2,1.5,1.4,1.5
	c1.9-0.1,3.8-0.1,5.6,0c1.7,0,2,0.5,2,2.5s-0.4,2.5-2,2.6c-2,0-4,0-5.9,0c-0.6,0-1.1,0-1,0.8c0.2,6.4-0.3,12.9,0.3,19.3
	c0,0.2,0,0.4,0.1,0.6c0.6,2.5,1.6,3.2,4.1,2.7c1.1-0.2,2.2-0.6,3.2-1c1-0.5,1.9-0.4,2.6,0.5c0.7,0.9,0.5,1.9-0.2,2.7
	c-1.3,1.5-2.8,2.7-4.7,3.2c-2.5,0.7-5.1,0.8-7.6,0.2c-3.7-0.8-5.9-3.2-6.1-7c-0.2-3.5,0-7.1,0-10.6
	C172.8,127.7,172.7,127.7,172.7,127.7z"/>
<path class="st0" d="M237.4,113.8c3.2-3,6.7-4,10.8-3c3.2,0.9,4.7,3.4,3.9,6.7c-0.7,2.9-4.7,4.3-7,2.4c-0.7-0.6-0.9-1.4-1-2.3
	c-0.2-1.4-0.9-1.8-2.2-1.3c-0.9,0.3-1.5,1-2,1.8c-1.1,1.9-1.9,3.8-1.9,6c0.1,4.3,0,8.7,0,13c0,1.2,0,2.4-0.4,3.5
	c-0.8,3-2.9,4.8-6,4.9c-1.9,0.1-3.8,0-5.6,0c-1,0-1.5-0.5-1.8-1.3c-0.3-0.9-0.1-1.7,0.7-2.3c0.7-0.5,1.6-0.8,2.4-0.9
	c1.5-0.1,2.2-1,2.2-2.3c0-6.5,0.3-13.1-0.5-19.6c-0.2-1.6-0.9-2.5-2.5-2.7c-1-0.1-2.1-0.1-2.8-0.9c-1.2-1.5-0.3-3.2,1.8-3.5
	c2.7-0.4,5.3-0.7,8-1c0.2,0,0.4,0,0.6-0.1C236.5,110.8,236.8,111,237.4,113.8z"/>
<path class="st1" d="M101.3,84.8c6.5,0,13.1,0,19.6,0.1c1.4,0,1.1-0.8,1.1-1.6c0-15.9,0-31.7,0-47.6c0-3.8,0.4-7.5,1.5-11.1
	c0.2-0.8,0.5-1.5,0.8-2.3c0.9-0.3,1.1,0.3,1.3,1c0.2,0.7,0.1,1.5,0.1,2.2c0,21.7,0,43.4,0,65.2c0,0.9,0.1,1.8-0.4,2.7
	c-1.3,0.5-2.6,0.2-3.9,0.2c-0.7-0.5-0.5-1.3-0.6-2.1c0-1.6,0-3.2-0.2-4.8c-0.1-0.8-0.4-1.1-1.2-1.1c-1.4,0-2.9,0-4.3,0
	c-1.9,0.1-3.8,0.1-5.7,0c-1.4,0-2.8,0-4.2,0c-1.5-0.1-3,0.3-4.4-0.3c-0.2-0.1-0.3-0.3-0.1-0.5C100.9,84.6,101.1,84.7,101.3,84.8z"/>
<path class="st2" d="M130.8,93.6L130.8,93.6c-5.2,0-10.5,0.1-15.7,0.1c-4.8,0-9.5,0-14.3,0c-1.1,0-1.5-0.3-1.5-1.4
	c0.1-1.7-0.1-3.4,0.1-5.1c0.1-1.6-0.3-2.6-1.9-3.1c0.6-0.5,1.3-0.6,2-0.9c1-0.4,1.5,0.4,1.9,1.2c0,0.1-0.1,0.2-0.1,0.3
	c-0.2,0.1-0.4,0.2-0.6,0.3c0.3,2,0.1,4,0.2,6.1c0.1,1.7,0.1,1.8,1.8,1.8c0.9,0,1.7,0,2.6,0c1.4-0.1,2.8,0,4.2,0
	c1.9-0.1,3.9-0.1,5.8,0c1.5-0.1,3,0,4.5,0c0.6,0,1.2,0.1,1.6,0.5h6.7c-0.4-0.5-0.4-1.2-0.3-1.8c0.3-4.9-0.2-9.9,0.1-14.8
	c0.4-6.2,0-12.3,0.1-18.5c0.1-3,0.1-6.1-0.2-9.1c-0.1-1.2,0.3-2.5,0.2-3.7c-0.4-4.3,0.5-8.7-0.2-13c-0.2-1,0.1-1.9,0.1-2.9
	c0.2-4.6,0.2-9.3-0.1-13.9c0.5-0.8,1-1.7,1.7-2.3c0.6,0.4,0.7,1,0.7,1.7c0.1,4.9,0.3,9.8,0,14.8c-0.1,1.5,0,3.1,0.4,4.6
	c-2,1.4-0.8,2.6,0.2,3.8c0.5,0.6,0.6,1.2,0.6,1.9c0,17.3,0,34.5,0,51.8C131.2,92.7,131.4,93.3,130.8,93.6z"/>
<path class="st3" d="M127.7,15.8c1.1,1.1,0.8,2.5,0.7,3.8c-0.1,1.4-0.1,2.7,0,4.1c0.2,2.3,0.1,4.7-0.3,7c-0.2,1.4,0.3,2.8,0.3,4.1
	c0.1,3.5,0,6.9-0.2,10.4c-0.1,2.7,0.5,5.5-0.1,8.3c-0.3,1.3,0.4,2.6,0.3,4c-0.3,4.7,0.2,9.5-0.1,14.2s-0.3,9.4-0.2,14.1
	c0.1,2.6-0.3,5.2-0.1,7.7c-0.6,0.3-1.1,0.2-1.7,0c-0.5-0.7-0.4-1.5-0.4-2.3c0.2-5.7,0.1-11.4,0.1-17.2c0-6.3-0.1-12.5-0.1-18.8
	c0-7.5-0.1-15,0-22.5c0.1-3.7,0-7.4,0-11.1c0-0.7,0-1.4-0.6-1.9C126.1,18.4,126.7,17,127.7,15.8z"/>
<path class="st3" d="M125.5,19.7c0.6-0.4,1.1-0.6,1.1,0.5c-0.2,3.8,0.3,7.5,0.1,11.3c-0.3,5.4-0.1,10.8-0.1,16.2
	c0,7.8-0.2,15.7,0.1,23.5c0.1,3.8-0.1,7.6,0.1,11.5c0.2,3.5,0,7.1-0.1,10.7c-0.4,0.3-0.9,0.3-1.3,0c0-23,0-46,0-69
	c0-0.8,0.4-1.8-0.9-2.1C124.7,21.5,124.8,20.5,125.5,19.7z"/>
<path class="st4" d="M107.2,18.4c-2,4.6-3.1,9.5-3.6,14.5c-0.1,0.2-0.1,0.3-0.3,0.4l0,0c-0.1,0-0.1,0-0.2,0c-1.6-1.6-2.4-1.3-3,0.9
	c-0.3,1.2-0.3,2.4-0.2,3.7c0.1,1.3,0.7,2.5,2,3.1c-0.1,0.6-0.5,1.1-0.9,1.6c-0.9,0.1-1.3-0.5-1.5-1.2c-0.2-0.4-0.4-0.8-0.5-1.3
	c0,0,0,0,0-0.1c-0.7-2.1-0.7-4.2-0.2-6.3c0.2-0.8,0.5-1.5,0.8-2.3c0.5-1.1,1.4-1.4,2.4-1.7c0.1,0.2,0.3,0.5,0.7,0.5
	c0.3-4.4,1.4-8.6,3.5-12.5c0-0.1,0.1-0.2,0.1-0.3C106.9,17.3,107.4,17.4,107.2,18.4z"/>
<path class="st5" d="M105.6,71.8c1.1,0.1,2-0.7,3.1-0.8c0.5-0.1,1-0.3,1.1,0.4c0.5,3.1,0.2,8-3.5,10.5c-0.1-1.5,0.4-3,0.3-4.5
	c-0.1-1.4-0.3-2.7-1.4-3.7c-0.3-0.3-0.4-0.6-0.4-1C104.8,72.2,105.1,71.9,105.6,71.8z"/>
<path class="st6" d="M110,52.7c-0.1,3.1-1,5.9-3.4,8c0-0.1,0.1-0.1,0-0.2l-0.1,0.1l-0.1-0.1l0,0c-0.2-1.3,0.5-2.4,0.4-3.7
	c-0.2-1.9-1-3.5-2.2-4.9v-0.1c0,0,0,0,0-0.1c0.1-0.3,0.3-0.5,0.5-0.7l0,0c0,0,0.1,0,0.1-0.1l0,0c0.1,0,0.2-0.1,0.2-0.1
	c-0.1,0.1-0.1,0.2-0.1,0.2c0.6,0.1,1.2-0.2,1.6-0.6C110,49.4,110,49.4,110,52.7z"/>
<path class="st5" d="M93,81.5c-3.1-2.7-3.4-6.2-3-9.9c0.1-0.7,0.5-0.8,1-0.6c0.9,0.3,1.7,0.6,2.6,0.9c0.1-0.1,0.3-0.2,0.5-0.2
	c0.6,0.2,1.4,0.4,1.2,1.3c-2,1.9-2.4,4.3-2.1,6.8C93.3,80.4,93.5,81,93,81.5z"/>
<path class="st5" d="M95.4,62.2L95.4,62.2L95.4,62.2c-0.1,0.2-0.2,0.3-0.3,0.4c-0.1,0-0.1,0.1-0.2,0.1c-0.2,0.2-0.4,0.4-0.6,0.6l0,0
	c-0.5,0.6-0.8,1.2-1,1.8l0,0c-0.4,1.3-0.3,2.7-0.2,4.1c0,0.3,0.1,0.6,0.1,0.9l0,0c0,0.3-0.1,0.5-0.3,0.7c-2.5-2.1-4-7.1-3-10.1
	c0.2-0.6,0.5-0.6,1-0.5c0.7,0.2,1.3,0.4,2,0.6c0.4,0.3,0.8,0.9,1.4,0.3c-0.1-0.1-0.2-0.1-0.4-0.2c0.1,0,0.2,0,0.4,0h0.1
	c0.1,0,0.1,0,0.2,0h0.1C95.3,61.3,95.5,61.6,95.4,62.2z"/>
<path class="st7" d="M92.7,60c-2.8-2.7-3.1-6.1-2.6-9.7c0.1-0.6,0.4-0.7,0.9-0.5c0.7,0.2,1.4,0.4,2.1,0.6c0.7-0.4,1.2,0.1,1.8,0.5
	c0.2,0.2,0.3,0.4,0.2,0.7c-1.6,2.2-2.3,4.6-2,7.3C93.1,59.2,93,59.7,92.7,60z"/>
<path class="st5" d="M104.9,41c1.1-1,2.5-1.3,3.9-1.8c0.4-0.1,0.9-0.3,1,0.4c0.4,2.8,0.3,7.5-2.9,10.1c-0.4-0.4-0.4-1-0.3-1.5
	c0.4-2.3,0.2-4.5-1.5-6.3C104.9,41.6,104.7,41.3,104.9,41z"/>
<path class="st5" d="M101.5,29.1L101.5,29.1c0,0.1-0.1,0.1-0.1,0.1c-1.8,1.2-2.4,2.8-2.6,4.6c-0.1,0.7-0.2,1.5-0.2,2.2
	c-0.1,1.4,0,2.8,0.4,4.1c0,0,0,0,0,0.1c0.2,0.8,0.6,1.6,1,2.4c0.2,0.4,0.5,0.9,0.3,1.4c-0.2,0.6-0.5,0.3-0.8,0
	c-0.4-0.7-0.9-1.3-1.3-2c-1.9-2.8-2.3-6-1.6-9.3c0.4-1.1,0.6-2.4,1.4-3.3c0.1-0.1,0.2-0.2,0.3-0.4c0,0.2,0,0.3,0,0.5
	c0.6-0.8,1.3-1.5,1.9-2.3v-0.1l0,0c0,0,0,0,0.1,0c0.4,0.1,0.7,0.4,0.9,0.7c0.1,0.1,0.2,0.3,0.3,0.4c0,0.1,0,0.2-0.1,0.3
	C101.3,28.6,101.4,28.9,101.5,29.1C101.4,29.1,101.5,29.1,101.5,29.1z"/>
<path class="st5" d="M93,49.7c-3-2.7-3.4-6.2-3-9.9c0.1-0.8,0.5-0.8,1.1-0.6c1.3,0.5,2.7,0.9,3.8,1.8c-1.8,2.4-2.2,5.1-1.7,8
	C93.3,49.3,93.2,49.5,93,49.7z"/>
<path class="st5" d="M109.9,63.2c-0.1,3.1-0.8,5.9-3.4,7.9c-0.2-0.2-0.2-0.5-0.2-0.8c0-0.1,0-0.2,0.1-0.3c0.7-2.7,0.3-5.2-1.4-7.5
	l0,0c-0.1-0.1-0.1-0.3-0.1-0.4c0-0.1,0-0.1,0-0.2l0,0c0,0,0,0,0-0.1l0,0l0,0c0-0.1,0.1-0.2,0.2-0.3c0.1,0,0.1-0.1,0.2-0.1
	c0,0,0.1,0,0.1-0.1c0,0.1-0.1,0.1-0.1,0.2c0.6,0.1,1.2-0.2,1.6-0.6C109.9,60,110,60,109.9,63.2z"/>
<path class="st8" d="M106.4,70.4L106.4,70.4L106.4,70.4L106.4,70.4c-0.1,0.3-0.3,0.6-0.5,0.9c-0.1,0.2-0.2,0.3-0.3,0.5
	c-0.1,0.3-0.4,0.6-0.7,0.7c-0.1,0.1-0.1,0.2-0.2,0.3l0,0l0,0c-0.1,0.1-0.2,0.3-0.4,0.3l0,0l0,0l0,0c0,0,0,0-0.1-0.1h0.1
	c0-0.1,0-0.2,0-0.3c-0.5,0-1,0.2-1.4,0.6c-0.2,0-0.4,0-0.6,0.1c-0.2,0.2-0.4,0.3-0.6,0.3c-1.2-0.5-2.5-0.4-3.7-0.1l0,0
	c-0.2-0.1-0.3-0.2-0.5-0.3c-0.2,0-0.4,0-0.6-0.1c-0.4-0.3-0.8-0.5-1.3-0.6c0,0.1,0.1,0.2,0.1,0.4l-0.2-0.1c-0.1-0.1-0.2-0.2-0.3-0.3
	l0,0c-0.4-0.3-0.9-0.7-1.3-1c0-0.1-0.1-0.1-0.1-0.2c-0.3-0.5-0.5-1.1-0.6-1.6l0,0c-0.5-1.8-0.5-3.5,0.1-5l0,0c0.2-0.6,0.6-1.2,1-1.8
	l0,0c0.3-0.4,0.6-0.7,0.9-1.1l0,0l0.1-0.1c0.1,0,0.2,0,0.3,0c0,0,0,0,0.1,0.1h-0.1c-0.2,0.6,0.4,0.6,0.6,0.9c0,0,0,0,0.1-0.1
	c0,0,0,0,0,0.1c0,0,0,0.1-0.1,0.1c-1.9,1.7-2.7,3.8-1.8,6.3c1,2.8,2.8,3.2,4.9,1.1c0.1-0.1,0.2-0.2,0.4-0.3l0,0l0,0
	c0.1,0,0.2,0,0.2,0s0,0,0.1,0c0,0,0,0,0.1,0c0.3,0.2,0.5,0.5,0.7,0.7c1.2,1.2,2.3,1.1,3.5-0.1c1.6-1.7,1.6-5.2,0.1-7
	c-0.2-0.3-0.6-0.5-0.8-0.8v-0.1l0,0l0,0c0.1-0.2,0.3-0.4,0.4-0.6c-0.1,0-0.2,0-0.3,0c0-0.1,0.1-0.1,0.1-0.2c0.2-0.1,0.5-0.3,0.7-0.2
	l0,0c0.1,0,0.1,0.1,0.2,0.1c0.1,0.1,0.1,0.2,0.2,0.2l0,0C107,65,107.4,67.8,106.4,70.4z"/>
<path class="st9" d="M105.1,50.8L105.1,50.8C105.1,50.9,105.1,50.9,105.1,50.8C105.1,50.9,105,50.9,105.1,50.8
	c-0.2,0.1-0.2,0.2-0.3,0.2c-0.2,0.1-0.3,0.3-0.4,0.5c0,0,0,0.1-0.1,0.1c0,0,0,0,0,0.1c-0.1,0.1-0.2,0.2-0.3,0.2h-0.1
	c0-0.1,0-0.2,0-0.3c-0.1,0-0.2,0-0.2,0c-0.2,0.1-0.3,0.3-0.5,0.4c-1.1,0-2.1,0-2.9-1c-0.4-0.5-0.6-0.1-0.9,0.1
	c-0.8,0.7-1.7,0.9-2.7,0.9c-0.2-0.1-0.3-0.3-0.5-0.4c-0.1,0-0.2,0-0.2,0c-0.1,0.1-0.1,0.2-0.1,0.4c-0.3-0.1-0.6-0.2-0.8-0.4
	C95,51.5,95,51.4,95,51.3c-0.1-0.1-0.2-0.2-0.3-0.3c-0.2-0.2-0.3-0.4-0.4-0.6c-0.6-0.9-1-1.9-1.1-3l0,0c-0.1-1.1,0-2.1,0.3-3.1l0,0
	c0.1-0.4,0.3-0.7,0.5-1c0.4-0.7,0.9-1.5,1.9-1.5c0.1,0.1,0.3,0.2,0.4,0.4c0.2,0.7-0.4,1-0.8,1.5c-1.3,1.8-1.4,4.1-0.2,5.7
	c0.6,0.7,1.3,1.3,2.3,1.1c0.8-0.2,1.2-0.7,1.4-1.4l0,0c0-0.1,0.1-0.3,0.1-0.5s0.1-0.4,0.2-0.6l0,0l0.1-0.1l0,0l0,0
	c0.4,0,0.5,0.2,0.6,0.4l0,0c0.1,0.1,0.1,0.3,0.1,0.4l0,0c0,0.1,0.1,0.1,0.1,0.2c0,0,0,0,0,0.1c0.1,0.2,0.2,0.3,0.3,0.5
	c0.1,0.2,0.2,0.3,0.3,0.4l0.1,0.1c0.4,0.4,0.9,0.6,1.6,0.5c0.9-0.1,1.6-0.6,1.9-1.3l0,0c0.1-0.2,0.2-0.4,0.2-0.7
	c0.6-2,0.3-3.8-1.2-5.3c-0.2-0.2-0.5-0.5-0.3-0.8c0.1-0.3,0.4-0.5,0.7-0.6c0.9-0.2,1.3,0.5,1.7,1C107,44.6,107.2,49.2,105.1,50.8z"
	/>
<path class="st10" d="M131.5,0.3c-5.2,1.1-10.2,2.7-14.5,6c-0.6,0.3-0.9,0.2-1.1-0.5V5.7c0.1,0,0.1-0.1,0.2-0.1
	c0.1-0.2,0.3-0.4,0.4-0.6c0.6,0,0.8-0.5,1.2-0.8V4.1V4c-0.2,0.1-0.3,0.1-0.5,0.2c0.1-0.1,0.2-0.1,0.3-0.2c0.1-0.1,0.2-0.1,0.3-0.2
	c0.2-0.1,0.5-0.3,0.7-0.4c0.2-0.1,0.3-0.2,0.5-0.4c0.9-0.5,1.8-1,1.6-2.3C124.2-0.2,127.8,0.1,131.5,0.3z"/>
<path class="st11" d="M101.5,18.1c-0.1,0.1-0.1,0.2-0.2,0.3c-1.4,3.4-2.7,6.8-3.1,10.5c0,0.2,0,0.3,0,0.5c-0.6,1.1-1.1,2.1-1.7,3.2
	c0.1-5.6,1.4-10.9,4.2-15.8C101.2,17.1,101.4,17.6,101.5,18.1z"/>
<path class="st12" d="M101,42.6c-0.6,1.1-0.7,2.3-0.3,3.5c0.1,0.1,0.1,0.2,0.1,0.4c0,0,0,0,0,0.1c0,0.2-0.1,0.3-0.1,0.5
	c0,0.1-0.1,0.2-0.1,0.3c-0.1,0.4-0.1,0.8-0.2,1.2l0,0c0,0.1-0.1,0.1-0.1,0.2c0,0,0,0.1-0.1,0.1c0,0.1-0.1,0.1-0.2,0.2
	c-0.5-0.3-0.1-1-0.6-1.3l0,0l-0.1-0.1c-0.1-0.1-0.1-0.2-0.2-0.2C99,47.2,99,47,99,46.8s0.1-0.3,0.2-0.4c0.4-0.8,0-1.7,0.3-2.5
	c1.1,0.3,0.6-0.3,0.4-0.7c-2.2-4-2.2-8.1-0.6-12.3c0.3-0.9,0.7-2.1,2.2-1.8l0,0l0,0c0.2,0.2,0.4,0.5,0.5,0.7s0.3,0.5,0.7,0.5
	c-3.3,0-3.3,2.6-3.6,4.8C98.6,37.9,98.8,40.5,101,42.6z"/>
<path class="st13" d="M114.5,8.4L114.5,8.4c-0.6,0.5-1.2,1-1.6,1.7c-2.2,2.6-4,5.5-5.8,8.4c0-0.8-0.5-0.9-1.1-0.6
	c0-0.1,0.1-0.2,0.1-0.3c1.8-3.9,4.4-7.2,7.6-10V7.5c0,0,0,0,0.1,0h0.1C114.5,7.5,115,7.8,114.5,8.4z"/>
<path class="st14" d="M100.2,81c0,0.2-0.1,0.4-0.1,0.5c-0.4,1.8-1.7,2.5-4,2c-0.2,0-0.4,0-0.6-0.2c-2.6-1.9-2.7-4.5-2-7.3
	c0.3-1.2,1-2.1,2.2-2.6h0.1c0,0.1,0,0.1,0.1,0.2c0.2,0.1,0.4,0.2,0.7,0.3c0,0.1,0,0.2,0,0.2c0.1,0,0.1,0.1,0.2,0.1
	c0,0.1,0,0.1-0.1,0.2c-0.2,0.5-0.6,0.9-0.9,1.3c-0.9,1.3-0.9,2.7-0.5,4.1c0.5,1.9,1.9,2.2,3.3,0.9c0.3-0.3,0.5-0.7,0.9-0.9l0,0
	c0.1,0,0.1,0,0.2-0.1c0.3,0.1,0.4,0.4,0.5,0.6c0,0.1,0,0.2,0.1,0.3C100.2,80.8,100.2,80.9,100.2,81C100.2,80.9,100.2,81,100.2,81z"
	/>
<path class="st15" d="M99.2,46.4c0,0.1,0,0.3,0,0.4c0.3,0.9,0.2,1.7-0.3,2.4c-0.6,0.9-1.8,1.1-2.7,0.6c-1.1-0.6-1.8-2.3-1.6-3.9
	c0.2-1.7,1-2.6,2.6-2.9C98.2,43.9,98.7,45.1,99.2,46.4z"/>
<path class="st16" d="M106.2,81.2c0,0.1-0.1,0.1-0.1,0.2c-0.2,0.4-0.4,0.8-0.6,1.1c-1.2,1-2.6,1.6-4.1,2c-0.8-0.6-1.5-1.6-2.7-0.4
	c-0.2,0.2-0.8,0.1-1.2,0.1c-0.5-0.1-1-0.3-1.4-0.6c2.6-0.1,3.5-0.8,3.7-2.6c0.1-0.1,0.2-0.1,0.3,0l0,0c0,0,0,0,0.1,0l0,0
	c0.5,1.1,1.2,1.9,2.5,1.8c1.4-0.1,2.1-1.1,2.4-2.3c0.7-2.5,0.5-4.8-1.6-6.6l0,0l0,0c0.2-0.2,0.5-0.4,0.7-0.6l0,0c0,0,0,0-0.1-0.1
	h0.1l0,0l0,0c0.8,0.6,1.4,1.4,1.9,2.4C107,77.3,107.1,79.4,106.2,81.2z"/>
<path class="st17" d="M100.4,47.1c0.1-0.2,0.2-0.4,0.3-0.6c0.6,0.3,0.4,1.1,0.8,1.5c0.7,1,1.7,0.9,2.3-0.1c0.6-1.1,0.3-2.5-0.7-3.4
	c-0.4-0.3-1.1-0.4-0.7-1.2c0.2-0.5,0.5-0.8,0.9-1c2.2,1.7,2.7,3.9,2,6.5c-0.5,0.3-0.6,0.9-1.1,1.2c-0.9,0.7-1.9,0.9-2.8,0.4
	C100,49.6,100.1,48.4,100.4,47.1z"/>
<path class="st18" d="M97.2,42.9c-2.3,1.6-2.9,3.6-1.8,5.5c0.5,0.9,1.2,1.6,2.3,1.2c1-0.3,1.3-1.1,1.5-2.1c0-0.3,0-0.5,0-0.8
	c0.4,0.2,0.3,0.6,0.3,1c0.1,1.5-0.2,2.7-2,3c-1.7,0.2-2.4-1-3-2.1c-1.2-2.6-0.1-4.7,1.8-6.6C96.7,42.1,97,42.5,97.2,42.9z"/>
<path class="st19" d="M120.2,2.9c-0.2,0.3-0.7,0.3-1.1,0.5c-0.4,0.3-0.9,0.5-1.3,0.7l0,0l0,0V4c-0.2,0.1-0.3,0.1-0.5,0.2l0,0
	c-0.4,0.2-0.7,0.3-1.1,0.5c-0.5,0-0.6,0.5-0.9,0.6l0,0l-0.1-0.1C115,4.9,115,4.6,115,4.3c0-0.1,0-0.1,0-0.2l0.1-0.1
	c0.4-0.5,0.2-1.1,0.5-1.6c1.6-0.9,3.2-1.6,5.1-1.6C121.9,1.7,120.6,2.3,120.2,2.9z"/>
<path class="st20" d="M112.5,5c0,0.1,0,0.2,0,0.2s0,0,0,0.1l-0.1-0.1c-0.3,0.3-0.6,0.5-1,0.8c-1.2,0.7-2,1.8-3,2.8
	c-1.2,0.9-2,2.2-3.1,3.3c0,0,0,0-0.1,0S105.1,12,105,12c-0.4-0.8,0.1-1.5,0.5-2.1c1.7-2,3.6-3.8,5.8-5.1
	C111.9,4.4,112.3,4.3,112.5,5z"/>
<path class="st21" d="M105.3,12C105.3,12,105.3,12.1,105.3,12c-1.3,2.1-2.6,4-3.8,6.1c-0.1,0.1-0.1,0.2-0.2,0.3
	c-0.2-0.6-0.4-1.1-0.6-1.7c1.2-2.6,2.8-4.9,4.9-7C105.4,10.5,105.1,11.2,105.3,12z"/>
<path class="st22" d="M96.3,52.6C96.3,52.6,96.3,52.7,96.3,52.6c-2.2,1.7-2.8,4.2-1.9,7c0.2,0.5,0.6,0.9,0.3,1.5
	c0,0.1-0.1,0.1-0.1,0.2h-0.3c-0.1-0.1-0.2-0.1-0.4-0.2c-0.2-0.1-0.5-0.3-0.7-0.4c-0.2-0.2-0.4-0.5-0.6-0.7c0-0.9,0.1-1.9,0-2.8
	c-0.2-2.4,0.8-4.2,2.3-5.8H95l0,0c0.3,0.1,0.5,0.2,0.8,0.3c-0.1,0.1-0.1,0.2-0.1,0.4C95.9,52.2,96.1,52.4,96.3,52.6
	C96.2,52.6,96.2,52.6,96.3,52.6z"/>
<path class="st23" d="M95.2,82.6c0.2,0.2,0.3,0.5,0.4,0.7c-1-0.4-1.8-1-2.5-1.8c-0.3-2.1-0.7-4.3,0.3-6.4c0.4-0.9,0.7-2,2-2.3l0,0
	c0.1,0,0.2,0,0.4,0c0,0.1,0.1,0.2,0.1,0.4v0.1c0,0.1,0,0.1,0.1,0.2C93,75.9,92.7,79.7,95.2,82.6z"/>
<path class="st24" d="M102.3,43.3c0.6,1,2.2,1.2,2.1,2.8c0,0.3,0.2,0.5,0.1,0.8c-0.2,1.2-0.7,2.5-2,2.4s-1.9-1.4-1.8-2.8
	c0-0.1,0-0.2,0-0.3C101.1,45.1,101.5,44.1,102.3,43.3z"/>
<path class="st25" d="M106.8,49.6c-0.1,0.1-0.2,0.3-0.3,0.4c-0.4,0.2-0.9,0.3-1.2,0.7c-0.1,0.1-0.1,0.2-0.1,0.2
	c-0.1,0.3-0.3,0.5-0.7,0.7c0,0-0.1,0-0.1,0.1c-0.1,0-0.1,0-0.2,0c0,0,0,0-0.1-0.1c0-0.5,0.3-0.8,0.6-1.1c2.3-2.6,1.8-6.7-0.9-8.9
	c0.2-0.4,0.5-0.6,1-0.7C107.5,43.4,107.4,46.5,106.8,49.6z"/>
<path class="st17" d="M101.9,41c-1.3,0.1-1.8-0.7-2.1-1.7c-0.5-1.7-0.5-3.4-0.1-5.2c0.3-1.1,0.7-2.1,1.8-2.4
	c1.2-0.3,1.1,1.1,1.8,1.6c0.3,0.9,0.2,1.8,0,2.7c0.1,0.1,0.1,0.2,0,0.2c-1-0.1-0.6-1.1-0.9-1.6c-0.2-0.4-0.1-1.2-0.8-1.2
	c-0.6,0-0.9,0.6-1,1.1c-0.1,1.9-1,4,1.2,5.3c0.3,0.2,0.4,0.5,0.1,0.8C102,40.8,101.9,40.9,101.9,41z"/>
<path class="st26" d="M95.8,41.7c-2.4,2.1-3,4.2-1.9,7.4c0.2,0.6,0.5,1.3,0.7,1.9c-0.5-0.2-1-0.4-1.5-0.6c0-0.2-0.1-0.4-0.1-0.6
	c-0.4-2.3-0.7-4.5,0.3-6.7c0.4-0.8,0.8-1.6,1.7-2C95.3,41.1,95.7,41.2,95.8,41.7z"/>
<path class="st27" d="M102,40.7c-2-1.3-2.2-3.3-1.9-5.4c0-0.4,0-0.8,0.2-1.1c0.3-0.7,0.7-1.5,1.5-1.4s0.8,1,1.1,1.6
	c0.3,0.6-0.2,1.3,0.4,1.8C103.3,37.8,102.8,39.3,102,40.7z"/>
<path class="st25" d="M95.3,62.2c-1.3,2-2.2,4.1-2,6.6c0.1,1.1,0.9,2,0.7,3.1c-0.1,0-0.2,0-0.4,0c-0.2-0.3-0.4-0.7-0.6-1
	c-0.4-2.2-0.6-4.3,0.2-6.5C93.6,63.4,94.1,62.5,95.3,62.2z"/>
<path class="st28" d="M105.9,71.3c1.2-3.3,0.7-6.3-1.3-9.1c0-0.2,0-0.3,0.1-0.4c0.1,0,0.1,0,0.2,0c2.5,2.7,2.8,5.8,1.6,9.2
	C106.3,71.2,106.1,71.3,105.9,71.3z"/>
<path class="st29" d="M106.9,80.5c0,0.6-0.5,0.9-0.6,1.4c-0.2,0.2-0.5,0.3-0.7,0.5c-0.2-0.8,0.5-1.3,0.7-2c0.1-0.3,0.2-0.6,0.2-1
	c0.1-0.5,0.1-0.9,0.1-1.4c0-1.8-0.8-3.5-2.3-4.9l0,0c0,0,0,0-0.1-0.1h0.1c0-0.1,0-0.2,0-0.3c0.2-0.1,0.3-0.2,0.5-0.2
	c0.1,0,0.1-0.1,0.2-0.1c0,0.2,0,0.4,0.1,0.5C107.5,75.1,106.9,77.9,106.9,80.5z"/>
<path class="st30" d="M115.2,4c-0.1,0.1-0.2,0.2-0.3,0.3c-0.2,0.2-0.4,0.4-0.7,0.5c-0.1,0-0.1,0-0.2,0l0.1-0.1
	c-0.8-0.5-1.1,0.2-1.6,0.6c-0.1,0-0.1,0-0.2,0c0,0,0,0,0,0.1l-0.1-0.1c-0.1-0.6-0.5-0.6-1-0.6c1.3-0.9,2.6-1.9,4.2-2.2
	C115.8,3,116.5,3.7,115.2,4z"/>
<path class="st31" d="M117,6.2c-0.8,0.7-1.7,1.5-2.5,2.2c0-0.5-0.3-0.8-0.7-0.9V7.4c0,0,0,0,0.1,0c0-0.1,0-0.1,0.1-0.2
	c0.5-0.4,1.1-0.9,1.6-1.3c0.1-0.1,0.3-0.1,0.4-0.2c0.1,0,0.1-0.1,0.2-0.1C116.2,6.1,116.5,6.3,117,6.2z"/>
<path class="st31" d="M113,10.1c0.2-0.9,0.7-1.4,1.5-1.6C114,9,113.5,9.5,113,10.1z"/>
<path class="st27" d="M103.3,36c0-0.9,0-1.8,0-2.7c0.1-0.1,0.2-0.2,0.3-0.3C103.6,34,103.7,35,103.3,36z"/>
<path class="st32" d="M106.6,60.5L106.6,60.5c-0.4,0.4-1,0.5-1.2,0.9c0,0.1-0.1,0.1-0.1,0.2c0-0.1,0-0.1,0-0.2
	c0-0.7,0.5-0.9,1.1-0.9C106.4,60.5,106.5,60.5,106.6,60.5z"/>
<path class="st33" d="M121.3,93.4c-2,0-4.1,0-6.1,0c-0.4-0.4-0.4-1-0.5-1.5c-0.1-1.7,0.1-3.5-0.2-5.3c-0.1-0.6,0.2-1.1,0.6-1.6
	c1.4,0,2.9,0,4.3,0c1.1,0,1.6-0.2,1.7,1.5C121.2,88.9,121.2,91.2,121.3,93.4z"/>
<path class="st34" d="M115.2,85.1c-0.3,2.8,0.1,5.5,0,8.3c-1.9,0-3.9,0-5.8,0c-0.8-2.1-0.4-4.2-0.5-6.3c0-0.7-0.1-1.4,0.5-2
	C111.4,85.1,113.3,85.1,115.2,85.1z"/>
<path class="st35" d="M105.2,93.4c-1.2,0-2.5,0.1-3.7,0.1c-0.5,0-1.1,0.1-1.1-0.6c0.1-2.6-0.3-5.2,0.3-7.8c1.5,0,3,0,4.5,0.1
	c0.4,0.4,0.5,0.8,0.5,1.3c0.1,1.9,0.1,3.8,0,5.7C105.7,92.6,105.6,93.1,105.2,93.4z"/>
<path class="st36" d="M105.2,93.4c0-2.8,0-5.5,0-8.3c1.4,0,2.8,0,4.2,0c0,2.8,0,5.5,0,8.3C108,93.4,106.6,93.4,105.2,93.4z"/>
<path class="st37" d="M101.5,29.1L101.5,29.1C101.4,29.1,101.4,29.1,101.5,29.1C101.4,29.1,101.5,29.1,101.5,29.1z"/>
<path class="st37" d="M113.6,6.7L113.6,6.7c-1,0.9-2,1.6-2.9,2.4c-1,1.4-2,2.7-3.2,3.8c-3.3,4.6-5.1,9.7-6.2,15.1
	c0,0.1,0,0.2-0.1,0.3c-0.1-0.2-0.2-0.5-0.2-0.7c0-0.1,0-0.3,0-0.4c1.1-5.2,2.9-10.1,6-14.5c0.1-0.1,0.2-0.1,0.2-0.2
	c0.1-0.1,0.1-0.1,0.2-0.2c1.1-1.1,2.1-2.3,2.9-3.5l0,0c0.1-0.1,0.1-0.1,0.2-0.2C111.6,8,112.4,7.1,113.6,6.7L113.6,6.7z"/>
<path class="st37" d="M113.8,7.4L113.8,7.4C113.8,7.4,113.8,7.4,113.8,7.4L113.8,7.4z"/>
<path class="st38" d="M106.6,60.5L106.6,60.5c-0.4,0.4-1,0.5-1.2,0.9c0,0.1-0.1,0.1-0.1,0.2c-0.1,0.1-0.2,0.2-0.3,0.4l0,0l0,0
	c-0.5-0.3-0.4-0.7-0.1-1.1c1.9-3.1,1.3-5.9-0.9-8.5c0.1,0,0.1-0.1,0.2-0.1c0-0.1,0-0.2,0-0.4c0-0.1,0-0.2,0-0.3c0.1,0,0.2,0,0.4,0
	h0.1h0.1h0.1C107.5,54.1,107.6,57.2,106.6,60.5z"/>
<path class="st39" d="M100.2,60.2L100.2,60.2L100.2,60.2v0.2c0,0.1-0.1,0.2-0.1,0.3s-0.1,0.2-0.2,0.3c-0.6,1.2-1.7,1.6-2.9,1.5
	c-0.1,0-0.2,0-0.3,0c-0.2-0.1-0.3-0.2-0.5-0.3c0,0,0,0-0.1,0s-0.3,0-0.4,0h-0.1c-0.1,0-0.2,0-0.3,0h-0.1c0-0.5-0.2-0.8-0.7-1
	c0-0.1-0.1-0.1-0.1-0.2c-1.1-2.1-1.2-4.4-0.4-6.7c0.3-1,0.9-1.8,2.1-1.8c0,0,0,0,0.1,0s0.2,0,0.2,0c0.2,0.3,0.5,0.6,0.7,0.9
	c0.1,0.1,0.1,0.1,0.2,0.2c-0.1,0.5-0.6,0.8-1,1.1c-1,1.1-1.3,2.3-0.7,3.7c0.2,0.6,0.6,1.2,1.4,1.2c0.7,0,1.1-0.5,1.5-1
	c0.3-0.4,0.1-1.1,0.6-1.3l0,0c0.1,0,0.1-0.1,0.2-0.1c0.3,0.4,0.6,0.9,0.7,1.4C100.2,59.2,100.3,59.7,100.2,60.2z"/>
<path class="st40" d="M108.9,9.2L108.9,9.2c-0.1,1.3-1.2,1.9-1.8,2.8c0,0.1-0.1,0.1-0.1,0.2c0,0,0,0,0,0.1c-2.8,3.7-4.8,7.8-6,12.2
	c-0.2,0.9-0.3,1.8-0.8,2.6l-0.1,0.1v-0.1l0,0c0.9-5.6,3.1-10.6,6.6-15.1C107.5,11.1,108.1,10.2,108.9,9.2L108.9,9.2z"/>
<path class="st41" d="M107.5,13c-3.3,4.6-5.1,9.7-6.2,15.1c0,0.1,0,0.2-0.1,0.3c-0.4-0.4-0.8-0.8-1.2-1.3V27l0,0
	c0.9-5.6,3.1-10.6,6.6-15.1c0.2,0,0.3,0,0.4,0c0.3,0.1,0.4,0.2,0.4,0.5C107.5,12.6,107.5,12.8,107.5,13z"/>
<path class="st42" d="M105.8,69.2c-0.2,0.9-0.6,1.7-1.3,2.4c-1.7,1.6-3.4,1.2-4.4-0.9c0,0,0-0.1-0.1-0.1c-0.1-0.2-0.2-0.3-0.2-0.5
	c-0.1-0.4-0.1-0.8,0-1.1c0.1-0.4,0.3-0.8,0.7-1.2c0.1,0,0.2,0,0.2,0l0,0l0,0c0.5,0.1,0.4,0.7,0.5,1c0.2,0.7,0.5,1.4,1.3,1.3
	c0.9-0.1,1.4-0.6,1.6-1.5c0.3-1.5-0.2-2.6-1.5-3.5c-0.1-0.1-0.3-0.2-0.4-0.3v-0.1l0.1-0.1c0.3-0.6,0.7-1,1.2-1.3l0,0l0,0
	C105.8,63.6,106.2,67,105.8,69.2z"/>
<path class="st43" d="M99.8,70L99.8,70c0,0.2,0,0.3,0,0.5v0.1c-0.5,1.3-1.5,2.1-3,1.9c-1.4-0.1-2-1.1-2.6-2.3
	c-1-2.1-0.7-4.2,0.6-6.1c0.3-0.5,0.7-1,1.4-1c0,0,0,0,0.1-0.1c0,0,0,0,0,0.1c0.1,0,0.2,0,0.2,0c0.2,0.3,0.5,0.6,0.7,0.9
	c0.1,0,0.1,0,0.2,0.1l0,0l0,0c-0.6,0.8-1.5,1.2-1.8,2.3c-0.2,0.8-0.2,1.5,0,2.2c0.3,0.7,0.7,1.4,1.5,1.5c0.9,0.1,1.3-0.6,1.6-1.3
	c0.1-0.3,0.1-0.7,0.5-0.9l0,0c0.1,0,0.1,0,0.2-0.1c0.3,0.3,0.4,0.6,0.5,0.9C99.9,69.2,99.9,69.6,99.8,70z"/>
<path class="st44" d="M105.2,60.8c-0.2,0.3-0.5,0.6-0.3,1l0,0l0,0c0,0,0,0,0,0.1l0,0c-0.1,0.1-0.2,0.2-0.2,0.2l0,0
	c-0.2,0.1-0.4,0.2-0.6,0.3c-0.1,0-0.2,0-0.3,0c-0.2,0-0.4,0-0.7,0c-0.2,0.1-0.3,0.2-0.5,0.3c-0.2,0-0.3,0-0.4-0.1l0,0
	c-1.4-0.2-2-0.8-2.1-2.1c0-0.1,0-0.2,0-0.4c0-0.1,0.1-0.1,0.1-0.1s0,0,0.1-0.1l0,0l0,0c0.4-0.2,0.7,0,1,0.2c1.9,1,3.5,0.2,3.9-1.9
	c0.3-1.9,0.2-3.6-1.6-4.9c-0.2-0.1-0.3-0.3-0.4-0.5v-0.1c0,0,0.1-0.1,0.2-0.1c0-0.1,0-0.2,0-0.2c0.2-0.1,0.3-0.2,0.5-0.3
	c0.1,0,0.1-0.1,0.2-0.1C106.5,54.4,107,58.2,105.2,60.8z"/>
<path class="st45" d="M100.5,74.8c-0.1,1.1-0.3,2.2,0.2,3.3c0.1-0.1,0.1-0.3,0.2-0.4c0,0.1,0,0.2,0,0.3l0,0c0,0.2,0,0.3,0,0.5
	c0,0.1,0,0.1,0,0.2c-0.1,0.3-0.1,0.6-0.2,0.9c-0.1,0.5-0.2,1-0.6,1.4c0,0,0,0,0,0.1l0,0h-0.3c0-0.4,0-0.7-0.3-1l0,0
	c-0.3-0.2-0.5-0.5-0.6-0.8c0-0.1,0-0.3-0.1-0.4l0,0c0-0.2,0-0.3,0.1-0.5v-0.1c0-0.1,0-0.2,0.1-0.3c0.1,0.2,0.1,0.3,0.2,0.5
	c0.6-2.8,0.4-3.6-1.2-4.5l0,0c-0.2-0.1-0.3-0.2-0.5-0.3c1.6-0.9,3.2-0.3,4.8,0c-0.2,0.2-0.4,0.3-0.6,0.3
	C101.2,74,100.5,74,100.5,74.8z"/>
<path class="st46" d="M100.9,67c0,0.1,0,0.2,0,0.2l0,0c0,0.2-0.1,0.3-0.2,0.4l0,0l0,0c-0.5,0.9-0.6,1.8-0.6,2.8v0.1h-0.3v-0.1
	c-0.3-0.8-0.1-1.7-0.6-2.5l0,0l0,0c-0.2,0-0.2-0.1-0.2-0.3c0-0.1,0-0.3,0-0.4c0.1,0.1,0.1,0.3,0.2,0.4c0.1-1.5,1-3.2-0.7-4.4
	c0,0,0,0,0.1-0.1l0,0l0,0c1.2-1.4,1.6-1.4,2.9,0l0,0l0,0l0,0c-1.8,1.1-0.8,2.7-0.7,4.2C100.8,67.3,100.8,67.2,100.9,67z"/>
<path class="st47" d="M102.2,64.6L102.2,64.6C102.3,64.6,102.3,64.7,102.2,64.6c-0.3,1-0.6,2-1.3,2.6c-0.1,0-0.1,0.1-0.2,0.1
	c0.1-0.1,0.1-0.3,0.2-0.4C101.2,66.2,101.6,65.3,102.2,64.6z"/>
<path class="st47" d="M102.1,62.8c0.3-0.1,0.7-0.1,0.9-0.3c-0.2,0.1-0.3,0.2-0.5,0.3c-0.3,0.2-0.7,0.3-1.1,0.3
	C101.6,63,101.8,62.9,102.1,62.8L102.1,62.8z"/>
<path class="st48" d="M99.2,78.2c-0.1-0.1-0.2-0.1-0.3-0.2c-0.7-0.6-0.9-1.5-1.3-2.3c-0.1-0.1-0.1-0.2-0.2-0.3l0,0c0,0,0,0-0.1-0.1
	c-0.2-0.3-0.5-0.6-0.6-0.9c-0.1-0.1-0.1-0.2-0.1-0.3c0.1,0,0.1,0.1,0.2,0.1c0.3,0.2,0.6,0.5,0.8,0.9c0.7,0.7,1.1,1.7,1.5,2.6l0,0
	C99,77.9,99.1,78.1,99.2,78.2z"/>
<path class="st48" d="M103.5,73.9c0,0.6-0.5,0.9-0.8,1.4l0,0c-0.1,0.1-0.1,0.1-0.2,0.2c-0.6,0.7-0.7,1.7-1.5,2.3
	c-0.1,0.1-0.1,0.1-0.2,0.2c0.1-0.1,0.1-0.3,0.2-0.4c0.4-0.9,0.7-1.8,1.4-2.4C102.7,74.8,103,74.3,103.5,73.9
	C103.4,73.8,103.4,73.8,103.5,73.9C103.5,73.8,103.5,73.9,103.5,73.9z"/>
<path class="st49" d="M97,62.8L97,62.8C97,62.9,97,62.9,97,62.8C96.9,62.9,96.9,62.8,97,62.8c-0.1-0.1-0.2-0.1-0.3-0.2
	c-0.2-0.1-0.3-0.2-0.5-0.3c0.2,0.1,0.6,0.1,0.7,0.4C96.9,62.7,97,62.8,97,62.8z"/>
<path class="st50" d="M103.6,73.8L103.6,73.8L103.6,73.8C103.6,73.9,103.5,73.9,103.6,73.8c-0.1,0.1-0.2,0.1-0.2,0H103.6
	C103.5,73.8,103.5,73.8,103.6,73.8z"/>
<path class="st51" d="M100.6,53.5c-0.2,1-0.3,2.2,0.2,3.3c0.1-0.1,0.1-0.3,0.2-0.4c0,0.1,0,0.2,0,0.3l0,0c0,0.2,0,0.3,0,0.5
	s-0.1,0.4-0.1,0.6c0,0.2-0.1,0.4-0.1,0.6c0,0.1-0.1,0.3-0.1,0.4c0,0.1,0,0.1,0,0.2c0,0.1,0,0.2,0,0.3c0,0.4-0.1,0.7-0.3,1l0,0l0,0
	c0,0,0,0.1-0.1,0.1v0.1c0.2,1.7,1.5,2.1,2.9,2.1c-0.2,0.1-0.3,0.2-0.5,0.3c-0.3,0.2-0.7,0.3-1.1,0.3l0,0l0,0l0,0
	c-1-0.7-1.9-0.7-2.9,0l0,0l0,0c0,0,0,0-0.1,0c-0.5-0.1-1-0.3-1.5-0.4l0,0l0,0c-0.1-0.1-0.2-0.1-0.3-0.2c-0.2-0.1-0.3-0.2-0.5-0.3
	c0,0,0,0-0.1,0c0.7-0.1,1.5,0.1,2.2-0.3c1.6-0.8,1.9-2,0.8-4.6l0,0C99,57.3,99,57.1,99,57s0-0.3,0-0.4c0.1,0.2,0.1,0.3,0.2,0.4
	c0.8-3.2,0.5-3.9-2.2-4.8c-0.1-0.1-0.2-0.1-0.3-0.2c-0.2-0.1-0.3-0.3-0.5-0.4c1.3,0,2.5-0.1,3.3-1.2c0.2-0.2,0.4-0.4,0.6-0.1
	c0.9,1.4,2.3,1.2,3.6,1.2c-0.2,0.1-0.3,0.3-0.5,0.4c-0.1,0.1-0.2,0.1-0.3,0.2C102.1,52.6,100.8,52.4,100.6,53.5z"/>
<path class="st18" d="M100.4,47.1c0,0.3,0,0.6,0,1c-0.1,1,0.3,1.7,1.1,2.1c0.9,0.4,1.8,0.1,2.5-0.5c0.4-0.3,0.5-1,1.2-1
	c-0.5,1.4-1.5,2.2-3,2.1c-1-0.1-1.9-0.6-2.1-1.8C100.2,48.4,99.8,47.7,100.4,47.1z"/>
<path class="st52" d="M115.2,5.3c0,0.1,0,0.2-0.1,0.2l0,0l0,0C115.1,5.5,115.2,5.4,115.2,5.3z"/>
<path class="st53" d="M117.8,4L117.8,4c0,0.1,0,0.2,0,0.2S117.8,4.1,117.8,4C117.8,4.1,117.8,4,117.8,4z"/>
<path class="st54" d="M119.1,3.3c-0.3,0.5-0.8,0.8-1.3,0.9V4.1V4c0-0.1,0.1-0.1,0.1-0.1c0.2-0.2,0.4-0.4,0.7-0.4
	C118.7,3.4,118.9,3.4,119.1,3.3z"/>
<path class="st55" d="M99.5,79.9L99.5,79.9c-0.2,1.3-1.2,2.1-2.3,2.2c-1.2,0.1-2-0.9-2.3-2.1c-0.7-2.4,0.1-4.3,1.8-5.9
	c0.1,0,0.1,0.1,0.2,0.1c0.3,0.2,0.6,0.5,0.8,0.9c0.1,0.2,0.1,0.4,0.1,0.6c-0.1,0.3-0.6,0.5-0.9,0.7c-1,0.8-1.2,1.8-0.8,3
	c0.2,0.5,0.4,0.9,0.9,1c0.6,0.1,1-0.3,1.3-0.7c0.3-0.3,0.2-0.9,0.7-1.1c0.1,0,0.2,0,0.3,0C99.2,79.1,99.3,79.5,99.5,79.9z"/>
<path class="st56" d="M98.2,46.4c0,0.7-0.2,1.5-1,1.5c-0.6,0-1.2-0.6-1.2-1.3s0.4-1.6,1.2-1.6C97.9,45,98.2,45.7,98.2,46.4z"/>
<path class="st57" d="M105.2,81.5c-0.7,1.4-1.9,1.9-3.3,1.6c-1-0.2-1.7-0.7-1.8-1.6c0-0.2,0-0.4,0-0.6l0,0c0-0.1,0-0.3,0-0.4
	c0-0.7,0.2-1.5,0.6-2.1c0.1,0.1,0.2,0.1,0.2,0.2c0.2,0.3,0.2,0.7,0.3,1.1c0.2,0.5,0.5,1,1.1,1.1c0.7,0.1,1.1-0.3,1.5-0.8
	c0.7-1.1,0.5-2.7-0.4-3.7c-0.3-0.3-0.8-0.3-0.9-0.7c-0.1-0.1-0.1-0.2,0-0.4c0.3-0.4,0.6-0.9,1-1.3h0.1h0.1l0,0
	c1.5,0.4,2,1.6,2.2,2.8C106.1,78.3,106,80,105.2,81.5z"/>
<path class="st58" d="M115.2,5.3L115.2,5.3c0,0.1,0,0.2-0.1,0.3l0,0l0,0c-0.6,0.3-1.1,0.6-1.5,1.2l-0.1,0.1
	c-0.9,0.8-1.9,1.5-2.8,2.3c-0.1-0.1-0.2-0.1-0.3-0.2c-0.2-0.2-0.3-0.4-0.4-0.6V8.3l0.1-0.1c0.5-0.5,1.1-1.1,1.6-1.6
	c0.4-0.3,0.9-0.7,1.3-1s0.7-0.5,1.1-0.8l0.1-0.1c0.2-0.4,0.4-0.7,0.9-0.7h0.1l0,0C115.2,4.4,115.2,4.9,115.2,5.3z"/>
<path class="st59" d="M110.1,8.2c0,0.1,0,0.1-0.1,0.2c-0.2,0.5-0.5,0.8-1.1,0.9h-0.1l0.1-0.1C109.3,8.9,109.6,8.6,110.1,8.2
	C110,8.2,110,8.2,110.1,8.2z"/>
<path class="st60" d="M112.5,5.3C112.5,5.3,112.4,5.3,112.5,5.3C112.4,5.3,112.4,5.3,112.5,5.3C112.4,5.2,112.4,5.3,112.5,5.3z"/>
<path class="st56" d="M103.6,46.6c-0.1,0.8-0.4,1.5-1.2,1.4c-0.8-0.1-1-0.9-1-1.6c0-0.7,0.3-1.5,1.1-1.5
	C103.4,45,103.5,45.9,103.6,46.6z"/>
<path class="st61" d="M102.7,36.3c0,1.2-0.2,2.6-1.2,2.6c-1.2,0-1-1.5-1-2.5s0.1-2.5,1.1-2.5C102.6,33.9,102.7,35.4,102.7,36.3z"/>
<path class="st62" d="M113,5.3L113,5.3L113,5.3L113,5.3z"/>
<path class="st63" d="M115.2,5.6L115.2,5.6L115.2,5.6L115.2,5.6z"/>
<g>
	<path class="st64" d="M184,13.3c1.8,2.2,3.4,4.5,4.3,7.2c0.3,2.5,0.4,5,0.2,7.5c-0.2,2.8-0.2,5.7,0,8.5c0.1,0.9,0.2,1.8,0,2.7
		c-0.1,0.6-0.2,1.2-0.1,1.8c0.6,5.7,0.2,11.4,0.2,17.1c0.1,6,0.1,12.1,0,18.1c-0.1,5.1,0.1,10.2,0,15.3c0,2,0,2-2.1,2
		c-0.9,0-1.8,0-2.7,0c-0.8-0.3-1.1-1-1.1-1.8c0.3-4.7-0.2-9.4,0-14.1c0.2-3.6-0.1-7.3,0-10.9c0.1-2.7-0.4-5.4,0.1-8.2
		c0.3-1.6-0.1-3.2-0.1-4.8c0-2.2,0-4.4,0.1-6.6c0.1-3.2-0.5-6.4,0.1-9.6c0.1-0.5,0.1-1.1,0.1-1.6c-0.2-4.7-0.2-9.4-0.2-14.1
		c0-2.3-0.1-4.7,0.2-7C183.1,14.3,183,13.5,184,13.3z"/>
	<path class="st65" d="M155.9,23.4c0,0.1,0,0.2-0.1,0.3l0,0c-0.3,3.2-0.1,6.3-0.1,9.5c0,10.4,0,20.9,0,31.3c0,8.7,0.1,17.5,0,26.2
		c0,0.8,0.1,1.7-0.3,2.5l-0.1,0.1l0,0c-0.5,0.1-1,0.2-1.5,0.2h-0.6c-0.5,0-1-0.1-1.6-0.2c-0.6-0.4-0.3-1-0.3-1.4
		c0-17.2,0-34.4,0-51.6c0-1,0.4-1.7,0.9-2.5c0.6-0.7,1.4-1.7,0.9-2.4c-0.5-0.6-1.5-1.3-2.6-1c-0.2,0.1-0.5-0.1-0.8-0.1
		c-0.1-0.1-0.2-0.2-0.2-0.3c0.1,0,0.1,0.1,0.2,0.1c0-0.8,0.7-1.5,0-2.3c-0.2-1.3-0.4-2.5,0.4-3.7c0.3-0.4,0.2-0.9,0-1.3
		c0.2-1.6,0.3-3.2,0.1-4.8c-0.1-0.6-0.1-1.3,0.3-1.9c0,0,0.1,0,0.1-0.1c0,0,0,0,0.1,0c2,0.6,3.8,1.5,5.1,3.2
		C155.8,23.3,155.8,23.4,155.9,23.4z"/>
	<path class="st66" d="M151.6,93.5c1.2,0,2.3,0,3.5-0.1c0.6-0.5,1.3-0.4,2-0.4c1.1,0,2.2,0,3.2,0c1.7-0.1,3.4,0,5.1,0
		c2.1-0.1,4.3-0.1,6.4,0c2-0.1,4-0.1,6.1,0c1.1,0,2.2,0,3.3,0c0.9,0,1.8-0.1,2.6,0.4c1.2,0,2.4,0,3.5,0.1c0.8,0,1-0.4,1-1.1
		c0-4.2,0-8.3,0-12.5c0-3.2,0.2-6.4,0-9.6c-0.1-2.8,0.1-5.7-0.2-8.6c-0.2-2,0-4.1,0.1-6.1c0-2.4,0.1-4.8-0.1-7.2
		c-0.1-1,0.2-1.8,0.3-2.7c0.1-1.6-0.5-3.1-0.3-4.6c0.4-3.9-0.4-7.8,0-11.7c0.3-2.9-0.3-5.9,0.3-8.8c2.2,4.2,3.1,8.8,3.1,13.5
		c0.1,19.4,0,38.8,0,58.2c0,0.8,0,1.4-1.1,1.4c-12.7,0-25.4,0-38.1,0C152,93.6,151.8,93.5,151.6,93.5z"/>
	<path class="st67" d="M183.8,93.4h-2.5c-0.1-0.1-0.2-0.3-0.3-0.4c-0.4-0.8-0.2-1.7-0.2-2.5c0-1,0-2,0-3c0-1.7-0.2-1.8-1.8-1.8
		c-0.2,0-0.4,0-0.6,0c-0.1,0-0.2,0-0.3,0H178c-2.1,0.1-4.1,0.1-6.2,0c-0.1,0-0.1,0-0.2,0l0,0c-0.8,0-1.5,0.1-2.3,0
		c-0.5-0.1-1.1,0-1.2-0.6l0,0l0,0c4.2,0,8.4-0.1,12.5,0c1.3,0,1.7-0.3,1.7-1.7c-0.1-14.9-0.1-29.9,0-44.8c0.1-5.8-0.8-11.3-4-16.3
		c-0.1-0.1-0.2-0.2-0.3-0.3c0.7-3.6-0.1-7.1,0.1-10.7c0-0.6,0-1.3,0.1-1.9c0.1-0.5,0.3-1.1,1.1-0.7c1.8,1.4,3.4,3,4.7,4.9
		c-0.9,1-0.7,2.3-0.7,3.5c0.1,1.4,0.2,2.8-0.1,4.3c-0.3,1.3,0.1,2.6,0.1,3.9c0.1,2.9-0.2,5.8,0.1,8.7c0.2,2-0.3,4.1-0.2,6.1
		c0.1,3,0.2,5.9,0.1,8.9c0,2-0.2,4.1-0.1,6.1c0.2,2.8-0.6,5.5,0.1,8.2c0.3,1-0.4,1.9-0.2,2.8c0.3,2.4-0.1,4.7,0.1,7.1
		c0.2,2.9,0,5.8-0.1,8.8c0,1.3,0,2.5,0.2,3.8c0.2,1.8,0.2,3.6,0,5.4C183.2,91.8,183.3,92.6,183.8,93.4z"/>
	<path class="st68" d="M140.4,27.2c-0.9,0.6-0.8,1.7-1.5,2.8c-0.4-1,0-1.8-0.2-2.6c-0.1-0.4-0.1-0.9-0.7-0.9
		c-0.6,0.1-0.4,0.5-0.4,0.9c-0.1,1-0.2,1.9-0.6,2.8c-0.6,1.2,0,2.3,0.3,3.4c0.1,0.3,0.4,0.8-0.1,0.9c-0.3,0.1-0.7,0.1-0.9,0
		c-0.4-0.2-0.1-0.6,0-0.8c0.2-0.5,0.2-1.1-0.2-1.5c-0.9-1.3-2-2.5-2.4-4.1c-0.1-0.4-0.6-1.1-1.2-0.9c-0.6,0.2-0.2,0.8-0.2,1.3
		c0,0.3,0.1,0.6,0.1,1c-1.3-0.5-1-1.7-0.5-2.3c1.1-1.6,0.8-3.4,0.8-5.1c0-3-0.3-6,0.1-8.9c0.2-1-0.1-2-0.4-3
		c1.3-1.3,2.6-2.6,4.2-3.5c1.2,0.3,1.1,1.3,1.1,2.1c0.1,2.6,0,5.2,0,7.8c0,0.6,0,1.3,0.1,1.9c0,0.2,0.1,0.3,0.2,0.4
		c-0.2,0.1-0.3,0.3-0.5,0.4c0.4,0.5,1,0,1.5,0.2c0.1,0,0.2,0,0.3-0.1c0.4,0.3,0.4,0.7,0,1.2c-0.1,0.1-0.2,0.2-0.3,0.4
		c-0.5-0.3-0.3,0.3-0.4,0.5c0.1,0.8,1.7,0.9,1,2c-0.7,1-0.1,1.4,0.6,1.9C140.3,25.9,140.3,26.6,140.4,27.2z"/>
	<path class="st69" d="M132.3,10.1c1.6,0.7,1,2.1,0.9,3.2c-0.3,3-0.2,5.9,0,8.8c0.1,1.5,0.4,3.4-0.4,4.3c-1,1.2-0.8,1.9-0.4,3
		c0.3,0,0.7,0,0.6,0.5c-0.1,1.4,0,2.9-0.4,4.2c-0.3,1.1-1.4,0.3-2.1,0.5c-0.8,0.2-0.7-0.2-0.7-0.8c0-4.9,0-9.9,0-14.8
		c0-1.8,0-3.7-0.4-5.5C130.2,12.3,131,11,132.3,10.1z"/>
	<path class="st70" d="M143.2,14.3c0,0.1,0,0.1,0,0.2c-0.1,0-0.2,0.1-0.2,0.1c-1.7,1.4-3.3,2.8-5,4.2c-0.2,0.1-0.3,0.3-0.5,0.4
		c-0.4-0.6-0.4-1.2-0.4-1.9c0-2.9,0-5.8,0-8.7c0-0.8,0-1.5-0.6-2.1c1.8-1.3,3.5-2.6,5.7-3.3l0,0c1.3,0.2,1,1.4,1,2.1
		C143.3,8.4,143.4,11.3,143.2,14.3z"/>
	<path class="st71" d="M149.5,4.9c-0.2,2.2,0.1,4.4-0.1,6.6c0,0.1,0,0.2-0.1,0.3c-0.1,0-0.2,0-0.3,0.1c-2,0.9-3.9,1.8-5.9,2.7
		c-0.1,0-0.2,0.1-0.2,0.1c0-2.9,0-5.8-0.1-8.8c0-0.9,0-1.8-0.7-2.5c2.1-1.1,4.2-1.9,6.5-2.3C149.5,2.2,149.6,3.6,149.5,4.9z"/>
	<path class="st72" d="M150.7,25.9c-0.1,0.4,0,0.9-0.6,1c-1,0-1.4,0.7-1.6,1.4c-0.3,1.1-0.7,2.1-1.6,2.9c-0.6,0.5-0.8,1.4-0.7,2.2
		c0.1,1.5-0.6,1.4-1.8,1.1c1.4-2.6-0.4-5.3,0.4-7.8c-0.5-2.4-0.5-4.9-0.2-7.4c0-0.1,0.1-0.1,0.2-0.2c0,0,0,0,0.1,0
		c0.2,0,0.4,0,0.6,0c0.8,0,1.6-0.1,2.4,0.3l0,0l0,0c1,0,1.9,0.2,2.7,0.7c0,0,0,0,0.1,0C150.5,22,151,24,150.7,25.9z"/>
	<path class="st73" d="M178.9,17.8c0.3,1.5-0.3,2.9-0.6,4.4c-0.1-0.1-0.2-0.2-0.3-0.3c-1.3-1.4-2.5-2.9-3.8-4.3
		c-0.1-0.1-0.1-0.2-0.1-0.3c0-0.1-0.1-0.2-0.1-0.3c0.6-3,0.2-6,0.2-9.1c0-1-0.2-1.9,0.6-2.7c1.7,0.9,3.2,2,4.5,3.3
		c-0.6,0.1-0.7,0.5-0.7,1C178.8,12.3,178.4,15,178.9,17.8z"/>
	<path class="st74" d="M154.5,8.4c0,0.8-0.1,1.6-0.6,2.3c-0.1,0-0.2,0-0.3,0c-1.4,0.3-2.8,0.6-4.2,0.9c-0.1,0-0.2,0-0.3,0.1
		c-0.4-3.6,0.3-7.2-0.4-10.7c1-0.4,2.1-0.6,3.2-0.6c0.1,0,0.2,0,0.3,0c1.9-0.2,2,0,2.2,2C154.5,4.4,154.4,6.4,154.5,8.4z"/>
	<path class="st75" d="M171,14.1c0,0.2-0.1,0.3-0.2,0.4c-0.1,0-0.1,0-0.2,0s-0.1,0-0.2,0c-1.3-0.7-2.7-1.4-4-2.1h-0.1
		c-0.1-0.1-0.1-0.1-0.2-0.2c-0.3-1.6,0.1-3.2,0.2-4.8c0.1-1.4,0.1-2.9-0.1-4.3c-0.1-0.6,0-1.2,0.3-1.7c1.6,0.3,3.1,0.9,4.5,1.6
		c0.2,0.3,0.4,0.5,0.4,0.9C171.4,7.3,171.5,10.7,171,14.1z"/>
	<path class="st76" d="M166.5,9.1c-0.2,1.1-0.1,2.2-0.1,3.3h-0.1c-1.3-0.4-2.7-0.8-4.1-1.3c-0.1,0-0.1,0-0.2,0c0,0-0.1,0-0.1-0.1
		c-0.1-3.5-0.3-7.1,0-10.6c1.6,0.1,3.1,0.4,4.5,1C166.7,4,167,6.5,166.5,9.1z"/>
	<path class="st77" d="M174.8,14.7c0,0.9,0,1.7-0.7,2.4c0,0,0,0.1-0.1,0.1c-1.1-0.9-2.3-1.7-3.4-2.6v-0.1c0.4-3.8,0.3-7.6,0.3-11.4
		c1.4,0.5,2.7,1.2,3.9,2.1C174.4,8.3,174.9,11.5,174.8,14.7z"/>
	<path class="st78" d="M162.3,5c0,2,0.1,4.1-0.1,6.2c-0.1,0-0.1,0-0.2,0c-2.4-0.4-4.7-0.5-7.1-0.5c0,0,0,0,0-0.1
		c0-0.8,0.8-0.6,1.2-0.6c1.3,0,1.5-0.6,1.5-1.8c0.1-2.7-0.3-5.4,0.1-8.2c1.4-0.1,2.8-0.1,4.2,0.4C162.6,1.9,162.3,3.5,162.3,5z"/>
	<path class="st79" d="M156.2,10.4c-0.4-0.1-0.9-0.1-1.3,0.2c0,0-0.1,0-0.1,0.1c-0.3,0-0.6,0-0.9,0.1c-0.1,0-0.2,0-0.3,0
		c0.8-2,0.4-4.1,0.4-6.2c0-0.7-0.2-1.4-0.1-2.1c0.2-1.5-0.3-2.2-1.7-2.1c-0.1,0-0.2,0-0.3,0c1.9-0.5,3.9-0.5,5.9-0.3
		c0.7,2,0.2,4.1,0.4,6.1c0.1,0.7-0.2,1.5,0,2.2C158.6,10.3,157.8,10.6,156.2,10.4z"/>
	<path class="st80" d="M144.8,26.6c-1.2-1.1-1.1-0.1-1.4,0.7c-0.2,0.5,0.7,2-1.2,1.6c-0.6-0.1-0.9,0-0.6-0.6
		c0.2-0.6-0.2-0.8-0.6-1.1c0-0.6,0-1.3,0-1.9c1.3-0.9,0.4-1.7,0-2.6c0.9-0.5,1.2-1.2,0.9-2.3c-0.9,0.7-1.7,1.4-2.8,0.6l0,0
		c-0.5-0.3-0.3,0.3-0.4,0.5c-0.3-0.5-0.6-0.9,0.3-1.1c0.6-0.2,0.4-0.6,0-0.9c0.1,0,0.2,0,0.3-0.1c1.8-0.3,3.7-0.5,5.5-0.3
		c0,0,0,0,0.1,0C144.8,21.6,145.1,24.1,144.8,26.6z"/>
	<path class="st81" d="M149.7,34.5c-0.4-0.1-1.2,0.5-1.3-0.2c-0.2-0.9,0.4-1.5,1.3-1.6c-0.5,1.1-0.5,1.3-0.2,1.5
		c0.1,0,0.1,0.1,0.2,0.1C149.7,34.3,149.7,34.4,149.7,34.5z"/>
	<path class="st82" d="M134.5,34.5c-0.7,0.3-1.2,0.2-1.4-0.6c0-0.1,0-0.3,0.1-0.4C133.8,33.5,134.2,33.9,134.5,34.5z"/>
	<path class="st83" d="M147.9,19.4c-0.8-0.3-1.6,0.1-2.4-0.3C146.3,19.1,147.1,19,147.9,19.4z"/>
	<path class="st83" d="M168.1,84.9C168,84.9,168,84.9,168.1,84.9c-1.1,0.3-2.2,0.4-3.2,0.4l0,0c-1,0-1.9-0.1-2.9-0.2h-0.1
		c-0.4-0.1-0.8-0.1-1.2-0.2c0,0,0,0-0.1,0l0,0l0,0c-0.1-0.2-0.2-0.3-0.3-0.5c-0.2-0.7-0.1-1.4-0.1-2.1c0-15.6,0-31.3,0-46.9
		c0-0.8,0-1.6-0.1-2.4c-0.4-2.4-0.9-4.8-2.4-6.8c-0.1-0.1-0.2-0.3-0.3-0.4l0,0c-0.4-0.7-1.3-1-1.5-1.9c0-0.1,0-0.3,0-0.4l0.1,0.1
		c0.5,0.6,1,1.1,1.6,1.7c1.7,2.1,2.7,4.5,2.9,7.2c0.4,0.6,0.3,1.4,0.3,2c0,16.8,0,33.6,0,50.4C163.1,84.8,165.6,84.8,168.1,84.9
		L168.1,84.9z"/>
	<path class="st79" d="M157.6,91.6c0,0.5,0,1-0.2,1.4c-0.1,0.1-0.2,0.3-0.3,0.4h-1.9V51.8c0-8.9,0-17.8,0-26.8
		c0-0.6-0.4-1.5,0.6-1.8l0.1,0.1c0.5,0.6,1,1.1,1.6,1.7c0.1,0.3,0.2,0.6,0.2,0.9c0,0.6-0.1,1.3-0.1,1.9c0,11.1-0.2,22.3,0.1,33.4
		c0.1,4.6-0.1,9.2,0,13.8C157.8,80.6,157.7,86.1,157.6,91.6z"/>
	<path class="st84" d="M160.8,91.9c0,0.4,0,0.7-0.2,1.1c-0.1,0.1-0.2,0.3-0.3,0.4c-1.1,0-2.1,0-3.2,0V93c0-5-0.1-10,0-15
		c0.1-3-0.1-6.1-0.1-9.1c0.1-13.6,0-27.2,0-40.8c0-0.9,0-1.7,0.2-2.5c0-0.2,0.1-0.3,0.1-0.5c1.7,2.1,2.7,4.5,2.9,7.2
		c0.3,0.6,0.1,1.2,0.1,1.7c0,16.9,0,33.8,0,50.7c0,0,0,0.1,0.1,0.1l0,0c0,0,0,0.1,0.1,0.1c0,0,0,0.1,0.1,0.1c0,0,0,0.1,0.1,0.1
		C160.8,87.5,160.8,89.7,160.8,91.9z"/>
	<path class="st75" d="M172.1,93c0,0.1-0.1,0.3-0.2,0.4h-6.4c-0.1-0.1-0.2-0.3-0.3-0.4c-0.2-0.4-0.2-0.9-0.2-1.4c0-0.9,0-1.8,0-2.7
		c0-3-0.1-3-3-3.3c-0.4,0-0.8-0.1-1.2-0.3l-0.1-0.1l0,0c-0.1-0.1-0.1-0.2-0.1-0.2l0,0l0,0c0-0.1,0.1-0.1,0.1-0.1
		c2.5,0.1,4.9,0.1,7.4,0.2l0,0c1.1,0.4,2.3,0.1,3.5,0.2c0.1,0.1,0.1,0.3,0.2,0.4c0.6,1.7,0.3,3.6,0.4,5.3
		C172.2,91.6,172.3,92.3,172.1,93z"/>
	<path class="st85" d="M171.9,93.4c-0.4-2.7-0.3-5.5-0.3-8.3c2.1,0,4.3,0,6.4,0c0.4,0.4,0.5,0.9,0.5,1.5c0,1.8,0,3.5,0,5.3
		c0,0.5-0.1,1.1-0.5,1.5C176,93.4,173.9,93.4,171.9,93.4z"/>
	<path class="st86" d="M160.6,85.1c0.7,0,1.4,0,2.1,0c2.5,0,2.6,0.1,2.7,2.7c0.1,1.9,0,3.8,0,5.6c-1.7,0-3.4,0-5.1,0
		c0-2.1,0-4.3,0-6.4C160.3,86.3,160.2,85.7,160.6,85.1z"/>
	<path class="st67" d="M178,93.4c0-2.8,0-5.5,0-8.3c3.2-0.1,3.2-0.1,3.2,3.1c0,1.7,0,3.4,0,5.1C180.1,93.4,179.1,93.4,178,93.4z"/>
	<path class="st80" d="M147.9,19.4c-0.8-0.1-1.7,0.3-2.4-0.3C146.3,19.1,147.1,19,147.9,19.4L147.9,19.4z"/>
	<path class="st86" d="M160.6,84.7v0.2V85v0.1c-0.3-0.2-0.3-0.5-0.3-0.8c0-0.2,0-0.4,0-0.6c0-17.2,0-34.3,0-51.5
		c0.4,0.6,0.3,1.4,0.3,2C160.6,51.1,160.6,67.9,160.6,84.7z"/>
</g>
<path class="st87" d="M110.7,9.2c-1,1.4-2,2.7-3.2,3.8c-0.1-0.1-0.1-0.2-0.2-0.3c-0.1-0.2-0.2-0.3-0.3-0.5c-0.1-0.1-0.2-0.1-0.3-0.2
	c0.7-0.9,1.4-1.8,2.1-2.7l0.1-0.1c0.4-0.3,0.7-0.6,1-0.9l0.1-0.1c0.3,0.1,0.5,0.3,0.6,0.6C110.7,8.9,110.7,9,110.7,9.2z"/>
<path class="st15" d="M98.9,59c-0.5,0.6-1,1.5-2,1.3c-1-0.1-1.4-0.8-1.7-1.7c-0.8-2.3,0.4-3.7,2-5c0.1,0.1,0.1,0.1,0.2,0.2
	c0.8,0.8,1.2,1.8,1.6,2.8l0,0c0.1,0.2,0.1,0.3,0.2,0.4c0,0.1,0,0.3,0,0.4l0,0C99.1,58,99.3,58.5,98.9,59z"/>
<path class="st88" d="M104.1,69.7c-0.6,0.6-1.2,1.2-2.1,0.8c-0.8-0.3-1.3-1-1.2-2c0-0.3,0-0.5,0-0.8l0,0c0-0.1,0-0.2,0-0.3
	c0.1-0.1,0.1-0.3,0.2-0.4c0.3-0.9,0.7-1.7,1.3-2.4l0.1-0.1C104.6,65.4,105.5,68.2,104.1,69.7z"/>
<path class="st89" d="M98.9,69.6c-0.5,0.6-0.8,1.4-1.7,1.3c-0.9-0.1-1.5-0.7-1.9-1.5c-0.9-1.9-0.1-4.1,1.9-5.2c0.1,0,0.1,0,0.2,0.1
	l0,0l0,0c0.8,0.8,1.3,1.8,1.7,2.9c0.1,0.1,0.1,0.3,0.2,0.4c0,0.1,0,0.3,0,0.4l0,0C99.1,68.5,99.3,69.1,98.9,69.6z"/>
<path class="st90" d="M105.5,58.6c-0.4,2.6-2.6,3.5-4.7,2c-0.2-0.1-0.4-0.2-0.7-0.3c0,0,0,0-0.1,0l0,0c0-0.5,0-1,0-1.5v-0.1
	c0.2,0,0.4,0,0.5,0.1c0.2,0.1,0.3,0.2,0.4,0.4c0,0,0,0,0.1,0.1s0.1,0.2,0.2,0.2c0.2,0.2,0.5,0.4,0.7,0.5c0,0,0,0,0.1,0
	c0.6,0.2,1.1,0.2,1.5-0.2c0.3-0.2,0.5-0.6,0.6-1c0.5-1.5,0.4-2.8-0.8-4l-0.1-0.1c-0.3-0.2-0.6-0.4-0.7-0.8c0,0,0-0.1,0-0.2l0.1-0.1
	c0.1-0.3,0.2-0.5,0.5-0.6c0,0,0.1-0.1,0.2-0.1C105.5,54.2,105.9,56.3,105.5,58.6z"/>
<path class="st47" d="M102.7,53.5c0,0.1-0.1,0.2-0.1,0.2c-0.1,0.2-0.1,0.4-0.2,0.6c0,0.1-0.1,0.1-0.1,0.2c0,0,0,0-0.1,0.1
	c-0.6,0.6-0.6,1.5-1.2,2c-0.1,0-0.1,0.1-0.2,0.1c0.1-0.1,0.1-0.3,0.2-0.4l0,0c0.3-0.7,0.5-1.4,1.1-1.9
	C102.2,54.1,102.4,53.8,102.7,53.5C102.6,53.6,102.6,53.6,102.7,53.5z"/>
<path class="st15" d="M104.3,79.9c-0.5,0.8-1.1,1.6-2.1,1.3c-0.9-0.2-1.4-0.8-1.4-1.7c0-0.1,0-0.2,0-0.3c0-0.3,0-0.5,0-0.8
	c0-0.1,0-0.2,0-0.3c0.1-0.1,0.1-0.3,0.2-0.4c0.4-0.9,0.7-1.8,1.4-2.4c0.1,0.1,0.2,0.1,0.3,0.2C104.6,76.5,105.2,78.2,104.3,79.9z"/>
<path class="st89" d="M99.2,78.2c0,0.1,0,0.3-0.1,0.4L99,78.7c0,0.1-0.1,0.2-0.1,0.3c-0.3,0.8-0.6,1.6-1.7,1.8
	c-0.7,0.1-1.3-0.2-1.5-0.9c-0.5-1.2-0.6-2.3,0.2-3.5c0.4-0.5,1.2-0.6,1.5-1.1l0,0c0-0.1,0.1-0.2,0.1-0.3c0.7,0.7,1.1,1.7,1.5,2.6
	l0,0C99,77.9,99.1,78.1,99.2,78.2z"/>
<path class="st91" d="M103.7,59.5c-0.1,0.1-0.1,0.1-0.2,0.2c-0.5,0.3-1,0.4-1.5,0.2c0,0,0,0-0.1,0c-0.4-0.1-0.7-0.4-0.9-0.7
	c0,0,0,0-0.1-0.1s-0.2-0.3-0.2-0.5c0-0.1-0.1-0.2-0.1-0.3c-0.1-0.3-0.2-0.7-0.1-1c0-0.1,0.1-0.2,0.1-0.2c0-0.1,0-0.2,0-0.3
	c0.1-0.1,0.1-0.3,0.2-0.4l0,0c0.3-0.7,0.5-1.4,1.1-1.9c0.1,0,0.2,0,0.3,0c0.4,0,0.8,0.1,1.1,0.3c0.4,0.2,0.8,0.7,1,1.2
	C104.8,57.1,104.5,58.8,103.7,59.5z"/>
<path class="st92" d="M104.7,58.4c-0.3,1.1-0.9,1.8-1.9,2.1s-1.6-0.5-2.2-1.2c0,0,0-0.1-0.1-0.1c-0.1-0.2-0.3-0.4-0.4-0.5
	c0.2-0.5,0.3-0.9,0.5-1.3c0-0.1,0.1-0.2,0.1-0.2c0,0.2,0.1,0.4,0.1,0.6c0.2,1,0.5,1.8,1.8,1.9c1.1,0,1.5-0.9,1.6-1.8
	c0.3-1.7-0.1-2.4-1.8-3c-0.1,0-0.2-0.1-0.3-0.2c-0.1-0.1-0.2-0.1-0.2-0.2c0.1-0.3,0.3-0.6,0.5-0.8l0.1-0.1
	C104.3,54.7,105.3,56.1,104.7,58.4z"/>
<path class="st56" d="M98.2,57.3c0,0.7,0,1.3-0.9,1.4c-1,0-1-0.7-1-1.4s0.1-1.6,0.9-1.6C98.1,55.6,98.2,56.5,98.2,57.3z"/>
<path class="st93" d="M103.6,67.6c0,0.8-0.2,1.6-1.2,1.6c-0.8,0-1-0.9-1.1-1.6c-0.1-0.8,0.3-1.5,1.1-1.5
	C103.3,66.2,103.6,66.9,103.6,67.6z"/>
<path class="st93" d="M98.2,67.6c0,0.8-0.2,1.7-1.1,1.6c-0.8,0-1.1-0.9-1.2-1.7c0-0.8,0.4-1.4,1.2-1.4
	C98.1,66.1,98.2,66.8,98.2,67.6z"/>
<path class="st56" d="M103.6,78.4c0,0.7-0.3,1.4-1.1,1.5c-0.8,0.1-1.1-0.7-1-1.3c0.1-0.7,0.2-1.7,1.2-1.7
	C103.4,76.9,103.6,77.6,103.6,78.4z"/>
<path class="st56" d="M98.2,78.4c0,0.7-0.2,1.4-1.2,1.5c-0.8,0-1-0.8-1.1-1.4c-0.1-0.9,0.5-1.5,1.2-1.6
	C97.9,76.8,98.2,77.6,98.2,78.4z"/>
<path class="st94" d="M103.3,57c0,0.6,0,1.3-0.8,1.3c-0.7,0-0.8-0.6-0.8-1.1c0-0.6,0-1.3,0.8-1.3C103.2,55.9,103.3,56.4,103.3,57z"
	/>
<path class="st0" d="M71.2,160.6l2.2-5.2h3.2v0.2h-0.3c-0.2,0-0.4,0-0.6,0.1c-0.1,0.1-0.2,0.1-0.2,0.3c0,0.1-0.1,0.3-0.1,0.7v5.2
	c0,0.4,0,0.7,0.1,0.8s0.1,0.2,0.3,0.3s0.3,0.1,0.5,0.1h0.3v0.2h-4.1v-0.2h0.3c0.2,0,0.4,0,0.6-0.1c0.1-0.1,0.2-0.1,0.2-0.3
	c0-0.1,0.1-0.3,0.1-0.7v-5.9l-3,7.2h-0.1l-3.1-7.2v5.6c0,0.4,0,0.6,0,0.7c0.1,0.2,0.2,0.4,0.3,0.5s0.4,0.2,0.8,0.2v0.2h-2.7v-0.2
	h0.1c0.2,0,0.3,0,0.5-0.1s0.3-0.1,0.3-0.2s0.1-0.2,0.2-0.4c0,0,0-0.2,0-0.6v-5c0-0.4,0-0.7-0.1-0.8s-0.1-0.2-0.3-0.3
	s-0.3-0.1-0.5-0.1h-0.3v-0.2H69L71.2,160.6z"/>
<path class="st0" d="M89.1,161.1h-2.8l-0.3,0.8c-0.1,0.3-0.2,0.5-0.2,0.6c0,0.2,0.1,0.4,0.3,0.5c0.1,0.1,0.4,0.1,0.8,0.1v0.2h-2.6
	v-0.2c0.3,0,0.5-0.2,0.7-0.4s0.4-0.6,0.7-1.2l2.8-6.3h0.1l2.9,6.5c0.3,0.6,0.5,1,0.7,1.2c0.1,0.1,0.3,0.2,0.6,0.2v0.2h-3.8v-0.2H89
	c0.3,0,0.5,0,0.7-0.1c0.1-0.1,0.1-0.2,0.1-0.3c0-0.1,0-0.1,0-0.2c0,0-0.1-0.2-0.2-0.4L89.1,161.1z M88.9,160.6l-1.2-2.7l-1.2,2.7
	H88.9z"/>
<path class="st0" d="M103.3,159.7v2.2c0,0.4,0,0.7,0.1,0.8s0.1,0.2,0.3,0.3s0.4,0.1,0.7,0.1v0.2h-4.1v-0.2c0.4,0,0.6,0,0.7-0.1
	s0.2-0.2,0.3-0.3s0.1-0.4,0.1-0.8v-5.2c0-0.4,0-0.7-0.1-0.8s-0.1-0.2-0.3-0.3s-0.4-0.1-0.7-0.1v-0.2h3.7c1,0,1.7,0.1,2.1,0.2
	s0.8,0.4,1.1,0.7s0.4,0.8,0.4,1.3c0,0.6-0.2,1.1-0.6,1.5c-0.3,0.2-0.6,0.4-1.1,0.5l1.9,2.7c0.2,0.3,0.4,0.6,0.5,0.7
	c0.2,0.1,0.3,0.2,0.6,0.2v0.2h-2.5l-2.6-3.6H103.3z M103.3,155.8v3.5h0.3c0.5,0,0.9,0,1.2-0.1s0.5-0.3,0.6-0.5s0.2-0.6,0.2-1
	c0-0.6-0.1-1.1-0.4-1.3s-0.7-0.4-1.4-0.4H103.3z"/>
<path class="st0" d="M121.8,158.4l2.8,3.5c0.4,0.5,0.7,0.8,1,1c0.2,0.1,0.4,0.2,0.7,0.2v0.2h-4.1v-0.2c0.3,0,0.4-0.1,0.5-0.1
	s0.1-0.1,0.1-0.2c0-0.2-0.2-0.5-0.5-0.9l-1.8-2.3l-0.3,0.2v2.2c0,0.4,0,0.7,0.1,0.8s0.1,0.2,0.3,0.3s0.3,0.1,0.6,0.1v0.2h-4v-0.2
	h0.3c0.2,0,0.4,0,0.6-0.1c0.1-0.1,0.2-0.1,0.2-0.3c0-0.1,0.1-0.3,0.1-0.7v-5.2c0-0.4,0-0.7-0.1-0.8s-0.1-0.2-0.3-0.3
	s-0.3-0.1-0.5-0.1h-0.3v-0.2h4v0.2c-0.3,0-0.5,0-0.6,0.1c-0.1,0.1-0.2,0.1-0.2,0.3c0,0.1-0.1,0.3-0.1,0.8v2.5l2.9-2.4
	c0.4-0.3,0.6-0.6,0.6-0.8c0-0.1-0.1-0.3-0.3-0.4c-0.1,0-0.3-0.1-0.6-0.1v-0.2h3.1v0.2c-0.3,0-0.5,0.1-0.7,0.1s-0.5,0.4-1.1,0.8
	L121.8,158.4z"/>
<path class="st0" d="M141.5,155.4v2.2h-0.2c-0.1-0.5-0.3-0.9-0.4-1.1s-0.4-0.4-0.6-0.5c-0.1-0.1-0.4-0.1-0.8-0.1h-0.6v6.1
	c0,0.4,0,0.7,0.1,0.8s0.1,0.2,0.3,0.3s0.3,0.1,0.5,0.1h0.3v0.2h-4.2v-0.2h0.3c0.2,0,0.4,0,0.6-0.1c0.1-0.1,0.2-0.1,0.2-0.3
	c0-0.1,0.1-0.3,0.1-0.7v-6.1h-0.6c-0.5,0-0.9,0.1-1.2,0.3c-0.3,0.3-0.6,0.8-0.6,1.4h-0.2v-2.2H141.5z"/>
</svg>
