<?xml version="1.0" encoding="utf-8"?>
<!-- Generator: Adobe Illustrator 25.2.2, SVG Export Plug-In . SVG Version: 6.00 Build 0)  -->
<svg version="1.1" id="Layer_1" xmlns="http://www.w3.org/2000/svg" xmlns:xlink="http://www.w3.org/1999/xlink" x="0px" y="0px"
	 viewBox="0 0 64 64" style="enable-background:new 0 0 64 64;" xml:space="preserve">
<path d="M23.8,19.5c-3.8,0-6.9,3.1-6.9,6.9c0,3.8,3.1,6.9,6.9,6.9c3.8,0,6.9-3.1,6.9-6.9C30.7,22.6,27.6,19.5,23.8,19.5z M23.8,32.2
	c-3.2,0-5.9-2.6-5.9-5.9c0-3.2,2.6-5.9,5.9-5.9c3.2,0,5.9,2.6,5.9,5.9C29.6,29.6,27,32.2,23.8,32.2z"/>
<path d="M26.6,23.3l-2.8,2.8L21,23.3c-0.2-0.2-0.5-0.2-0.8,0c-0.2,0.2-0.2,0.5,0,0.8l3.2,3.2c0.1,0.1,0.2,0.2,0.4,0.2
	c0.1,0,0.3-0.1,0.4-0.2c0,0,0,0,0,0l3.2-3.2c0.2-0.2,0.2-0.5,0-0.8C27.1,23.1,26.8,23.1,26.6,23.3z"/>
<path d="M32,0C14.3,0,0,14.3,0,32c0,17.7,14.3,32,32,32c17.7,0,32-14.3,32-32C64,14.3,49.7,0,32,0z M6.5,17.2h43.3v3.3h-8.4v16.6
	H6.5V17.2z M7.2,41.6H6.5v-3.7h3.8C8.7,38.4,7.5,39.8,7.2,41.6C7.2,41.5,7.2,41.6,7.2,41.6z M11.9,46.8c-2.5,0-4.5-2-4.5-4.5
	c0-0.3,0-0.5,0.1-0.8c0.4-2.1,2.2-3.7,4.4-3.7h0c2.2,0,4,1.6,4.4,3.7c0,0.2,0.1,0.5,0.1,0.8C16.4,44.8,14.4,46.8,11.9,46.8z
	 M47.3,46.8c-2.5,0-4.5-2-4.5-4.5c0-2.5,2-4.5,4.5-4.5c2.5,0,4.5,2,4.5,4.5C51.8,44.8,49.8,46.8,47.3,46.8z M56.6,39.3
	c0.3,0,0.6,0,0.9,0.1c0,0.7,0,1.4,0,2.2c-1.7,0-3.4,0-5.1,0c-0.6-2.5-3-4.5-5.6-4.1c-2.3,0.1-4,2.1-4.6,4.2H16.6c0,0,0,0,0,0
	c-0.3-1.7-1.5-3.1-3.1-3.7h28.6c0-4.4,0-8.7,0-13.1l0,0v-3.3l0,0c0,0,0,0,0,0c0,0,0,0,0,0c2.7,0,5.3,0,8,0c-0.1,1,0.1,2,0.3,2.9
	c0.4,1.5,1,3,1.3,4.5c0.4,0.9,0.3,2.1,1.3,2.6c0.1,0,0.1,0.1,0.2,0.1c0.5,0.2,0.9,0.4,1.4,0.7c0.7,0.3,1.3,0.6,2,0.9
	C56.6,35.2,56.6,37.2,56.6,39.3z"/>
<path d="M13,41.6c-0.2-0.3-0.6-0.6-1.1-0.6c-0.5,0-0.9,0.2-1.1,0.6c-0.1,0.2-0.2,0.3-0.2,0.5c0,0.1,0,0.2,0,0.2c0,0.4,0.2,0.7,0.4,1
	c0.2,0.2,0.6,0.4,0.9,0.4c0.3,0,0.7-0.1,0.9-0.4c0.3-0.2,0.4-0.6,0.4-1c0-0.1,0-0.2,0-0.2C13.2,41.9,13.1,41.7,13,41.6z"/>
<path d="M47.3,41c-0.7,0-1.2,0.5-1.3,1.1c0,0.1,0,0.2,0,0.2c0,0.4,0.2,0.7,0.4,1c0.2,0.2,0.6,0.4,0.9,0.4c0.3,0,0.7-0.1,0.9-0.4
	c0.3-0.2,0.4-0.6,0.4-1c0-0.1,0-0.2,0-0.2C48.5,41.5,48,41,47.3,41z"/>
<path d="M52.9,39.4c1.2,0,2.3,0,3.5,0c0-0.7,0-1.4,0-2.1c-1.2,0-2.3,0-3.5,0C52.9,38,52.9,38.7,52.9,39.4z"/>
<path d="M45.7,25.3c-0.1,2,0,4,0,6c1.9,0,3.8,0,5.7,0c-0.5-2-1.2-3.9-1.7-5.9C48.4,25.2,47,25.3,45.7,25.3z"/>
</svg>
